<svg role="img" width="79" height="9" viewBox="0 0 79 9" fill="none" xmlns="http://www.w3.org/2000/svg">
    <path d="M74.6563 0.144776C72.4471 0.144775 70.6563 1.93564 70.6563 4.14477C70.6563 6.35391 72.4471 8.14477 74.6562 8.14478C76.8654 8.14478 78.6563 6.35391 78.6563 4.14478C78.6563 1.93564 76.8654 0.144776 74.6563 0.144776Z" fill="#1E1C1C"/>
    <path d="M65.6563 2.14478C64.5517 2.14478 63.6563 3.0402 63.6563 4.14478C63.6563 5.24935 64.5517 6.14478 65.6562 6.14478C66.7608 6.14478 67.6563 5.24936 67.6563 4.14478C67.6563 3.0402 66.7608 2.14478 65.6563 2.14478Z" fill="#1E1C1C"/>
    <path d="M60.1562 4.14478L0.65625 4.14477" stroke="url(#paint0_linear_174_7022)"/>
    <defs>
        <linearGradient id="paint0_linear_174_7022" x1="0.463248" y1="3.64477" x2="60.3493" y2="3.64478" gradientUnits="userSpaceOnUse">
            <stop stop-color="#F4F3F2" stop-opacity="0"/>
            <stop offset="1" stop-color="#1E1C1C"/>
        </linearGradient>
    </defs>
</svg>
