<svg width="476" height="168" viewBox="0 0 476 168" fill="none" xmlns="http://www.w3.org/2000/svg">
<path d="M355.617 84.2149C369.075 84.2149 379.984 73.3054 379.984 59.8478C379.984 46.3902 369.075 35.4807 355.617 35.4807C342.16 35.4807 331.25 46.3902 331.25 59.8478C331.25 73.3054 342.16 84.2149 355.617 84.2149Z" fill="#60E093"/>
<path d="M260.894 133.896L228.86 101.863L196.827 133.896L228.86 165.93L260.894 133.896Z" fill="#A8CFEE"/>
<path d="M165.028 140.653L154.588 156.751L170.686 167.192L181.126 151.094L165.028 140.653Z" fill="#FF5631"/>
<path d="M290.018 142.313C317.086 142.313 339.03 120.369 339.03 93.3009C339.03 66.2323 317.086 44.2888 290.018 44.2888C262.949 44.2888 241.006 66.2323 241.006 93.3009C241.006 120.369 262.949 142.313 290.018 142.313Z" stroke="#1E1C1C" stroke-miterlimit="10"/>
<path d="M449.112 165.619C463.567 165.619 475.286 153.901 475.286 139.446C475.286 124.991 463.567 113.273 449.112 113.273C434.657 113.273 422.939 124.991 422.939 139.446C422.939 153.901 434.657 165.619 449.112 165.619Z" stroke="#1E1C1C" stroke-miterlimit="10"/>
<path d="M66.4531 165.93C80.9081 165.93 92.6264 154.212 92.6264 139.757C92.6264 125.302 80.9081 113.583 66.4531 113.583C51.9981 113.583 40.2803 125.302 40.2803 139.757C40.2803 154.212 51.9981 165.93 66.4531 165.93Z" stroke="#1E1C1C" stroke-miterlimit="10"/>
<path d="M379.873 165.93C403.658 165.93 422.939 146.648 422.939 122.864C422.939 99.0788 403.658 79.7975 379.873 79.7975C356.088 79.7975 336.807 99.0788 336.807 122.864C336.807 146.648 356.088 165.93 379.873 165.93Z" fill="#FFCD4E"/>
<path d="M333.194 1.00012L338.613 40.4265" stroke="#1E1C1C" stroke-miterlimit="10"/>
<path d="M316.19 23.4226L355.617 18.0046" stroke="#1E1C1C" stroke-miterlimit="10"/>
<path d="M320.053 8.69653L351.755 32.7302" stroke="#1E1C1C" stroke-miterlimit="10"/>
<path d="M323.887 36.5649L347.92 4.86267" stroke="#1E1C1C" stroke-miterlimit="10"/>
<path d="M341.141 1.52795L330.694 39.9263" stroke="#1E1C1C" stroke-miterlimit="10"/>
<path d="M316.719 15.4757L355.117 25.9505" stroke="#1E1C1C" stroke-miterlimit="10"/>
<path d="M326.026 3.44543L345.781 37.9817" stroke="#1E1C1C" stroke-miterlimit="10"/>
<path d="M318.636 30.5909L353.172 10.8361" stroke="#1E1C1C" stroke-miterlimit="10"/>
<path d="M195.339 161.52C200.39 161.52 204.485 157.425 204.485 152.374C204.485 147.323 200.39 143.229 195.339 143.229C190.288 143.229 186.193 147.323 186.193 152.374C186.193 157.425 190.288 161.52 195.339 161.52Z" stroke="#1E1C1C" stroke-miterlimit="10"/>
<path d="M195.339 165.93C202.825 165.93 208.894 159.861 208.894 152.374C208.894 144.888 202.825 138.819 195.339 138.819C187.852 138.819 181.783 144.888 181.783 152.374C181.783 159.861 187.852 165.93 195.339 165.93Z" stroke="#1E1C1C" stroke-miterlimit="10"/>
<path d="M17.8574 126.193L23.2756 165.619" stroke="#1E1C1C" stroke-miterlimit="10"/>
<path d="M0.853516 148.615L40.28 143.197" stroke="#1E1C1C" stroke-miterlimit="10"/>
<path d="M4.71582 133.889L36.4181 157.923" stroke="#1E1C1C" stroke-miterlimit="10"/>
<path d="M8.5498 161.757L32.5835 130.055" stroke="#1E1C1C" stroke-miterlimit="10"/>
<path d="M25.8045 126.72L15.3574 165.119" stroke="#1E1C1C" stroke-miterlimit="10"/>
<path d="M1.38184 140.668L39.78 151.143" stroke="#1E1C1C" stroke-miterlimit="10"/>
<path d="M10.6895 128.638L30.4443 163.174" stroke="#1E1C1C" stroke-miterlimit="10"/>
<path d="M3.29883 155.783L37.8352 136.028" stroke="#1E1C1C" stroke-miterlimit="10"/>
</svg>
