<svg role="img" width="209" height="132" viewBox="0 0 209 132" fill="none" xmlns="http://www.w3.org/2000/svg">
    <g clip-path="url(#clip0_174_7346)">
        <path d="M174.98 101.14C178.596 101.14 182.13 100.068 185.136 98.0592C188.142 96.0506 190.485 93.1956 191.869 89.8554C193.252 86.5152 193.614 82.8397 192.909 79.2937C192.204 75.7477 190.463 72.4906 187.906 69.9341C185.35 67.3775 182.092 65.6366 178.546 64.9312C175 64.2259 171.325 64.5879 167.985 65.9714C164.645 67.355 161.79 69.698 159.781 72.7041C157.772 75.7103 156.7 79.2445 156.7 82.86C156.703 87.7073 158.63 92.3553 162.057 95.7829C165.485 99.2105 170.133 101.137 174.98 101.14Z" fill="#FFCD4E"/>
        <path d="M187.221 0.558056L7.54321 11.3273C3.40849 11.5751 0.257538 15.1279 0.505358 19.2626L6.78741 124.074C7.03523 128.209 10.588 131.36 14.7227 131.112L194.4 120.343C198.535 120.095 201.686 116.543 201.438 112.408L195.156 7.5959C194.908 3.46119 191.355 0.310236 187.221 0.558056Z" stroke="#1E1C1C"/>
        <path d="M14.8204 77.18C16.9633 77.18 18.7004 75.4429 18.7004 73.3C18.7004 71.1572 16.9633 69.42 14.8204 69.42C12.6776 69.42 10.9404 71.1572 10.9404 73.3C10.9404 75.4429 12.6776 77.18 14.8204 77.18Z" stroke="#1E1C1C"/>
        <path d="M28.8399 14.8401L184.27 5.52006C186.04 5.46619 187.759 6.11747 189.049 7.33073C190.34 8.54399 191.095 10.2199 191.15 11.9901L196.92 108.11C197.075 109.876 196.523 111.632 195.385 112.991C194.247 114.351 192.616 115.203 190.85 115.36L35.4199 124.68C33.6498 124.734 31.9306 124.083 30.6405 122.869C29.3503 121.656 28.5948 119.98 28.5399 118.21L22.7699 22.0901C22.6145 20.324 23.1665 18.5684 24.3046 17.209C25.4428 15.8496 27.074 14.9976 28.8399 14.8401Z" stroke="#1E1C1C"/>
        <path d="M172.865 20.5202L45.7832 28.4709L50.8235 109.033L177.905 101.083L172.865 20.5202Z" stroke="#1E1C1C"/>
        <path d="M110.479 42.2162L46.9033 46.1937L50.8359 109.051L114.412 105.073L110.479 42.2162Z" stroke="#1E1C1C"/>
        <path d="M78.6833 44.1912L46.8955 46.1799L50.8281 109.037L82.6159 107.048L78.6833 44.1912Z" stroke="#1E1C1C"/>
        <path d="M142.38 40.212L110.592 42.2008L114.524 105.058L146.312 103.069L142.38 40.212Z" stroke="#1E1C1C"/>
        <path d="M62.8096 45.15L66.7496 108" stroke="#1E1C1C"/>
        <path d="M94.8203 43.14L98.7503 106" stroke="#1E1C1C"/>
        <path d="M126.82 41.14L130.76 104" stroke="#1E1C1C"/>
        <path d="M158.83 39.14L162.77 101.99" stroke="#1E1C1C"/>
        <path d="M135.09 40.6199L174 38.1899" stroke="#1E1C1C"/>
        <path d="M85.5223 30.7375L50.8301 32.908L51.0143 35.8522L85.7065 33.6817L85.5223 30.7375Z" fill="#1E1C1C"/>
        <path d="M104.884 35.7364L51.2188 39.0939L51.403 42.0381L105.068 38.6806L104.884 35.7364Z" fill="#1E1C1C"/>
        <path d="M86.7477 70.2066L70.4595 71.2256C69.0429 71.3143 67.9664 72.5345 68.055 73.9511L68.5302 81.5463C68.6188 82.9629 69.8391 84.0394 71.2557 83.9508L87.5438 82.9317C88.9604 82.8431 90.037 81.6229 89.9483 80.2063L89.4732 72.6111C89.3845 71.1945 88.1643 70.1179 86.7477 70.2066Z" fill="#A8CFEE"/>
        <path d="M82.8371 68.3676L68.4453 69.268C67.194 69.3463 66.2431 70.4241 66.3214 71.6753L66.741 78.3822C66.8193 79.6335 67.8971 80.5844 69.1484 80.5061L83.5402 79.6057C84.7915 79.5274 85.7423 78.4496 85.6641 77.1983L85.2445 70.4914C85.1662 69.2402 84.0884 68.2893 82.8371 68.3676Z" fill="white"/>
        <path d="M82.8342 68.0083L68.4423 68.9087C67.1911 68.987 66.2402 70.0648 66.3185 71.316L66.7381 78.0229C66.8164 79.2741 67.8942 80.225 69.1454 80.1467L83.5373 79.2463C84.7885 79.168 85.7394 78.0902 85.6611 76.839L85.2415 70.1321C85.1632 68.8809 84.0854 67.93 82.8342 68.0083Z" stroke="#1E1C1C"/>
        <path d="M154.573 53.9487L141.549 54.7636C140.419 54.8343 139.56 55.8076 139.631 56.9376L140.011 63.0157C140.082 64.1457 141.055 65.0044 142.185 64.9337L155.21 64.1188C156.34 64.0481 157.198 63.0748 157.128 61.9448L156.747 55.8667C156.677 54.7367 155.703 53.878 154.573 53.9487Z" fill="#FF5631"/>
        <path d="M151.457 52.4889L139.949 53.2089C138.951 53.2713 138.193 54.1307 138.256 55.1284L138.592 60.4979C138.654 61.4956 139.513 62.2537 140.511 62.1913L152.019 61.4714C153.016 61.4089 153.774 60.5496 153.712 59.5519L153.376 54.1824C153.314 53.1847 152.454 52.4265 151.457 52.4889Z" fill="white"/>
        <path d="M151.448 52.1895L139.94 52.9094C138.943 52.9719 138.184 53.8313 138.247 54.829L138.583 60.1984C138.645 61.1961 139.505 61.9543 140.502 61.8919L152.01 61.1719C153.007 61.1095 153.766 60.2501 153.703 59.2524L153.367 53.883C153.305 52.8853 152.445 52.1271 151.448 52.1895Z" stroke="#1E1C1C"/>
        <path d="M196.7 76.82L173.22 75C172.676 74.9563 172.129 75.0206 171.61 75.1892C171.091 75.3578 170.61 75.6274 170.196 75.9824C169.781 76.3374 169.441 76.7709 169.194 77.2578C168.948 77.7448 168.801 78.2757 168.76 78.82L165.49 120.97C165.448 121.514 165.513 122.06 165.682 122.579C165.851 123.097 166.121 123.578 166.476 123.992C166.83 124.406 167.263 124.746 167.75 124.993C168.236 125.24 168.766 125.388 169.31 125.43L200.31 127.83C201.408 127.913 202.493 127.557 203.329 126.841C204.165 126.125 204.683 125.107 204.77 124.01L207.58 92.08C204.67 88.46 199.46 80.22 196.7 76.82Z" fill="white" stroke="#1E1C1C"/>
        <path d="M207.22 92.08L199.74 91.37C198.643 91.2831 197.625 90.765 196.909 89.929C196.193 89.0931 195.837 88.0075 195.92 86.9099L196.62 77.09" stroke="#1E1C1C"/>
        <path d="M178.07 100.74L177.57 107.26L178.77 107.35C178.989 107.343 179.203 107.418 179.37 107.56C179.424 107.621 179.466 107.692 179.492 107.769C179.518 107.847 179.527 107.929 179.52 108.01C179.515 108.09 179.493 108.169 179.455 108.239C179.417 108.31 179.364 108.372 179.3 108.42C179.114 108.534 178.894 108.576 178.68 108.54L175.08 108.26C174.861 108.263 174.649 108.188 174.48 108.05C174.425 107.989 174.383 107.918 174.357 107.841C174.332 107.763 174.322 107.681 174.33 107.6C174.336 107.52 174.359 107.443 174.397 107.372C174.435 107.301 174.487 107.239 174.55 107.19C174.739 107.077 174.962 107.034 175.18 107.07L176.38 107.16L176.76 102.16L175.68 102.36C175.55 102.37 175.419 102.37 175.29 102.36C175.215 102.351 175.142 102.327 175.077 102.289C175.012 102.251 174.955 102.2 174.91 102.14C174.81 102.012 174.764 101.851 174.78 101.69C174.807 101.569 174.878 101.462 174.98 101.39C175.134 101.273 175.317 101.201 175.51 101.18L178.07 100.74Z" fill="#1E1C1C"/>
        <path d="M184.34 107.78L186.95 107.98C187.071 107.888 187.219 107.838 187.37 107.84C187.452 107.845 187.532 107.867 187.604 107.905C187.676 107.943 187.74 107.996 187.79 108.06C187.893 108.249 187.932 108.467 187.9 108.68V109.25L182.48 108.83L182.58 107.57C184.019 106.609 185.404 105.571 186.73 104.46C186.939 104.276 187.078 104.025 187.12 103.75C187.13 103.601 187.106 103.452 187.051 103.314C186.996 103.175 186.91 103.051 186.8 102.95C186.531 102.691 186.174 102.541 185.8 102.53C185.414 102.492 185.027 102.595 184.71 102.82C184.532 102.97 184.394 103.162 184.31 103.38C184.263 103.513 184.176 103.628 184.06 103.71C183.954 103.778 183.826 103.806 183.7 103.79C183.621 103.785 183.544 103.764 183.473 103.728C183.403 103.692 183.34 103.642 183.29 103.58C183.239 103.524 183.2 103.457 183.175 103.385C183.151 103.313 183.143 103.236 183.15 103.16C183.205 102.851 183.34 102.561 183.54 102.32C183.795 101.975 184.142 101.708 184.54 101.55C184.975 101.377 185.444 101.309 185.91 101.35C186.25 101.362 186.583 101.44 186.892 101.581C187.201 101.721 187.479 101.922 187.71 102.17C187.924 102.397 188.087 102.667 188.188 102.962C188.29 103.257 188.328 103.569 188.3 103.88C188.276 104.197 188.18 104.505 188.02 104.78C187.719 105.197 187.354 105.564 186.94 105.87C186.46 106.22 185.61 106.86 184.34 107.78Z" fill="#1E1C1C"/>
        <path d="M195.86 105.87C196.166 106.11 196.412 106.418 196.58 106.77C196.733 107.108 196.795 107.48 196.76 107.85C196.728 108.277 196.567 108.684 196.299 109.017C196.032 109.351 195.669 109.596 195.26 109.72C194.695 109.881 194.104 109.932 193.52 109.87C192.813 109.851 192.124 109.647 191.52 109.28C191.414 109.215 191.328 109.123 191.268 109.015C191.209 108.906 191.178 108.784 191.18 108.66C191.182 108.581 191.202 108.504 191.236 108.434C191.271 108.363 191.32 108.3 191.38 108.25C191.438 108.197 191.505 108.157 191.579 108.131C191.653 108.105 191.732 108.095 191.81 108.1C191.933 108.116 192.051 108.164 192.15 108.24C192.289 108.357 192.448 108.449 192.62 108.51C192.928 108.604 193.248 108.657 193.57 108.67C194.081 108.741 194.602 108.69 195.09 108.52C195.237 108.459 195.365 108.359 195.458 108.23C195.552 108.101 195.608 107.949 195.62 107.79C195.632 107.529 195.555 107.271 195.4 107.06C195.226 106.812 194.992 106.612 194.72 106.48C194.44 106.372 194.148 106.301 193.85 106.27C193.765 106.264 193.683 106.242 193.608 106.204C193.532 106.166 193.465 106.114 193.41 106.05C193.359 105.993 193.322 105.927 193.299 105.854C193.277 105.782 193.27 105.705 193.28 105.63C193.283 105.549 193.303 105.47 193.339 105.397C193.376 105.325 193.427 105.261 193.49 105.21C193.551 105.156 193.622 105.116 193.7 105.092C193.777 105.068 193.859 105.06 193.94 105.07H194.57C194.736 105.067 194.899 105.029 195.05 104.96C195.207 104.888 195.345 104.778 195.45 104.64C195.553 104.508 195.616 104.348 195.63 104.18C195.639 104.054 195.619 103.928 195.57 103.811C195.521 103.695 195.446 103.592 195.35 103.51C195.069 103.276 194.715 103.148 194.35 103.15C194.108 103.116 193.861 103.134 193.627 103.203C193.392 103.272 193.175 103.39 192.99 103.55C192.927 103.619 192.852 103.676 192.77 103.72C192.677 103.74 192.582 103.74 192.49 103.72C192.41 103.717 192.332 103.696 192.262 103.66C192.191 103.624 192.129 103.573 192.08 103.51C191.977 103.387 191.927 103.229 191.94 103.07C191.94 102.8 192.16 102.56 192.54 102.33C193.148 101.991 193.848 101.851 194.54 101.93C195.191 101.955 195.808 102.23 196.26 102.7C196.457 102.906 196.609 103.151 196.704 103.42C196.798 103.689 196.835 103.976 196.81 104.26C196.793 104.558 196.7 104.848 196.54 105.1C196.377 105.407 196.144 105.671 195.86 105.87Z" fill="#1E1C1C"/>
        <path d="M120.122 82.3144L107.098 83.1293C105.968 83.2 105.109 84.1733 105.18 85.3033L105.56 91.3815C105.631 92.5114 106.604 93.3701 107.734 93.2994L120.759 92.4846C121.889 92.4139 122.747 91.4405 122.677 90.3106L122.296 84.2324C122.226 83.1025 121.252 82.2438 120.122 82.3144Z" fill="#60E093"/>
        <path d="M117.004 80.8548L105.497 81.5747C104.499 81.6371 103.741 82.4965 103.803 83.4942L104.139 88.8637C104.202 89.8614 105.061 90.6196 106.059 90.5572L117.566 89.8372C118.564 89.7748 119.322 88.9154 119.26 87.9177L118.924 82.5482C118.861 81.5505 118.002 80.7923 117.004 80.8548Z" fill="white"/>
        <path d="M116.996 80.5553L105.488 81.2753C104.49 81.3377 103.732 82.1971 103.795 83.1948L104.131 88.5643C104.193 89.562 105.052 90.3201 106.05 90.2577L117.558 89.5378C118.555 89.4753 119.313 88.616 119.251 87.6183L118.915 82.2488C118.853 81.2511 117.993 80.4929 116.996 80.5553Z" stroke="#1E1C1C"/>
    </g>
    <defs>
        <clipPath id="clip0_174_7346">
            <rect width="208.07" height="131.59" fill="white"/>
        </clipPath>
    </defs>
</svg>
