<?xml version="1.0" encoding="utf-8"?>
<!-- Generator: Adobe Illustrator 21.1.0, SVG Export Plug-In . SVG Version: 6.00 Build 0)  -->
<svg role="img" version="1.1" id="Calque_1" xmlns="http://www.w3.org/2000/svg" xmlns:xlink="http://www.w3.org/1999/xlink" x="0px" y="0px"
	 viewBox="0 0 640 480" style="enable-background:new 0 0 640 480;" xml:space="preserve">
<g>
	<path style="fill:#D2E3FC;" d="M166.4,322.6c0,0,24,5,22.8,9.4c-1.2,4.4-26.3-7.5-26.3-7.5s-18.5,16.6-21.1,25c0,0,27-3.8,24.8,0.1
		c-2.3,4-30.2,9.3-30.2,9.3s-12.7,19.6-1.6,28.2c11.2,8.6,19.7,5.7,21.8,2.9c2.1-2.8,10.2-23.1,12.6-21.5c2.4,1.6,0.9,17-4.6,23.6
		c0,0,24.2,0.2,27.7-11.2s-1.9-17.7,0.4-24.7c2.3-7,6.2-11.2,6.6-7.1c0.4,4.2-5.6,15.2-3.2,22.6c2.4,7.4,3.4,13.1,9.8,3.7
		c6.3-9.3,12.6-28.2,6.3-35.1c-0.3-0.3-0.5-0.6-0.8-0.9c0.6,0.5,0.8,0.9,0.8,0.9c1.9-1.4,8.3-2.1,13.1-2.4c0.8,0,1.9,0,3.5-0.2h0
		c0.7,0,1.3,0,1.6-0.1c10.5,0.1,25.3,8.5,25.3,8.5l1.5-1.9c-13.7-11.3-30.1-8.2-30.1-8.2c-12.5,1.3-21.3-2.7-21.3-2.7
		s-2.9-24.2-21.6-21.2C184.2,312.2,172,315.7,166.4,322.6z"/>
	<path style="fill:#DFEBFD;" d="M482.6,118.8c-6.4-23.6-46.2-16.2-46.2-16.2s-27,41.3-34.9,42.3c-7.9,1,16.2-39.8,16.2-39.8
		c-15.2-1.5-54.1,17.2-54.1,17.2s2.5,48.2-5.4,47.2c-7.9-1,0-42.8,0-42.8c-14.7,4.4-28.5,21.6-28.5,21.6
		c-17.2,28,19.7,48.7,19.7,48.7s0.5,16.7-9.8,35.9c0,0,0,0,0,0s-2.3,3.5-4.7,9.6h4c0.3-1.1,0.7-2.1,1.1-3.1c0,0,0,0,0,0c0,0,0,0,0,0
		c0.3-0.6,0.7-1.5,1.2-2.6c0,0,0,0,0,0c0,0,0,0,0,0c1.2-2.4,2.1-4.2,2.6-5.5c0,0,0,0,0,0c3.7-7.5,9-17.4,12.5-19.4
		c0,0-0.4-0.6-0.9-1.8c0.3,0.6,0.6,1.2,0.9,1.8c6.9,14.7,41.3,17.2,60.5,13.3c19.2-3.9,10.8-9.3,0.5-18.1
		c-10.3-8.8-31.9-6.5-38.3-9.9c-6.4-3.4,2.9-6.9,15.7-5.9c12.8,1,19.2,13.8,39.8,15.7c20.6,2,36.4-36.9,36.4-36.9
		c-14.3,4.4-39.8-3.4-40.8-8.4c-1-4.9,36.9-4.4,42.8-5.9C478.7,154.2,489,142.4,482.6,118.8z"/>
	<path style="fill:#D2E3FC;" d="M100.9,120.6c8.8-14.1,33.2-1.5,33.2-1.5s9.5,32.2,14.4,34.4c4.9,2.2-2.7-29.1-2.7-29.1
		c10.2,2,31.8,21.8,31.8,21.8s-11.1,30.8-5.8,31.8s8.4-27.8,8.4-27.8c8.7,5.8,14.3,19.7,14.3,19.7c5.7,21.6-22.4,27.8-22.4,27.8
		s-3.6,10.8-0.7,25.3l0,0c0,0,0.8,2.8,1.2,7.1l-2.6-0.8c0-0.8,0-1.5-0.1-2.2c0,0,0,0,0,0c0,0,0,0,0,0c-0.1-0.5-0.1-1.1-0.2-1.9
		c0,0,0,0,0,0c0,0,0,0,0,0c-0.3-1.8-0.5-3.1-0.6-4.1c0,0,0,0,0,0c-0.9-5.6-2.4-13.1-4.3-15.1c0,0,0.4-0.3,0.9-1
		c-0.3,0.3-0.6,0.7-0.9,1c-7.4,8.2-30.2,3.1-41.9-3.3c-11.7-6.3-5.2-8.2,3.2-11.9c8.4-3.7,22.1,2.1,26.9,1.1c4.8-1-0.6-5.1-9.1-6.9
		c-8.5-1.9-15.2,5.2-29,2.4c-13.8-2.8-16.4-31.1-16.4-31.1c8.4,5.7,26.6,5.6,28.2,2.6c1.6-3-23.1-10.1-26.7-12.3
		C96.5,144.3,92.1,134.6,100.9,120.6z"/>
	<path style="fill:#DFEBFD;" d="M307.6,118.9c-6.2-10.3-23.9-1.5-23.9-1.5s-7.2,23.1-10.8,24.6c-3.6,1.5,2.3-20.9,2.3-20.9
		c-7.4,1.3-23.2,15.3-23.2,15.3s7.6,22.4,3.8,22.9c-3.8,0.6-5.7-20.1-5.7-20.1c-6.4,4.1-10.5,14-10.5,14
		c-4.4,15.5,15.8,20.3,15.8,20.3s2.5,7.8,0.2,18.2l0,0c0,0-0.6,2-0.9,5.1l1.9-0.5c0-0.6,0-1.1,0.1-1.6c0,0,0,0,0,0c0,0,0,0,0,0
		c0-0.3,0.1-0.8,0.2-1.4c0,0,0,0,0,0c0,0,0,0,0,0c0.3-1.3,0.4-2.2,0.5-2.9c0,0,0,0,0,0c0.7-4,1.9-9.4,3.3-10.8c0,0-0.3-0.2-0.7-0.8
		c0.2,0.2,0.4,0.5,0.7,0.8c5.2,6,21.7,2.6,30.2-1.8c8.5-4.4,3.8-5.8-2.2-8.6c-6-2.8-15.9,1.2-19.4,0.5c-3.5-0.8,0.5-3.6,6.6-4.9
		c6.2-1.2,10.9,3.9,20.9,2.1c10-1.8,12.2-22.2,12.2-22.2c-6.1,4-19.2,3.7-20.3,1.5c-1.1-2.2,16.8-7,19.4-8.5
		C310.5,136.1,313.8,129.1,307.6,118.9z"/>
	<path style="fill:#95C38B;" d="M7.6,390c-0.2,0.1-0.4,0.1-0.8,0.2C7.1,390.2,7.4,390.1,7.6,390z"/>
	<g>
		<g>
			<path style="fill:#EFC45E;" d="M258.8,247.8l-12.1,143.7c0,0-1.3,8.7,5.2,8.7c10.7,0,53,0,53,0s-8-1.8-7.9-5.9
				c0.1-4.8,14.1-147.9,14.1-147.9L258.8,247.8z"/>
			<path style="fill:#EFC45E;" d="M308.4,397.7c-2.1,0-42.6,0.1-53,0c-4.5-0.1-5.3-4-5.4-6.6c0-1.2,0.1-2.1,0.1-2.1l0.3-3.7l0.8-9.5
				l0.7-8.4l0.9-10.8l0.8-9.1l8.6-102.1l52.4-1.4c0,0-5.9,59.9-10.1,103.5c-0.5,4.9-0.9,9.5-1.3,13.9c-0.1,1.4-0.3,2.7-0.4,4.1
				c-0.4,4.1-0.7,7.9-1,11.3c-0.2,1.8-0.3,3.4-0.4,4.9c-0.5,5.9-0.8,9.6-0.8,10.3c0,0.4,0,0.8,0.1,1.2
				C301.5,397.5,307.6,397.7,308.4,397.7z"/>
			<polygon style="fill:#EFC45E;" points="131.6,169.6 161,287.9 165.1,304.1 178.8,359.2 433.6,359.2 383,169.6 			"/>
			<polygon style="fill:#EFC45E;" points="131.6,169.6 127.5,170.9 173.4,363.3 178.8,359.2 			"/>
			<polygon style="fill:#EFC45E;" points="173.4,363.3 426.6,363.3 433.6,359.2 178.8,359.2 			"/>
			
				<rect x="262.3" y="397.7" transform="matrix(-1 -1.224647e-16 1.224647e-16 -1 579.4186 798.05)" style="fill:#F1A34F;" width="54.8" height="2.6"/>
			<polygon style="fill:#F1A34F;" points="421.2,324.2 379.9,172.1 132.2,172.1 131.6,169.6 383,169.6 424.2,323.9 			"/>
			<polygon style="fill:#EFC45E;" points="303.2,363.3 302.9,365.3 251.3,375.7 252,367.3 252.4,363.3 			"/>
			<path style="opacity:0.4;fill:#D86713;" d="M308.4,397.7c-2.1,0-42.6,0.1-53,0c-4.5-0.1-5.3-4-5.4-6.6l51.3-9.7
				c-0.5,5.9-0.8,9.6-0.8,10.3c0,0.4,0,0.8,0.1,1.2C301.5,397.5,307.6,397.7,308.4,397.7z"/>
			<polygon style="fill:#EFC45E;" points="290.7,320.8 178.8,359.2 165.1,304.1 			"/>
			<polygon style="fill:#699DEE;" points="131.6,169.6 383,169.6 423.8,321.9 169.5,321.9 			"/>
		</g>
		<path style="fill:#D86713;" d="M312.9,341.2c-0.7-3.7-4.3-6.8-8.1-6.8c-3.7,0-6.2,3-5.5,6.8c0.7,3.7,4.3,6.8,8.1,6.8
			C311.2,348,313.7,344.9,312.9,341.2z"/>
		<polygon style="fill:#E4EDF9;" points="412,315.3 176.6,315.3 149.9,209.1 147.8,201 146.1,194 142,177.7 374,177.7 378.5,194 
			380.5,201 382.7,209.1 		"/>
		<polygon style="fill:#AFCDFB;" points="378.5,194 146.1,194 142,177.7 374,177.7 		"/>
		<g>
			<path style="fill:#E9F3FE;" d="M151.6,185.1c-0.3-1.1,0.4-2,1.5-2c1.1,0,2.3,0.9,2.5,2c0.3,1.1-0.4,2-1.5,2
				C153,187.1,151.9,186.2,151.6,185.1z"/>
			<path style="fill:#E9F3FE;" d="M158.4,185.1c-0.3-1.1,0.4-2,1.5-2c1.1,0,2.3,0.9,2.5,2c0.3,1.1-0.4,2-1.5,2
				C159.8,187.1,158.7,186.2,158.4,185.1z"/>
			<path style="fill:#E9F3FE;" d="M165.7,185.1c-0.3-1.1,0.4-2,1.5-2c1.1,0,2.3,0.9,2.5,2c0.3,1.1-0.4,2-1.5,2
				C167.1,187.1,165.9,186.2,165.7,185.1z"/>
		</g>
		<polygon style="fill:#CAE0FF;" points="360.1,305.9 185.7,305.9 159.2,201.8 331.1,201.8 		"/>
		<polygon style="fill:#D2E3FC;" points="382.7,226 343.1,226 335.9,201.8 375.9,201.8 		"/>
		<polygon style="fill:#1C468A;" points="276,211.9 253.4,211.9 252.5,208.4 275.1,208.4 		"/>
		<polygon style="fill:#78ACEA;" points="316.1,211.9 279.1,211.9 278.2,208.4 315.2,208.4 		"/>
		<polygon style="fill:#78ACEA;" points="279.8,221.3 239.7,221.3 238.8,217.8 278.9,217.8 		"/>
		<polygon style="fill:#F1A34F;" points="304.2,221.3 283.4,221.3 282.5,217.8 303.3,217.8 		"/>
		<polygon style="fill:#699DEE;" points="282.9,237.5 260.3,237.5 259.3,234 281.9,234 		"/>
		<polygon style="fill:#78ACEA;" points="323,237.5 286,237.5 285,234 322,234 		"/>
		<polygon style="fill:#FFFFFF;" points="286.7,246.9 246.6,246.9 245.6,243.4 285.7,243.4 		"/>
		<polygon style="fill:#FFFFFF;" points="311.1,246.9 290.3,246.9 289.3,243.4 310.1,243.4 		"/>
		<polygon style="fill:#1C468A;" points="262.4,261.4 185.9,261.4 184.9,257.9 261.5,257.9 		"/>
		<polygon style="fill:#699DEE;" points="289.9,261.4 267.3,261.4 266.3,257.9 289,257.9 		"/>
		<polygon style="fill:#78ACEA;" points="330,261.4 293,261.4 292.1,257.9 329.1,257.9 		"/>
		<polygon style="fill:#FFFFFF;" points="211,270.8 188.4,270.8 187.4,267.3 210.1,267.3 		"/>
		<polygon style="fill:#F1A34F;" points="293.7,270.8 253.6,270.8 252.7,267.3 292.8,267.3 		"/>
		<polygon style="fill:#78ACEA;" points="251.1,270.8 214.1,270.8 213.2,267.3 250.2,267.3 		"/>
		<polygon style="fill:#78ACEA;" points="318.1,270.8 297.3,270.8 296.4,267.3 317.2,267.3 		"/>
		<polygon style="fill:#1C468A;" points="271.1,287.4 194.6,287.4 193.6,283.9 270.1,283.9 		"/>
		<polygon style="fill:#699DEE;" points="298.6,287.4 276,287.4 275,283.9 297.6,283.9 		"/>
		<polygon style="fill:#FFFFFF;" points="219.7,296.7 197.1,296.7 196.1,293.3 218.7,293.3 		"/>
		<polygon style="fill:#F1A34F;" points="302.4,296.7 262.3,296.7 261.3,293.3 301.4,293.3 		"/>
		<polygon style="fill:#78ACEA;" points="259.8,296.7 222.8,296.7 221.8,293.3 258.8,293.3 		"/>
		<polygon style="fill:#78ACEA;" points="326.8,296.7 306,296.7 305.1,293.3 325.8,293.3 		"/>
		<g>
			<polygon style="fill:#78ACEA;" points="363,233.5 345.6,233.6 345.2,232 362.6,231.9 			"/>
			<polygon style="fill:#78ACEA;" points="372.2,233.5 365.6,233.5 365.2,231.9 371.8,231.9 			"/>
			<polygon style="fill:#78ACEA;" points="385.4,233.4 373.9,233.5 373.5,231.9 385,231.9 			"/>
			<polygon style="fill:#78ACEA;" points="356.1,237.5 346.6,237.5 346.2,236 355.7,235.9 			"/>
			<polygon style="fill:#78ACEA;" points="370,237.5 357.7,237.5 357.3,235.9 369.6,235.9 			"/>
			<polygon style="fill:#78ACEA;" points="386.4,237.4 372.3,237.5 371.9,235.9 386,235.8 			"/>
		</g>
		<g>
			<polygon style="fill:#78ACEA;" points="365.1,242 347.7,242.1 347.3,240.5 364.7,240.5 			"/>
			<polygon style="fill:#78ACEA;" points="374.2,242 367.7,242 367.3,240.4 373.9,240.4 			"/>
			<polygon style="fill:#78ACEA;" points="387.5,242 375.9,242 375.6,240.4 387.1,240.4 			"/>
			<polygon style="fill:#78ACEA;" points="358.2,246.1 348.7,246.1 348.3,244.5 357.8,244.5 			"/>
			<polygon style="fill:#78ACEA;" points="372.1,246 359.8,246 359.4,244.5 371.7,244.4 			"/>
			<polygon style="fill:#78ACEA;" points="388.5,246 374.4,246 374,244.4 388.1,244.4 			"/>
		</g>
		<g>
			<polygon style="fill:#FFFFFF;" points="351.4,205.1 341,205.2 340.7,204.2 351.2,204.2 			"/>
			<polygon style="fill:#FFFFFF;" points="357,205.1 353,205.1 352.8,204.2 356.7,204.2 			"/>
			<polygon style="fill:#FFFFFF;" points="364.9,205.1 358,205.1 357.7,204.2 364.7,204.1 			"/>
			<polygon style="fill:#FFFFFF;" points="347.3,207.6 341.5,207.6 341.3,206.6 347.1,206.6 			"/>
			<polygon style="fill:#FFFFFF;" points="355.7,207.5 348.2,207.6 348,206.6 355.4,206.6 			"/>
			<polygon style="fill:#FFFFFF;" points="365.5,207.5 357,207.5 356.8,206.6 365.3,206.5 			"/>
		</g>
		<g>
			<polygon style="fill:#FFFFFF;" points="352.7,210.3 342.2,210.3 342,209.4 352.5,209.3 			"/>
			<polygon style="fill:#FFFFFF;" points="358.2,210.3 354.3,210.3 354,209.3 358,209.3 			"/>
			<polygon style="fill:#FFFFFF;" points="366.2,210.2 359.2,210.3 359,209.3 366,209.3 			"/>
			<polygon style="fill:#FFFFFF;" points="348.5,212.7 342.8,212.7 342.6,211.8 348.3,211.7 			"/>
			<polygon style="fill:#FFFFFF;" points="356.9,212.7 349.5,212.7 349.3,211.7 356.7,211.7 			"/>
			<polygon style="fill:#FFFFFF;" points="366.8,212.6 358.3,212.7 358,211.7 366.5,211.7 			"/>
		</g>
		<g>
			<polygon style="fill:#78ACEA;" points="368.6,256.6 351.2,256.7 350.8,255.1 368.2,255 			"/>
			<polygon style="fill:#78ACEA;" points="377.8,256.6 371.3,256.6 370.9,255 377.4,255 			"/>
			<polygon style="fill:#78ACEA;" points="391.1,256.5 379.5,256.6 379.1,255 390.7,255 			"/>
			<polygon style="fill:#78ACEA;" points="361.7,260.6 352.2,260.7 351.8,259.1 361.4,259.1 			"/>
			<polygon style="fill:#78ACEA;" points="375.6,260.6 363.3,260.6 362.9,259.1 375.3,259 			"/>
			<polygon style="fill:#78ACEA;" points="392,260.5 377.9,260.6 377.5,259 391.6,259 			"/>
		</g>
		<g>
			<polygon style="fill:#78ACEA;" points="372.1,270.9 354.7,271 354.3,269.4 371.7,269.3 			"/>
			<polygon style="fill:#78ACEA;" points="381.3,270.9 374.7,270.9 374.4,269.3 380.9,269.3 			"/>
			<polygon style="fill:#78ACEA;" points="394.5,270.8 383,270.9 382.6,269.3 394.2,269.3 			"/>
			<polygon style="fill:#78ACEA;" points="365.2,274.9 355.7,275 355.3,273.4 364.8,273.3 			"/>
			<polygon style="fill:#78ACEA;" points="379.1,274.9 366.8,274.9 366.4,273.3 378.7,273.3 			"/>
			<polygon style="fill:#78ACEA;" points="395.5,274.8 381.4,274.9 381,273.3 395.1,273.3 			"/>
		</g>
		<g>
			<polygon style="fill:#78ACEA;" points="375.2,283.8 357.9,283.8 357.5,282.3 374.9,282.2 			"/>
			<polygon style="fill:#78ACEA;" points="384.4,283.8 377.9,283.8 377.5,282.2 384,282.2 			"/>
			<polygon style="fill:#78ACEA;" points="397.7,283.7 386.1,283.8 385.7,282.2 397.3,282.1 			"/>
			<polygon style="fill:#78ACEA;" points="368.4,287.8 358.8,287.8 358.4,286.3 368,286.2 			"/>
			<polygon style="fill:#78ACEA;" points="382.3,287.8 370,287.8 369.6,286.2 381.9,286.2 			"/>
			<polygon style="fill:#78ACEA;" points="398.7,287.7 384.5,287.8 384.2,286.2 398.3,286.1 			"/>
		</g>
		<g>
			<g>
				<g>
					<path style="fill:#A8D29F;" d="M383.4,302.9c-2.8,0-5.7-2.3-6.5-5.1c-0.8-2.8,0.8-5.1,3.6-5.1c2.8,0,5.7,2.3,6.5,5.1
						C387.8,300.7,386.2,302.9,383.4,302.9z M380.8,293.7c-2.3,0-3.6,1.9-2.9,4.1c0.7,2.3,3.1,4.1,5.4,4.1c2.3,0,3.6-1.9,2.9-4.1
						C385.4,295.6,383,293.7,380.8,293.7z"/>
				</g>
				<g>
					<path style="fill:#A8D29F;" d="M382.6,300.4c-0.2,0-0.4-0.1-0.6-0.2l-2.8-2.3c-0.4-0.3-0.5-0.8-0.3-1.1c0.2-0.3,0.7-0.3,1.1,0
						l2,1.6l1-2.4c0.1-0.3,0.6-0.4,1-0.2c0.4,0.3,0.6,0.7,0.5,1.1l-1.4,3.1c-0.1,0.2-0.3,0.3-0.5,0.3
						C382.7,300.4,382.7,300.4,382.6,300.4z"/>
				</g>
			</g>
			<g>
				<g>
					<path style="fill:#F1A34F;" d="M397.4,302.9c-2.8,0-5.7-2.3-6.5-5.1c-0.8-2.8,0.8-5.1,3.6-5.1c2.8,0,5.7,2.3,6.5,5.1
						C401.8,300.7,400.2,302.9,397.4,302.9z M394.7,293.7c-2.3,0-3.6,1.9-2.9,4.1c0.7,2.3,3.1,4.1,5.4,4.1c2.3,0,3.6-1.9,2.9-4.1
						C399.4,295.6,397,293.7,394.7,293.7z"/>
				</g>
				<g>
					<path style="fill:#F1A34F;" d="M396.2,298.7L396.2,298.7c-0.4,0-0.8-0.3-0.9-0.7l-0.6-2.2c-0.1-0.4,0.1-0.7,0.5-0.7l0,0
						c0.4,0,0.8,0.3,0.9,0.7l0.6,2.2C396.8,298.4,396.6,298.7,396.2,298.7z"/>
					<path style="fill:#F1A34F;" d="M396.8,300.4h-0.2c-0.4,0-0.7-0.3-0.8-0.6l0,0c-0.1-0.4,0.1-0.6,0.5-0.6h0.2
						c0.4,0,0.7,0.3,0.8,0.6l0,0C397.3,300.1,397.1,300.4,396.8,300.4z"/>
				</g>
			</g>
		</g>
		<g>
			<g>
				<g>
					<path style="fill:#A8D29F;" d="M367.9,223.7c-1.5,0-3.1-1.2-3.6-2.8c-0.4-1.5,0.4-2.8,2-2.8c1.5,0,3.1,1.2,3.6,2.8
						C370.3,222.4,369.4,223.7,367.9,223.7z M366.4,218.6c-1.3,0-2,1-1.6,2.3c0.4,1.3,1.7,2.3,2.9,2.3c1.3,0,2-1,1.6-2.3
						C368.9,219.6,367.6,218.6,366.4,218.6z"/>
				</g>
				<g>
					<path style="fill:#A8D29F;" d="M367.4,222.3c-0.1,0-0.2-0.1-0.3-0.1l-1.6-1.2c-0.2-0.2-0.3-0.4-0.2-0.6c0.1-0.2,0.4-0.2,0.6,0
						l1.1,0.9l0.6-1.3c0.1-0.2,0.3-0.2,0.6-0.1c0.2,0.1,0.3,0.4,0.3,0.6l-0.7,1.7C367.7,222.2,367.6,222.3,367.4,222.3
						C367.4,222.3,367.4,222.3,367.4,222.3z"/>
				</g>
			</g>
			<g>
				<g>
					<path style="fill:#A8D29F;" d="M359.9,223.7c-1.5,0-3.1-1.2-3.6-2.8c-0.4-1.5,0.4-2.8,2-2.8c1.5,0,3.1,1.2,3.6,2.8
						C362.3,222.4,361.4,223.7,359.9,223.7z M358.4,218.6c-1.3,0-2,1-1.6,2.3c0.4,1.3,1.7,2.3,2.9,2.3c1.3,0,2-1,1.6-2.3
						C361,219.6,359.7,218.6,358.4,218.6z"/>
				</g>
				<g>
					<path style="fill:#A8D29F;" d="M359.4,222.3c-0.1,0-0.2-0.1-0.3-0.1l-1.6-1.2c-0.2-0.2-0.3-0.4-0.2-0.6c0.1-0.2,0.4-0.2,0.6,0
						l1.1,0.9l0.6-1.3c0.1-0.2,0.3-0.2,0.6-0.1c0.2,0.1,0.3,0.4,0.3,0.6l-0.7,1.7C359.7,222.2,359.6,222.3,359.4,222.3
						C359.5,222.3,359.5,222.3,359.4,222.3z"/>
				</g>
			</g>
			<g>
				<g>
					<path style="fill:#A8D29F;" d="M351.7,223.7c-1.5,0-3.1-1.2-3.6-2.8c-0.4-1.5,0.4-2.8,2-2.8s3.1,1.2,3.6,2.8
						C354.1,222.4,353.2,223.7,351.7,223.7z M350.2,218.6c-1.3,0-2,1-1.6,2.3c0.4,1.3,1.7,2.3,2.9,2.3c1.3,0,2-1,1.6-2.3
						C352.8,219.6,351.4,218.6,350.2,218.6z"/>
				</g>
				<g>
					<path style="fill:#A8D29F;" d="M351.2,222.3c-0.1,0-0.2-0.1-0.3-0.1l-1.6-1.2c-0.2-0.2-0.3-0.4-0.2-0.6c0.1-0.2,0.4-0.2,0.6,0
						l1.1,0.9l0.6-1.3c0.1-0.2,0.3-0.2,0.6-0.1c0.2,0.1,0.3,0.4,0.3,0.6l-0.7,1.7C351.5,222.2,351.4,222.3,351.2,222.3
						C351.2,222.3,351.2,222.3,351.2,222.3z"/>
				</g>
			</g>
			<g>
				<g>
					<path style="fill:#F1A34F;" d="M375.5,223.7c-1.5,0-3.1-1.2-3.6-2.8c-0.4-1.5,0.4-2.8,2-2.8c1.5,0,3.1,1.2,3.6,2.8
						C377.9,222.4,377.1,223.7,375.5,223.7z M374,218.6c-1.3,0-2,1-1.6,2.3c0.4,1.3,1.7,2.3,2.9,2.3c1.3,0,2-1,1.6-2.3
						C376.6,219.6,375.3,218.6,374,218.6z"/>
				</g>
				<g>
					<path style="fill:#F1A34F;" d="M374.8,221.3L374.8,221.3c-0.2,0-0.4-0.2-0.5-0.4l-0.3-1.2c-0.1-0.2,0.1-0.4,0.3-0.4l0,0
						c0.2,0,0.4,0.2,0.5,0.4l0.3,1.2C375.2,221.2,375.1,221.3,374.8,221.3z"/>
					<path style="fill:#F1A34F;" d="M375.2,222.3L375.2,222.3c-0.3,0-0.5-0.2-0.5-0.4l0,0c-0.1-0.2,0.1-0.4,0.2-0.4h0.1
						c0.2,0,0.4,0.2,0.5,0.4l0,0C375.5,222.1,375.3,222.3,375.2,222.3z"/>
				</g>
			</g>
		</g>
	</g>
	<g>
		<g>
			<path style="fill:#E49963;" d="M107.8,300.7c0,0,4.2,1.1,6.9,0.3c2.7-0.8,7.2,0.5,8,1.5c0.7,1,0.5,1.4-0.9,1.7
				c-1.3,0.3-6,2.3-9.1,1.2c-3.1-1.2-7.1-1.2-7.1-1.2L107.8,300.7z"/>
			<path style="fill:#4A75CB;" d="M71.6,264.3c0,0,4.7,33.5,12.5,36.4c3.8,1.5,20.8,4.8,25.9,5.2c0,0,1.2-1,0.9-5.1
				c0,0-17.8-6.5-20.3-10.1c-3.8-5.3,2.3-21.6-2.4-26.6C83.5,259.2,75.5,257,71.6,264.3z"/>
		</g>
		<path style="fill:#2B478B;" d="M75.5,396.9L75.5,396.9c1.8,0,3.3-1.5,3.3-3.3v-50.5c0-1.8-1.5-3.3-3.3-3.3h0
			c-1.8,0-3.3,1.5-3.3,3.3v50.5C72.2,395.4,73.7,396.9,75.5,396.9z"/>
		<path style="fill:#2B478B;" d="M55.4,400.6c2.1-4.4,10.3-7.6,20.1-7.6s18,3.2,20.1,7.6H55.4z"/>
		<path style="fill:#2B478B;" d="M61.3,385.9h28.3c0.6,0,1.1-0.5,1.1-1.1l0,0c0-0.6-0.5-1.1-1.1-1.1H61.3c-0.6,0-1.1,0.5-1.1,1.1v0
			C60.2,385.3,60.7,385.9,61.3,385.9z"/>
		<path style="fill:#163560;" d="M73.2,334.7c1.4,2.3,3,4.5,4.6,6.6c5.1,6.4,10.6,11.7,11.5,16.6c0.2,1,0.5,2.1,0.9,3.2
			c0.4,1.1,0.9,2.3,1.5,3.6c2.1,4.7,5.4,9.9,8.6,14.6c5.5,8.2,10.8,15.1,10.8,15.1l9.6-0.4c-0.4-1-4.6-12.3-10.1-26.1
			c-2.3-5.6-4.7-11.6-7-17.4c-0.3-0.8-0.6-1.5-0.9-2.3c-0.7-1.8-1.4-3.5-2.1-5.2c-5.2-13-9.4-23.4-9.4-23.4s-20.9-7.9-23.1-2.8
			C66.1,321.1,67.6,325.2,73.2,334.7z"/>
		<path style="fill:#163560;" d="M111.3,392.7c0,0,0.5,7.9,2,8c0.2,0,7.7,0,7.7,0l9.6-0.1c0,0-0.1-2.3-2.9-2.8
			c-2.8-0.5-7.5-2.5-9.2-6.2C116.8,387.7,111.3,392.7,111.3,392.7z"/>
		<path style="fill:#163560;" d="M89.2,370.2c0,0-6.6,4.3-6,5.7c0.1,0.2,3.8,6.8,3.8,6.8l4.7,8.4c0,0,2-1.2,1-3.9
			c-0.9-2.7-1.5-7.8,0.9-11.1C96.2,372.5,89.2,370.2,89.2,370.2z"/>
		<path style="fill:#1C468A;" d="M98.5,316.1c0,0,25.9,16.1,28.8,27.1c2.9,11-34.9,34.4-34.9,34.4s-4.2-3.7-4.9-6.4
			c0,0,17.1-20.5,20.8-25.1c2.3-2.8-33.7-9.8-38.1-16.6c-4.4-6.8-2.8-12.6-2.8-12.6L98.5,316.1z"/>
		<path style="fill:#EE9849;" d="M54,351.5h43c4,0,7.3-3.3,7.3-7.3l0,0c0-4-3.3-7.3-7.3-7.3H54c-4,0-7.3,3.3-7.3,7.3v0
			C46.7,348.2,50,351.5,54,351.5z"/>
		<path style="fill:#E49963;" d="M86,258.5c2.6,1.6,4,3.6,4,3.6c-6.3,1.6-16.7-4.2-16.7-4.2s4-2.7,5.5-8.7c0.1-0.3,0.1-0.6,0.2-0.9
			c0.2-1,0.3-2.1,0.3-3.3l2.9,2.6l4.8,4.3c0,0-0.1,1.8-0.7,4.9C86.3,257.3,86.2,257.9,86,258.5z"/>
		<path style="fill:#739AF0;" d="M66.6,288.2c0.9,12.1-0.3,30.6,0.7,33.7c0.9,2.8,10.9,1.1,14.9,0.2c1.5-0.3,3.3-0.8,5.1-1.4
			c5.2-1.6,10.8-3.9,11.4-5.6c0-0.1,0-0.1,0.1-0.2c0.1-0.2,0-0.5,0-0.7c-0.2-0.9-1-1.8-1.1-4c-0.1-2.4-0.1-5.2-0.2-8.3
			c0-0.3,0-0.7,0-1.1l0-0.1c0-0.1,0-0.1,0-0.2c-0.1-3.4-0.3-6.9-0.5-10.5c-0.1-2.2-0.3-4.4-0.5-6.5c-0.5-5.4-1.1-10.3-1.9-13.3
			c-1.3-5-4.2-8.2-6.9-10.6l-1.9-1.6c-2.1,0.5-4.7,0.2-6.9-0.9c-2.5-1.2-3.3-2-3.8-1.7C69.7,259.9,65.6,273.4,66.6,288.2z"/>
		<path style="fill:#4A75CB;" d="M87.5,320.8c5.2-1.6,10.8-3.9,11.4-5.6c0-0.1,0-0.1,0.1-0.2c0-0.2,0-0.5,0-0.7
			c-0.2-0.9-1-1.8-1.1-4c-0.1-2.4-0.1-5.2-0.2-8.3c0-0.3,0-0.7,0-1.1l0-0.1c0-0.1,0-0.1,0-0.2l-19.6-8.9
			C78.1,291.8,76.9,307.6,87.5,320.8z"/>
		<path style="fill:#D68D5D;" d="M87.1,251.9c0,0-0.1,1.8-0.7,4.9c-4.7-1.5-6.8-5.8-7.5-7.6c-0.2-0.5-0.3-0.8-0.3-0.8s0.2,0,0.5-0.1
			c0.7-0.1,1.9-0.4,3.2-0.7L87.1,251.9z"/>
		<path style="fill:#E49963;" d="M89,251.9c0,0-10.3,1.2-10.9-5.3c-0.6-6.4-2.4-10.6,4.2-11.6c6.6-1,8.1,1.3,8.8,3.4
			C91.8,240.5,91.7,251.4,89,251.9z"/>
		<path style="fill:#2B478B;" d="M78.1,247.1c0,0,0.7-8.5,10-9.4c6.4-0.6,2.8-6.1,2.2-7c0,0-4.9,0.7-10,1.5
			C69.7,233.9,77.1,245.7,78.1,247.1z"/>
		<g>
			
				<rect x="131.8" y="285" transform="matrix(-0.9511 -0.3089 0.3089 -0.9511 166.2816 621.0782)" style="fill:#4A75CB;" width="0.9" height="24.8"/>
			
				<rect x="102.9" y="307.5" transform="matrix(-0.9998 -2.135024e-02 2.135024e-02 -0.9998 225.1879 618.9653)" style="fill:#4A75CB;" width="26.1" height="1.6"/>
		</g>
		<g>
			<path style="fill:#E49963;" d="M105.7,305.8c0,0,4,1.5,6.8,1c2.7-0.5,7.1,1.3,7.8,2.4c0.6,1,0.3,1.4-1,1.6
				c-1.3,0.2-6.2,1.7-9.1,0.2c-2.9-1.5-6.9-2-6.9-2L105.7,305.8z"/>
			<path style="fill:#739AF0;" d="M73.7,265.6c0,0,1,33.8,8.4,37.6c3.7,1.9,20.2,7.1,25.1,8c0,0,1.3-0.9,1.5-4.9
				c0,0-17-8.5-19.1-12.3c-3.2-5.7,4.7-21.2,0.6-26.7C86,261.9,78.4,258.9,73.7,265.6z"/>
		</g>
	</g>
	<g>
		<path style="fill:#233862;" d="M355.4,399.6c0,0,0.4-2.9,1.3-4.7c0.9-1.8,6.5-0.6,6.5-0.6s1.1,1,1.4,5.4L355.4,399.6z"/>
		<path style="fill:#233862;" d="M336.4,399.6c1.3-0.8,0.6-6.8,0.6-6.8s-6.1-4.9-6.9-1.1c-0.8,3.7-5.8,5.4-8.6,5.9
			c-2,0.3-2.6,1.4-2.7,2H336.4z"/>
		<path style="fill:#213F7A;" d="M349.1,356.1c-0.2,1.4-0.4,2.5-0.4,3.3c-0.6,11.1-9.3,36.4-10.9,37c-2.4,0.9-6.2-1-8.2-1.7
			c-0.8-0.3-1.4-1.1-1.2-1.9c4.3-19.9,5.9-48.6,6.5-65.6c0.3-8.6,1.8-14.5,1.8-14.5s21.4-5.7,21.5,1.5
			C358.2,320.6,351,345.6,349.1,356.1z"/>
		<path style="fill:#233862;" d="M349.1,356.1l-14.3-29c0.3-8.6,1.8-14.5,1.8-14.5s21.4-5.7,21.5,1.5
			C358.2,320.6,351,345.6,349.1,356.1z"/>
		<path style="fill:#213F7A;" d="M344.3,314.2l11.3,81.8c0,0,5,1.2,8.8,0.2c0,0,3.3-43.5,3-54c-0.3-10.5,2.4-28.2-0.6-30.1
			C363.9,310.2,344.3,314.2,344.3,314.2z"/>
		<path style="fill:#2B478B;" d="M367.7,293.2l1.4,19.6c0.1,0.7-0.4,1.4-1.1,1.6c-1.6,0.5-3.4,0.8-6.9,1.5
			c-3.3,0.7-7.7,1.3-13.2,1.3c-8.6,0.1-11.9-2.9-11.9-2.9c-0.4,0,0.2-1.8,0.7-10.4c0.2-2.9,0.3-6.6,0.5-11.3
			c0.1-4.2,0.2-9.2,0.2-15.1c0-7.1,11-14.8,11.2-14.8l0,0c0,1,1.6,2.9,4.1,3.1c3,0.2,6.6-1.3,6.6-3c0,0,5.3,8.5,7.2,17.7
			c0.2,1.2,0.4,2.4,0.6,3.7c0,0,0,0,0,0.1c0,0.2,0.1,0.5,0.1,0.7c0,0,0,0.1,0,0.1c0,0.2,0,0.4,0.1,0.7c0,0.1,0,0.1,0,0.2
			c0,0.2,0,0.4,0.1,0.6c0,0,0,0,0,0.1c0,0.2,0,0.3,0,0.5c0,0.1,0,0.2,0,0.3c0,0.2,0,0.4,0,0.5c0,0.1,0,0.2,0,0.3c0,0.2,0,0.3,0,0.5
			c0,0.1,0,0.2,0,0.2c0,0.2,0,0.5,0,0.8c0,0,0,0,0,0.1c0,0.2,0,0.5,0,0.7c0,0.1,0,0.1,0,0.2c0,0.2,0,0.5,0,0.7c0,0,0,0.1,0,0.1
			C367.6,292.1,367.6,292.7,367.7,293.2C367.7,293.3,367.7,293.3,367.7,293.2L367.7,293.2z"/>
		<path style="fill:#2B478B;" d="M348.6,262.8c0,0-10.3-0.1-12.7,3.4c-2.5,3.5-7.9,22.1-5.1,28.3c2.8,6.2,8.1-2.6,11-6.4
			C344.8,284.3,348.6,262.8,348.6,262.8z"/>
		<path style="fill:#FFB27D;" d="M348.5,261.2l0,1.1c0,0-0.3,3.3,3.8,3.8c4.1,0.5,7.2-1.3,7.1-3.9c-0.4-2-0.8-3.3-0.8-5
			c0-0.6,0-1.3,0.1-2l-7.9-0.2l-2.3,0.4L348.5,261.2z"/>
		<path style="fill:#E2915A;" d="M348.4,255.5l0,5.7c0.8,0.4,1.8,0.6,2.9,0.6c3.6,0,6-2.7,7.2-4.6c0-0.6,0-1.3,0.1-2l-7.9-0.2
			L348.4,255.5z"/>
		<path style="fill:#FFB27D;" d="M359.3,254c-0.9,4.9-7.3,4.8-10,4.5c-0.8-0.1-1.3-0.2-1.3-0.2c-0.9-0.2-1.4-1.6-1.6-3.4
			c-0.4-3.6,0.1-8.8,0.7-10.1c0.9-2,2.6-4.2,9-2.6C362.6,243.7,360.5,247.7,359.3,254z"/>
		<path style="fill:#233862;" d="M338.1,276.7c0,0-4,8.8-3.9,11.4c0,0,2-0.1,3.9,0.5C341.2,289.5,338.1,276.7,338.1,276.7z"/>
		<path style="fill:#233862;" d="M345.1,240c0,0,2.8-0.2,6.2-1.7c2.7-1.2,6.1,0.1,7.2,0.7c0-0.2-0.1-0.4-0.3-0.7
			c0,0,0.5,0.4,0.6,0.8c0.1,0,0.1,0.1,0.1,0.1c0,0,0.6-0.1,0.9,0.1c0,0-0.3,0-0.3,0.1c0,0,0,0,0,0c4.2,2,4.6,8.7,3.3,10.2
			c-1.6,1.9-3.6,6-3.6,6s-0.7-1-0.4-2.6c0.3-1.6-1.1-1.6-2.9-2.4c-1.8-0.7-0.3-2.8-1.9-4.1c-1.6-1.3-7.3-0.5-7.2-1.5
			C344.6,244.5,345.1,240.2,345.1,240z"/>
		<path style="fill:#233862;" d="M360.6,293.1c-1.7,6.7-19.8,10.2-23.9,10.9c0.2-2.9,0.3-6.6,0.5-11.3L360.6,293.1z"/>
		<path style="fill:#FFB27D;" d="M356.6,295.3c0.2,0,4-0.6,4.7-0.9c0.7-0.3,3.8-4.8,1.8-6c-2.1-1.1-7.6,3.5-7.6,3.5L356.6,295.3z"/>
		<path style="fill:#2B478B;" d="M333.2,296.6c0,0,14.9,0.8,24.9-1.3c0,0,0.3-2.9-2.9-4.2c0,0-15.6-3.3-19.3-2.4
			C332.1,289.6,333.2,296.6,333.2,296.6z"/>
		<path style="fill:#2B478B;" d="M367.4,284.9c-3.1,3.7-7.1,6.8-11.6,7.5l0,0c0-0.1-1.3-2-1.1-5c0.1-1.4,0.6-2.9,1.6-4.6
			c0.3-0.5,0.6-1.1,0.9-1.8c2.4-6.2,2.1-18.2,2.1-18.2s10.3,1.1,13.6,5.7C374.8,271.4,372.3,279,367.4,284.9z"/>
		<path style="fill:#E2915A;" d="M349.2,258.5c-0.8-0.1-1.3-0.2-1.3-0.2c-0.9-0.2-1.4-1.6-1.6-3.4c1.6,0.4,2.4,1.7,2.7,2.2
			C349.2,257.3,349.3,257.9,349.2,258.5z"/>
		<path style="fill:#FFB27D;" d="M345.1,261.3c0,0-3.6-5.9-0.8-6.1c2.8-0.3,3.9,1.6,4.3,2.3c0.4,0.7-0.1,3.8-0.1,3.8L345.1,261.3z"
			/>
		<path style="fill:#2B478B;" d="M358.7,287.2c-0.1,0.7-0.3,1.4-0.6,2c-0.9,1.9-2.3,3.1-2.3,3.1l0,0c-9.3-4.2-11.1-18.6-11.5-26.4
			c-0.1-3.2,0-5.3,0-5.3c4.2-1.4,5.4,1,5.4,1s4.9,11.7,7.5,19.4C358.2,284,358.8,286.4,358.7,287.2z"/>
		<path style="fill:#233862;" d="M367.4,284.9c-3.1,3.7-7.1,6.8-11.6,7.5l0,0c-9.3-4.2-11.1-18.6-11.5-26.4c0,0,4.4,15.9,10.4,21.5
			c1.1,1,2.2,1.7,3.4,1.8c0,0,7.5-2.1,9.1-4.1C367.3,285,367.4,284.9,367.4,284.9z"/>
	</g>
	<g>
		<path style="fill:#EFC45E;" d="M520.2,386.1c1.8,6.8,15.2,10.7,29.8,13.1h54.5c13.1-6.4,13.1-14.1,14.2-35.3
			c2.2-43.8-20.8-64.9-31.1-61.4c-0.4,0.1-0.9,0.3-1.3,0.5c-3,1.2-6.3,3.3-9.6,8.4c0,0-10.2,17-18.6,27.2c-2.7,3.3-5.2,5.8-7.1,6.9
			c0,0,0,0-0.1,0c-0.1,0.1-0.2,0.1-0.3,0.1c-4.4,2-10.7,6.3-16.4,11.7c0,0,0,0,0,0C525.3,365.6,517.7,376.6,520.2,386.1z"/>
		<path style="fill:#EFC45E;" d="M534.1,357.2c7.6,2.3,47,13.7,56.2,1.7c6.7-8.7,2.5-31.1-1.2-45.5c-1.5-5.9-9.1-7.3-12.4-2.2
			c0,0.1-0.1,0.1-0.1,0.2c0,0-10.2,17-18.6,27.2c-2.4,3.2-4.8,5.7-7.1,6.9c0,0,0,0-0.1,0c-0.1,0.1-0.2,0.1-0.3,0.1
			C546.1,347.6,539.9,351.9,534.1,357.2z"/>
		<g>
			<path style="fill:#F4A269;" d="M563.4,302c0,0-2.7,4-4.3,12.5c-1.4,7.4-2.6,10.2-4.5,11.7c-2,1.5-12.9,6-12.9,6l0.8,1.9
				c0,0,16.1-2.2,17.9-4.9c1.8-2.7,8.7-18.5,8.1-22.2C568,303.5,563.4,302,563.4,302z"/>
			<g>
				<path style="fill:#FFB27D;" d="M524.1,390.6c0.1,1.6-2,1.9-4.6,2.1c-2.5,0.1-1.8,0.6-5.2,1.3c-3.5,0.6-4.8-0.3-5.1-0.8
					c-0.2-0.4,1.4-1.1,3.1-1.8c0.2-0.1,0.4-0.2,0.6-0.3c1.9-0.8,3-2.6,4.5-4.2c1.4-1.5,2.8-6.4,2.8-6.4l4.7-1c0,0-1.3,4.4-1.8,6.3
					c-0.3,1.1,0.1,2.3,0.5,3.3C523.8,389.6,524,390.1,524.1,390.6z"/>
				<path style="fill:#C65447;" d="M519.5,392.7c-2.5,0.1-1.8,0.6-5.2,1.3c-3.5,0.6-4.8-0.3-5.1-0.8c-0.2-0.4,1.4-1.1,3.1-1.8l0,0
					c0,0,2.4,0.8,5.2,0.1c2.3-0.6,4.5-2,6.1-2.4c0.2,0.5,0.4,1,0.4,1.6C524.2,392.2,522,392.6,519.5,392.7z"/>
			</g>
			<path style="fill:#163560;" d="M570.9,334.9c0,0-31.3-2.4-37.1,1.4c-5.9,3.7-15.3,47-15.3,47s0.6,0.5,1.9,0.6
				c1.2,0.1,3.9-0.6,3.9-0.6s13.6-19.4,14.5-24.2c1-4.9,0.7-9.2,2.9-9.3c2.2-0.1,29.3,3.3,33.4-3.9c4.1-7.2,0.7-14.4,0.7-14.4
				L570.9,334.9z"/>
			<g>
				<path style="fill:#FFB27D;" d="M536,395.6c0.1,1.6-2,1.9-4.6,2.1c-2.5,0.1-1.8,0.6-5.2,1.3c-3.5,0.6-4.8-0.3-5.1-0.8
					c-0.2-0.4,1.4-1.1,3.1-1.8c0.2-0.1,0.4-0.2,0.6-0.3c1.9-0.8,3-2.6,4.5-4.2c1.4-1.5,2.8-6.4,2.8-6.4l4.7-1c0,0-1.3,4.4-1.8,6.3
					c-0.3,1.1,0.1,2.3,0.5,3.3C535.8,394.6,536,395.1,536,395.6z"/>
				<path style="fill:#C65447;" d="M531.5,397.7c-2.5,0.1-1.8,0.6-5.2,1.3c-3.5,0.6-4.8-0.3-5.1-0.8c-0.2-0.4,1.4-1.1,3.1-1.8l0,0
					c0,0,2.4,0.8,5.2,0.1c2.3-0.6,4.5-2,6.1-2.4c0.2,0.5,0.4,1,0.4,1.6C536.2,397.2,534,397.6,531.5,397.7z"/>
			</g>
			<path style="fill:#1C468A;" d="M577,336.8c0,0-27.8,1.3-33.5,5.3c-5.7,3.9-13.5,47.5-13.5,47.5s0.6,0.4,1.9,0.5
				c1.2,0.1,3.8-0.7,3.8-0.7s12.8-19.9,13.6-24.8c0.8-4.9,0.4-9.2,2.5-9.4c2.2-0.2,29.4,2.2,33.2-5.2
				C588.9,342.5,577,336.8,577,336.8z"/>
			<path style="fill:#B5453C;" d="M567.5,299.8c-0.5-0.9-1.2-2.6-1.6-5.7c0.1,0.3,0.9,4.2,2.5,6.3c6.4,3.6,19.1,16.4,19.1,18.9
				c0,0,3.7-7.3,3.8-7.4c0,0,7-10.3-2.4-15.3c-4.8-2.5-5-6.2-5-9.4c0-3.2-2.4-16.7-11.4-12.5c0,0-1.5-0.6-2.2-0.4
				c0,0,0.6,0.1,0.8,0.3c-1.1,0-2.6,0.2-3.8,1C563.9,277.8,562,295.4,567.5,299.8z"/>
			<path style="fill:#FFB27D;" d="M578.2,297.4c0,0-2.6-0.2-5.2,0c-1.8,0.2-3.5,0.7-4.5,1.1c-2.4,1-2.2,5.4,2.9,4.6
				C576.6,302.3,578.6,298.7,578.2,297.4z"/>
			<path style="fill:#FFB27D;" d="M568.8,300.5c0,0-0.7,3.7,2.6,3.6c2.2-0.1,7-2.8,6.5-4.7c-0.2-0.9-1.9-3.2-2.2-8.5l-0.4,0.1
				l-6.8,1.8c0,0,0.3,2.1,0.4,4.2C569.1,298.7,569.1,300.3,568.8,300.5z"/>
			<path style="fill:#F4A269;" d="M568.6,292.8c0,0,0.3,2.1,0.4,4.2c3.8-0.4,5.6-4,6.3-6L568.6,292.8z"/>
			<path style="fill:#B5453C;" d="M576,290.2c0,0,1.8-3.3,2.1-6.1c0.2-2-1.2-9.1-8.4-7.6c0,0-2.1,0.3-4,1.8
				c-1.5,1.2-3.6,3.6-0.7,9.7l0.8,2.1L576,290.2z"/>
			<path style="fill:#FFB27D;" d="M567.4,294.8c0,0,9.1-0.5,8.7-6.1c-0.4-5.6,0.6-9.5-5.3-9.5c-5.8,0.1-6.8,2.3-7.1,4.2
				C563.4,285.4,565.1,294.8,567.4,294.8z"/>
			<path style="fill:#B5453C;" d="M566.7,279.4c0,0,2.9,6.5,6.8,7.2c3.9,0.7,5.5-0.4,5.5-0.4s-3.1-2.1-4-6.1
				C575,280.1,568.4,276.1,566.7,279.4z"/>
			<path style="fill:#B5453C;" d="M567.4,279.9c0,0-1.8,1.6-2.1,3.1c-0.4,1.5-0.4,4.4-1.2,4.4c0,0-2.2-4.4-0.2-7.1
				C565.9,277.5,567.4,279.9,567.4,279.9z"/>
			<path style="fill:#1C468A;" d="M558.4,335.3c0.7,0.9,3,1.1,5.5,1.6c1.9,0.3,4,0.7,5.4,1.6c3.3,1.9,14,8.4,17.1,8.1
				c1.2-0.1,1-2.4,0.3-5.5c-1.2-4.9-3.6-11.6-3.6-14.5c0-1.6-0.5-5.4-1.2-9.7c-0.1-0.3-0.1-0.7-0.2-1.1c-1.4-8.4-3.4-18.3-3.4-18.3
				s-2.2,4.7-6.4,4.7c-4.2,0-3.2-3.6-3.2-3.6s-3.9,0.5-4.8,1.4c-0.9,1-3.2,5.2-3.7,6.4c0,0-0.1,1.5,3.6,2.2c0,0-0.9,4-1,6.7
				c-0.1,2,1.3,8.1,1.8,12c0.1,1.4,0.2,2.4-0.1,2.9c-0.3,0.6-1.2,1.2-2.2,1.8C560,333.1,557.5,334.3,558.4,335.3z"/>
			<path style="fill:#163560;" d="M562.1,331.9c-2.3,4,6.4,5.2,7.8,6c3.3,1.9,13.3,8.9,16.4,8.6c1.2-0.1,1-2.4,0.3-5.5
				c-1.2-4.9-3.6-11.6-3.6-14.5c0-1.6-0.5-5.4-1.2-9.7l-3.8-3.6c0,0-4,10.4-7.9,12.2c-2,0.9-4.1,1.5-5.7,1.8
				c0.1,1.4,0.2,2.4-0.1,2.9C564.1,330.7,563.2,331.3,562.1,331.9z"/>
			<path style="fill:#FFB27D;" d="M579.4,300.5c0,0,3.2-2,6.3,1.8c3.1,3.7-2.2,30.3-6.8,31.6c-5.1,1.5-19.9-0.2-19.9-0.2l0.3-2.3
				c0,0,15.8-3,16.4-3.9C576.3,326.6,577.7,300.9,579.4,300.5z"/>
			<path style="fill:#1C468A;" d="M578.2,297.4c0,0,6.6,0.6,8.5,2.8s2.5,8.1,2.5,8.1s-5.8,4.7-12.9,2.9L578.2,297.4z"/>
			<g>
				
					<rect x="548.6" y="334.9" transform="matrix(-1 -1.224647e-16 1.224647e-16 -1 1106.0106 670.8008)" style="fill:#9E332E;" width="8.7" height="1"/>
				<path style="fill:#9E332E;" d="M550.5,335.8c-0.1-0.3-8-12.8-8-12.8h-17.7l8.9,12.5L550.5,335.8z"/>
				<path style="fill:#B5453C;" d="M549.7,335.9c-0.1-0.3-8.1-13-8.1-13h-16.9l8.4,13H549.7z"/>
				<path style="fill:#9E332E;" d="M534.8,329.5c0.2,0.5,0.7,0.9,1.2,0.9c0.5,0,0.8-0.4,0.6-0.9c-0.2-0.5-0.7-0.9-1.2-0.9
					C534.9,328.6,534.7,329,534.8,329.5z"/>
			</g>
			<path style="fill:#FFB27D;" d="M560.5,331.2c0,0-5.1-1-5.7-0.7c-0.6,0.2-3.8,3.1-3.5,3.7c0.3,0.6,1.7,1,3.1,0.5
				c1.5-0.5,4.7-0.7,5.3-1.5C560.3,332.4,560.5,331.2,560.5,331.2z"/>
		</g>
	</g>
	<g>
		<polygon style="fill:#FAFDFF;" points="451,187.2 289.4,187.2 277,146.7 438.6,146.7 		"/>
		<g>
			<path style="fill:#B7D5F9;" d="M432.4,160.4l1.5,4.9c0.7,2.1-0.6,3.9-2.7,3.9H297.3c-2.1,0-4.4-1.7-5.1-3.9l-1.5-4.9
				c-0.7-2.1,0.6-3.9,2.7-3.9h133.9C429.5,156.5,431.8,158.3,432.4,160.4z"/>
			<g>
				<path style="fill:#699DEE;" d="M405.6,161.4h-2.1l-0.2-0.6h2.9l0.2,0.5l-0.8,3.5h-0.8L405.6,161.4z"/>
				<path style="fill:#699DEE;" d="M407.4,162.8c-0.4-1.2,0.1-2.1,1.1-2.1c1.1,0,2.1,0.9,2.4,2.1c0.4,1.2-0.1,2.1-1.1,2.1
					C408.7,164.9,407.7,164,407.4,162.8z M410.2,162.8c-0.2-0.8-0.9-1.5-1.5-1.5c-0.6,0-0.8,0.6-0.6,1.5c0.2,0.8,0.9,1.5,1.5,1.5
					C410.3,164.3,410.5,163.6,410.2,162.8z"/>
				<path style="fill:#699DEE;" d="M411.2,161.8c-0.2-0.6,0.1-1,0.6-1c0.6,0,1.1,0.5,1.3,1c0.2,0.6-0.1,1-0.6,1
					C411.9,162.8,411.4,162.3,411.2,161.8z M414.3,160.8h0.6l-1.7,4.1h-0.6L414.3,160.8z M412.7,161.8c-0.1-0.3-0.4-0.6-0.6-0.6
					c-0.3,0-0.4,0.3-0.3,0.6c0.1,0.3,0.4,0.6,0.6,0.6C412.7,162.4,412.7,162.1,412.7,161.8z M414.4,163.9c-0.2-0.6,0.1-1,0.6-1
					c0.6,0,1.1,0.5,1.3,1c0.2,0.6-0.1,1-0.6,1C415.1,164.9,414.5,164.4,414.4,163.9z M415.8,163.9c-0.1-0.3-0.4-0.6-0.6-0.6
					c-0.3,0-0.4,0.3-0.3,0.6c0.1,0.3,0.4,0.6,0.6,0.6C415.8,164.5,415.9,164.2,415.8,163.9z"/>
			</g>
			<g>
				<path style="fill:#F99746;" d="M384,156.5l3.9,12.6h-90.5c-1.8,0-3.7-1.2-4.6-2.8c-0.2-0.3-0.3-0.7-0.5-1l-1.5-4.9
					c-0.7-2.1,0.6-3.9,2.7-3.9H384z"/>
				<path style="fill:#ED7D2B;" d="M309.5,156.5l-3.8,12.6h-8.4c-1.8,0-3.7-1.2-4.6-2.8l3-9.8H309.5z"/>
				<polygon style="fill:#ED7D2B;" points="333.2,156.5 329.4,169.1 315.6,169.1 319.4,156.5 				"/>
				<polygon style="fill:#ED7D2B;" points="356.9,156.5 353.1,169.1 339.3,169.1 343.1,156.5 				"/>
				<polygon style="fill:#ED7D2B;" points="380.6,156.5 376.8,169.1 363,169.1 366.8,156.5 				"/>
			</g>
		</g>
		<g>
			<polygon style="fill:#AFCDFB;" points="321.9,176.6 297.7,176.6 297.2,174.9 321.4,174.9 			"/>
			<polygon style="fill:#AFCDFB;" points="316.7,181.3 299.1,181.3 298.6,179.6 316.2,179.6 			"/>
			<polygon style="fill:#AFCDFB;" points="328.3,181.3 317.8,181.3 317.3,179.6 327.8,179.6 			"/>
			<polygon style="fill:#AFCDFB;" points="346.2,181.3 330.1,181.3 329.6,179.6 345.6,179.6 			"/>
			<polygon style="fill:#AFCDFB;" points="331,176.6 323.7,176.6 323.2,174.9 330.5,174.9 			"/>
			<polygon style="fill:#AFCDFB;" points="360.2,176.6 333.5,176.6 333,174.9 359.7,174.9 			"/>
		</g>
	</g>
	<g>
		<polygon style="fill:#FAFDFF;" points="232.8,248.5 119.1,248.5 101.5,190.6 215.2,190.6 		"/>
		<polygon style="fill:#4A75CB;" points="216.8,219.5 117.5,219.5 110,194.9 209.3,194.9 		"/>
		<g>
			<polygon style="fill:#CAE0FF;" points="133.8,199.9 117,199.9 116.6,198.6 133.4,198.6 			"/>
			<polygon style="fill:#CAE0FF;" points="151.8,199.9 137.8,199.9 137.4,198.6 151.4,198.6 			"/>
			<polygon style="fill:#CAE0FF;" points="184.4,199.9 155.5,199.9 155.1,198.6 184,198.6 			"/>
			<polygon style="fill:#CAE0FF;" points="135.3,204.6 118.5,204.6 118.1,203.3 134.9,203.3 			"/>
			<polygon style="fill:#CAE0FF;" points="153.3,204.6 139.3,204.6 138.9,203.3 152.9,203.3 			"/>
			<polygon style="fill:#CAE0FF;" points="169.8,204.6 155.8,204.6 155.4,203.3 169.4,203.3 			"/>
			<polygon style="fill:#CAE0FF;" points="202.9,205.2 174,205.2 173.6,203.9 202.5,203.9 			"/>
		</g>
		<g>
			<polygon style="fill:#CAE0FF;" points="137.1,210.6 120.3,210.6 119.9,209.3 136.7,209.3 			"/>
			<polygon style="fill:#CAE0FF;" points="155.1,210.6 141.1,210.6 140.7,209.3 154.7,209.3 			"/>
			<polygon style="fill:#CAE0FF;" points="187.6,210.6 158.7,210.6 158.3,209.3 187.2,209.3 			"/>
			<polygon style="fill:#CAE0FF;" points="138.5,215.3 121.7,215.3 121.3,214 138.1,214 			"/>
			<polygon style="fill:#CAE0FF;" points="156.5,215.3 142.5,215.3 142.1,214 156.1,214 			"/>
			<polygon style="fill:#CAE0FF;" points="173,215.3 159,215.3 158.6,214 172.6,214 			"/>
			<polygon style="fill:#CAE0FF;" points="206.2,215.8 177.3,215.8 176.9,214.5 205.8,214.5 			"/>
		</g>
		<g>
			<g>
				<g>
					<path style="fill:#A8D29F;" d="M184.1,239.9c-3.9,0-7.9-3.1-9.1-7c-1.2-3.9,1-7,4.9-7c3.9,0,7.9,3.1,9.1,7
						C190.1,236.8,187.9,239.9,184.1,239.9z M180.2,227.2c-3.1,0-4.9,2.6-4,5.7c1,3.1,4.3,5.7,7.5,5.7c3.1,0,4.9-2.6,4-5.7
						C186.7,229.8,183.4,227.2,180.2,227.2z"/>
				</g>
				<g>
					<path style="fill:#A8D29F;" d="M182.9,236.5c-0.3,0-0.5-0.1-0.8-0.3l-4-3.1c-0.5-0.4-0.7-1.1-0.4-1.5c0.3-0.4,1-0.4,1.5,0
						l2.8,2.2l1.4-3.3c0.2-0.5,0.8-0.6,1.4-0.2c0.6,0.3,0.9,1,0.7,1.5l-1.8,4.3c-0.1,0.3-0.3,0.4-0.7,0.4
						C183,236.5,182.9,236.5,182.9,236.5z"/>
				</g>
			</g>
			<g>
				<g>
					<path style="fill:#A8D29F;" d="M164.1,239.9c-3.9,0-7.9-3.1-9.1-7c-1.2-3.9,1-7,4.9-7c3.9,0,7.9,3.1,9.1,7
						C170.1,236.8,167.9,239.9,164.1,239.9z M160.2,227.2c-3.1,0-4.9,2.6-4,5.7c1,3.1,4.3,5.7,7.5,5.7c3.1,0,4.9-2.6,4-5.7
						C166.7,229.8,163.4,227.2,160.2,227.2z"/>
				</g>
				<g>
					<path style="fill:#A8D29F;" d="M162.9,236.5c-0.3,0-0.5-0.1-0.8-0.3l-4-3.1c-0.5-0.4-0.7-1.1-0.4-1.5c0.3-0.4,1-0.4,1.5,0
						l2.8,2.2l1.4-3.3c0.2-0.5,0.8-0.6,1.4-0.2c0.6,0.3,0.9,1,0.7,1.5l-1.8,4.3c-0.1,0.3-0.3,0.4-0.7,0.4
						C163,236.5,162.9,236.5,162.9,236.5z"/>
				</g>
			</g>
			<g>
				<g>
					<path style="fill:#A8D29F;" d="M143.4,239.9c-3.9,0-7.9-3.1-9.1-7c-1.2-3.9,1-7,4.9-7c3.9,0,7.9,3.1,9.1,7
						C149.4,236.8,147.2,239.9,143.4,239.9z M139.5,227.2c-3.1,0-4.9,2.6-4,5.7c1,3.1,4.3,5.7,7.5,5.7c3.1,0,4.9-2.6,4-5.7
						C146,229.8,142.6,227.2,139.5,227.2z"/>
				</g>
				<g>
					<path style="fill:#A8D29F;" d="M142.2,236.5c-0.3,0-0.5-0.1-0.8-0.3l-4-3.1c-0.5-0.4-0.7-1.1-0.4-1.5c0.3-0.4,1-0.4,1.5,0
						l2.8,2.2l1.4-3.3c0.2-0.5,0.8-0.6,1.4-0.2c0.6,0.3,0.9,1,0.7,1.5L143,236c-0.1,0.3-0.3,0.4-0.7,0.4
						C142.3,236.5,142.2,236.5,142.2,236.5z"/>
				</g>
			</g>
			<g>
				<g>
					<path style="fill:#F1A34F;" d="M203.4,239.9c-3.9,0-7.9-3.1-9.1-7c-1.2-3.9,1-7,4.9-7c3.9,0,7.9,3.1,9.1,7
						C209.4,236.8,207.2,239.9,203.4,239.9z M199.5,227.2c-3.1,0-4.9,2.6-4,5.7c1,3.1,4.3,5.7,7.5,5.7s4.9-2.6,4-5.7
						C206,229.8,202.6,227.2,199.5,227.2z"/>
				</g>
				<g>
					<path style="fill:#F1A34F;" d="M201.6,234L201.6,234c-0.5,0-1.1-0.4-1.3-1l-0.9-3c-0.2-0.5,0.1-1,0.7-1l0,0
						c0.5,0,1.1,0.4,1.3,1l0.9,3C202.4,233.6,202.1,234,201.6,234z"/>
					<path style="fill:#F1A34F;" d="M202.4,236.4h-0.2c-0.5,0-1-0.4-1.2-0.9l0,0c-0.1-0.5,0.1-0.9,0.6-0.9h0.2c0.5,0,1,0.4,1.2,0.9
						l0,0C203.2,236,202.9,236.4,202.4,236.4z"/>
				</g>
			</g>
		</g>
	</g>
	<g>
		<path style="fill:#ED7D2B;" d="M475.1,236.9c0,0,14.4,14.9,15.1,20.5s-6.9,14.4-6.9,14.4L475.1,236.9z"/>
		<path style="fill:#163560;" d="M468.6,391.5c0,0-0.5,7.9-2,8c-0.2,0-7.8,0-7.8,0l-9.6-0.1c0,0,0.1-2.3,2.9-2.8
			c2.8-0.5,7.5-2.5,9.3-6.2C463.1,386.5,468.6,391.5,468.6,391.5z"/>
		<path style="fill:#163560;" d="M490.1,391.5c0,0-0.5,7.9-2,8c-0.2,0-7.8,0-7.8,0l-9.6-0.1c0,0,0.1-2.3,2.9-2.8
			c2.8-0.5,7.5-2.5,9.3-6.2C484.6,386.5,490.1,391.5,490.1,391.5z"/>
		<path style="fill:#163560;" d="M458.1,306.4c0,0,2.5,16.1,11.8,44.8c9.4,28.7,10.6,41.1,10.6,41.1l10.1-0.3c0,0,0.2-31.3-4.2-45.7
			c-4.3-14.4-0.8-51.9-0.8-51.9L458.1,306.4z"/>
		<path style="fill:#1C468A;" d="M453.2,295.2c0,0-0.4,24.3,3.7,54.2c4.1,29.9,2.7,42.5,2.7,42.5l10.1,0.4c0,0,6.1-29.9,4.4-44.8
			c-1.7-14.9,8.4-51.3,8.4-51.3L453.2,295.2z"/>
		<path style="fill:#FFB27D;" d="M472.8,238.3l-5.4,3.5l-7.8-1.5c0.1-0.6,0.6-3.2,1.1-5.6c0-0.1,0.1-0.3,0.1-0.4
			c0.4-2,0.8-3.7,0.8-3.7l7.3-3.2l2.7-1.2c0,0-0.2,2.2-0.2,2.5C470.8,234.5,472.8,238.3,472.8,238.3z"/>
		<path style="fill:#ED7D2B;" d="M461.7,236.5c0.2-0.1,9.4-2.8,10.3-2.4c1,0.3,1.6,2.3,1.6,2.3l-15,3.4
			C458.6,239.7,459.8,237.3,461.7,236.5z"/>
		<path style="fill:#F99746;" d="M486.3,298.3c-1.6,7.1-27.5,7.9-34.2,1.4c-0.8-0.7-0.8-4.2-0.5-8.8c0.6-9,2.4-22.6,2.5-29.5
			c0-3.3,0.5-6.8,1.1-9.9c1.3-6.6,3.3-11.8,3.3-11.8s12.7-4.1,15-3.4C485,239.8,487.9,291.2,486.3,298.3z"/>
		<path style="fill:#ED7D2B;" d="M451.6,290.9c0.6-9,2.4-22.6,2.5-29.5c0-3.3,0.5-6.8,1.1-9.9l7.6-1.3
			C462.9,250.2,470.3,280.7,451.6,290.9z"/>
		<path style="fill:#FFB27D;" d="M455.8,278.4c0,0,0.5,1.2-0.6,2.1c-1.1,0.8-1.8,2.2-1.6,3.2c0.2,1,2.6,2.6,3.5,2.3
			c0.8-0.3,2.5-1.6,2.3-2.1c-0.2-0.5,1.1-4.6-0.9-6.1C456.6,276.2,455.8,278.4,455.8,278.4z"/>
		<path style="fill:#F99746;" d="M464.4,237.9c0,0-7.4,1.4-13.4,10.1c-5.9,8.7-9.9,15.2-8.8,18.3c1.1,3.1,11,14.1,12.7,14.1
			c1.7,0,4.5-1.2,4.6-4c0,0-7-10.5-5.6-12.1c0.6-0.7,9.1-7.6,10.3-4.4C466.3,265,464.4,237.9,464.4,237.9z"/>
		<path style="fill:#FCA56B;" d="M470.8,228.9c-1.6,2.7-7.5,5-10,5.9c0-0.1,0.1-0.3,0.1-0.4c0.4-2,0.8-3.7,0.8-3.7l7.3-3.2
			C470.5,227.5,471.5,227.8,470.8,228.9z"/>
		<path style="fill:#FFB27D;" d="M458.9,230.2c0,0,11.7,3.7,13.8-3.6c2.2-7.3,5.1-11.7-2.2-14.4c-7.4-2.7-9.6-0.3-11,2
			C458.2,216.4,455.9,229.1,458.9,230.2z"/>
		<path style="fill:#163560;" d="M460,213.5c0,0,0.7,8.5,2.5,8.1c1.8-0.4,3.4-0.6,3.1,1.9c-0.3,2.6-2.7,5.5,2.7,6
			c5.4,0.5,13.2-13.5,11.8-16.1C475.8,205.7,453.8,204.1,460,213.5z"/>
	</g>
	<g>
		<g style="opacity:0.5;">
			<path style="fill:#AFCDFB;" d="M217.5,150.5v-2.1h2.1v2.1H217.5z"/>
			<path style="fill:#AFCDFB;" d="M217.5,146.3v-2.1h2.1v2.1H217.5z"/>
			<path style="fill:#AFCDFB;" d="M217.5,142.2v-2.1h2.1v2.1H217.5z"/>
			<path style="fill:#AFCDFB;" d="M217.5,138v-2.1h2.1v2.1H217.5z"/>
			<path style="fill:#AFCDFB;" d="M217.5,133.8v-2.1h2.1v2.1H217.5z"/>
			<path style="fill:#AFCDFB;" d="M217.5,129.6v-2.1h2.1v2.1H217.5z"/>
			<path style="fill:#AFCDFB;" d="M217.5,125.4v-2.1h2.1v2.1H217.5z"/>
			<path style="fill:#AFCDFB;" d="M217.5,121.2v-2.1h2.1v2.1H217.5z"/>
			<path style="fill:#AFCDFB;" d="M217.5,117V115h2.1v2.1H217.5z"/>
			<path style="fill:#AFCDFB;" d="M217.5,112.8v-2.1h2.1v2.1H217.5z"/>
			<path style="fill:#AFCDFB;" d="M217.5,108.6v-2.1h2.1v2.1H217.5z"/>
			<path style="fill:#AFCDFB;" d="M217.5,104.5v-2.1h2.1v2.1H217.5z"/>
			<path style="fill:#AFCDFB;" d="M217.5,100.3v-2.1h2.1v2.1H217.5z"/>
			<path style="fill:#AFCDFB;" d="M217.5,96.1V94h2.1v2.1H217.5z"/>
			<path style="fill:#AFCDFB;" d="M217.5,91.9v-2.1h2.1v2.1H217.5z"/>
			<path style="fill:#AFCDFB;" d="M217.5,87.7v-2.1h2.1v2.1H217.5z"/>
			<path style="fill:#AFCDFB;" d="M217.5,83.5v-2.1h2.1v2.1H217.5z"/>
			<path style="fill:#AFCDFB;" d="M217.5,79.3v-2.1h2.1v2.1H217.5z"/>
		</g>
		<g style="opacity:0.5;">
			<path style="fill:#AFCDFB;" d="M211,125.4v-2.1h2.1v2.1H211z"/>
			<path style="fill:#AFCDFB;" d="M211,121.2v-2.1h2.1v2.1H211z"/>
			<path style="fill:#AFCDFB;" d="M211,117V115h2.1v2.1H211z"/>
			<path style="fill:#AFCDFB;" d="M211,112.8v-2.1h2.1v2.1H211z"/>
			<path style="fill:#AFCDFB;" d="M211,108.6v-2.1h2.1v2.1H211z"/>
			<path style="fill:#AFCDFB;" d="M211,104.5v-2.1h2.1v2.1H211z"/>
			<path style="fill:#AFCDFB;" d="M211,100.3v-2.1h2.1v2.1H211z"/>
			<path style="fill:#AFCDFB;" d="M211,96.1V94h2.1v2.1H211z"/>
			<path style="fill:#AFCDFB;" d="M211,91.9v-2.1h2.1v2.1H211z"/>
			<path style="fill:#AFCDFB;" d="M211,87.7v-2.1h2.1v2.1H211z"/>
			<path style="fill:#AFCDFB;" d="M211,83.5v-2.1h2.1v2.1H211z"/>
			<path style="fill:#AFCDFB;" d="M211,79.3v-2.1h2.1v2.1H211z"/>
		</g>
		<g style="opacity:0.5;">
			<path style="fill:#AFCDFB;" d="M204.3,150.5v-2.1h2.1v2.1H204.3z"/>
			<path style="fill:#AFCDFB;" d="M204.3,146.3v-2.1h2.1v2.1H204.3z"/>
			<path style="fill:#AFCDFB;" d="M204.3,142.2v-2.1h2.1v2.1H204.3z"/>
			<path style="fill:#AFCDFB;" d="M204.3,138v-2.1h2.1v2.1H204.3z"/>
			<path style="fill:#AFCDFB;" d="M204.3,133.8v-2.1h2.1v2.1H204.3z"/>
			<path style="fill:#AFCDFB;" d="M204.3,129.6v-2.1h2.1v2.1H204.3z"/>
			<path style="fill:#AFCDFB;" d="M204.3,125.4v-2.1h2.1v2.1H204.3z"/>
			<path style="fill:#AFCDFB;" d="M204.3,121.2v-2.1h2.1v2.1H204.3z"/>
			<path style="fill:#AFCDFB;" d="M204.3,117V115h2.1v2.1H204.3z"/>
			<path style="fill:#AFCDFB;" d="M204.3,112.8v-2.1h2.1v2.1H204.3z"/>
			<path style="fill:#AFCDFB;" d="M204.3,108.6v-2.1h2.1v2.1H204.3z"/>
			<path style="fill:#AFCDFB;" d="M204.3,104.5v-2.1h2.1v2.1H204.3z"/>
			<path style="fill:#AFCDFB;" d="M204.3,100.3v-2.1h2.1v2.1H204.3z"/>
			<path style="fill:#AFCDFB;" d="M204.3,96.1V94h2.1v2.1H204.3z"/>
			<path style="fill:#AFCDFB;" d="M204.3,91.9v-2.1h2.1v2.1H204.3z"/>
			<path style="fill:#AFCDFB;" d="M204.3,87.7v-2.1h2.1v2.1H204.3z"/>
			<path style="fill:#AFCDFB;" d="M204.3,83.5v-2.1h2.1v2.1H204.3z"/>
			<path style="fill:#AFCDFB;" d="M204.3,79.3v-2.1h2.1v2.1H204.3z"/>
		</g>
		<g style="opacity:0.5;">
			<path style="fill:#AFCDFB;" d="M198.7,158.9v-2.1h2.1v2.1H198.7z"/>
			<path style="fill:#AFCDFB;" d="M198.7,154.7v-2.1h2.1v2.1H198.7z"/>
			<path style="fill:#AFCDFB;" d="M198.7,150.5v-2.1h2.1v2.1H198.7z"/>
			<path style="fill:#AFCDFB;" d="M198.7,146.3v-2.1h2.1v2.1H198.7z"/>
			<path style="fill:#AFCDFB;" d="M198.7,142.2v-2.1h2.1v2.1H198.7z"/>
			<path style="fill:#AFCDFB;" d="M198.7,138v-2.1h2.1v2.1H198.7z"/>
			<path style="fill:#AFCDFB;" d="M198.7,133.8v-2.1h2.1v2.1H198.7z"/>
			<path style="fill:#AFCDFB;" d="M198.7,129.6v-2.1h2.1v2.1H198.7z"/>
			<path style="fill:#AFCDFB;" d="M198.7,125.4v-2.1h2.1v2.1H198.7z"/>
			<path style="fill:#AFCDFB;" d="M198.7,121.2v-2.1h2.1v2.1H198.7z"/>
			<path style="fill:#AFCDFB;" d="M198.7,117V115h2.1v2.1H198.7z"/>
			<path style="fill:#AFCDFB;" d="M198.7,112.8v-2.1h2.1v2.1H198.7z"/>
			<path style="fill:#AFCDFB;" d="M198.7,108.6v-2.1h2.1v2.1H198.7z"/>
			<path style="fill:#AFCDFB;" d="M198.7,104.5v-2.1h2.1v2.1H198.7z"/>
			<path style="fill:#AFCDFB;" d="M198.7,100.3v-2.1h2.1v2.1H198.7z"/>
			<path style="fill:#AFCDFB;" d="M198.7,96.1V94h2.1v2.1H198.7z"/>
			<path style="fill:#AFCDFB;" d="M198.7,91.9v-2.1h2.1v2.1H198.7z"/>
			<path style="fill:#AFCDFB;" d="M198.7,87.7v-2.1h2.1v2.1H198.7z"/>
			<path style="fill:#AFCDFB;" d="M198.7,83.5v-2.1h2.1v2.1H198.7z"/>
			<path style="fill:#AFCDFB;" d="M198.7,79.3v-2.1h2.1v2.1H198.7z"/>
		</g>
		<g style="opacity:0.5;">
			<path style="fill:#AFCDFB;" d="M191.4,121.2v-2.1h2.1v2.1H191.4z"/>
			<path style="fill:#AFCDFB;" d="M191.4,117V115h2.1v2.1H191.4z"/>
			<path style="fill:#AFCDFB;" d="M191.4,112.8v-2.1h2.1v2.1H191.4z"/>
			<path style="fill:#AFCDFB;" d="M191.4,108.6v-2.1h2.1v2.1H191.4z"/>
			<path style="fill:#AFCDFB;" d="M191.4,104.5v-2.1h2.1v2.1H191.4z"/>
			<path style="fill:#AFCDFB;" d="M191.4,100.3v-2.1h2.1v2.1H191.4z"/>
			<path style="fill:#AFCDFB;" d="M191.4,96.1V94h2.1v2.1H191.4z"/>
			<path style="fill:#AFCDFB;" d="M191.4,91.9v-2.1h2.1v2.1H191.4z"/>
			<path style="fill:#AFCDFB;" d="M191.4,87.7v-2.1h2.1v2.1H191.4z"/>
			<path style="fill:#AFCDFB;" d="M191.4,83.5v-2.1h2.1v2.1H191.4z"/>
			<path style="fill:#AFCDFB;" d="M191.4,79.3v-2.1h2.1v2.1H191.4z"/>
		</g>
	</g>
	<g>
		<g style="opacity:0.5;">
			<path style="fill:#AFCDFB;" d="M513.4,228.1v2.1h-2.1v-2.1H513.4z"/>
			<path style="fill:#AFCDFB;" d="M513.4,232.3v2.1h-2.1v-2.1H513.4z"/>
			<path style="fill:#AFCDFB;" d="M513.4,236.5v2.1h-2.1v-2.1H513.4z"/>
			<path style="fill:#AFCDFB;" d="M513.4,240.7v2.1h-2.1v-2.1H513.4z"/>
			<path style="fill:#AFCDFB;" d="M513.4,244.9v2.1h-2.1v-2.1H513.4z"/>
			<path style="fill:#AFCDFB;" d="M513.4,249.1v2.1h-2.1v-2.1H513.4z"/>
			<path style="fill:#AFCDFB;" d="M513.4,253.3v2.1h-2.1v-2.1H513.4z"/>
			<path style="fill:#AFCDFB;" d="M513.4,257.5v2.1h-2.1v-2.1H513.4z"/>
			<path style="fill:#AFCDFB;" d="M513.4,261.6v2.1h-2.1v-2.1H513.4z"/>
			<path style="fill:#AFCDFB;" d="M513.4,265.8v2.1h-2.1v-2.1H513.4z"/>
			<path style="fill:#AFCDFB;" d="M513.4,270v2.1h-2.1V270H513.4z"/>
			<path style="fill:#AFCDFB;" d="M513.4,274.2v2.1h-2.1v-2.1H513.4z"/>
			<path style="fill:#AFCDFB;" d="M513.4,278.4v2.1h-2.1v-2.1H513.4z"/>
			<path style="fill:#AFCDFB;" d="M513.4,282.6v2.1h-2.1v-2.1H513.4z"/>
			<path style="fill:#AFCDFB;" d="M513.4,286.8v2.1h-2.1v-2.1H513.4z"/>
			<path style="fill:#AFCDFB;" d="M513.4,291v2.1h-2.1V291H513.4z"/>
			<path style="fill:#AFCDFB;" d="M513.4,295.2v2.1h-2.1v-2.1H513.4z"/>
			<path style="fill:#AFCDFB;" d="M513.4,299.3v2.1h-2.1v-2.1H513.4z"/>
		</g>
		<g style="opacity:0.5;">
			<path style="fill:#AFCDFB;" d="M519.9,253.3v2.1h-2.1v-2.1H519.9z"/>
			<path style="fill:#AFCDFB;" d="M519.9,257.5v2.1h-2.1v-2.1H519.9z"/>
			<path style="fill:#AFCDFB;" d="M519.9,261.6v2.1h-2.1v-2.1H519.9z"/>
			<path style="fill:#AFCDFB;" d="M519.9,265.8v2.1h-2.1v-2.1H519.9z"/>
			<path style="fill:#AFCDFB;" d="M519.9,270v2.1h-2.1V270H519.9z"/>
			<path style="fill:#AFCDFB;" d="M519.9,274.2v2.1h-2.1v-2.1H519.9z"/>
			<path style="fill:#AFCDFB;" d="M519.9,278.4v2.1h-2.1v-2.1H519.9z"/>
			<path style="fill:#AFCDFB;" d="M519.9,282.6v2.1h-2.1v-2.1H519.9z"/>
			<path style="fill:#AFCDFB;" d="M519.9,286.8v2.1h-2.1v-2.1H519.9z"/>
			<path style="fill:#AFCDFB;" d="M519.9,291v2.1h-2.1V291H519.9z"/>
			<path style="fill:#AFCDFB;" d="M519.9,295.2v2.1h-2.1v-2.1H519.9z"/>
			<path style="fill:#AFCDFB;" d="M519.9,299.3v2.1h-2.1v-2.1H519.9z"/>
		</g>
		<g style="opacity:0.5;">
			<path style="fill:#AFCDFB;" d="M526.6,228.1v2.1h-2.1v-2.1H526.6z"/>
			<path style="fill:#AFCDFB;" d="M526.6,232.3v2.1h-2.1v-2.1H526.6z"/>
			<path style="fill:#AFCDFB;" d="M526.6,236.5v2.1h-2.1v-2.1H526.6z"/>
			<path style="fill:#AFCDFB;" d="M526.6,240.7v2.1h-2.1v-2.1H526.6z"/>
			<path style="fill:#AFCDFB;" d="M526.6,244.9v2.1h-2.1v-2.1H526.6z"/>
			<path style="fill:#AFCDFB;" d="M526.6,249.1v2.1h-2.1v-2.1H526.6z"/>
			<path style="fill:#AFCDFB;" d="M526.6,253.3v2.1h-2.1v-2.1H526.6z"/>
			<path style="fill:#AFCDFB;" d="M526.6,257.5v2.1h-2.1v-2.1H526.6z"/>
			<path style="fill:#AFCDFB;" d="M526.6,261.6v2.1h-2.1v-2.1H526.6z"/>
			<path style="fill:#AFCDFB;" d="M526.6,265.8v2.1h-2.1v-2.1H526.6z"/>
			<path style="fill:#AFCDFB;" d="M526.6,270v2.1h-2.1V270H526.6z"/>
			<path style="fill:#AFCDFB;" d="M526.6,274.2v2.1h-2.1v-2.1H526.6z"/>
			<path style="fill:#AFCDFB;" d="M526.6,278.4v2.1h-2.1v-2.1H526.6z"/>
			<path style="fill:#AFCDFB;" d="M526.6,282.6v2.1h-2.1v-2.1H526.6z"/>
			<path style="fill:#AFCDFB;" d="M526.6,286.8v2.1h-2.1v-2.1H526.6z"/>
			<path style="fill:#AFCDFB;" d="M526.6,291v2.1h-2.1V291H526.6z"/>
			<path style="fill:#AFCDFB;" d="M526.6,295.2v2.1h-2.1v-2.1H526.6z"/>
			<path style="fill:#AFCDFB;" d="M526.6,299.3v2.1h-2.1v-2.1H526.6z"/>
		</g>
		<g style="opacity:0.5;">
			<path style="fill:#AFCDFB;" d="M532.2,219.8v2.1H530v-2.1H532.2z"/>
			<path style="fill:#AFCDFB;" d="M532.2,223.9v2.1H530v-2.1H532.2z"/>
			<path style="fill:#AFCDFB;" d="M532.2,228.1v2.1H530v-2.1H532.2z"/>
			<path style="fill:#AFCDFB;" d="M532.2,232.3v2.1H530v-2.1H532.2z"/>
			<path style="fill:#AFCDFB;" d="M532.2,236.5v2.1H530v-2.1H532.2z"/>
			<path style="fill:#AFCDFB;" d="M532.2,240.7v2.1H530v-2.1H532.2z"/>
			<path style="fill:#AFCDFB;" d="M532.2,244.9v2.1H530v-2.1H532.2z"/>
			<path style="fill:#AFCDFB;" d="M532.2,249.1v2.1H530v-2.1H532.2z"/>
			<path style="fill:#AFCDFB;" d="M532.2,253.3v2.1H530v-2.1H532.2z"/>
			<path style="fill:#AFCDFB;" d="M532.2,257.5v2.1H530v-2.1H532.2z"/>
			<path style="fill:#AFCDFB;" d="M532.2,261.6v2.1H530v-2.1H532.2z"/>
			<path style="fill:#AFCDFB;" d="M532.2,265.8v2.1H530v-2.1H532.2z"/>
			<path style="fill:#AFCDFB;" d="M532.2,270v2.1H530V270H532.2z"/>
			<path style="fill:#AFCDFB;" d="M532.2,274.2v2.1H530v-2.1H532.2z"/>
			<path style="fill:#AFCDFB;" d="M532.2,278.4v2.1H530v-2.1H532.2z"/>
			<path style="fill:#AFCDFB;" d="M532.2,282.6v2.1H530v-2.1H532.2z"/>
			<path style="fill:#AFCDFB;" d="M532.2,286.8v2.1H530v-2.1H532.2z"/>
			<path style="fill:#AFCDFB;" d="M532.2,291v2.1H530V291H532.2z"/>
			<path style="fill:#AFCDFB;" d="M532.2,295.2v2.1H530v-2.1H532.2z"/>
			<path style="fill:#AFCDFB;" d="M532.2,299.3v2.1H530v-2.1H532.2z"/>
		</g>
		<g style="opacity:0.5;">
			<path style="fill:#AFCDFB;" d="M539.5,257.5v2.1h-2.1v-2.1H539.5z"/>
			<path style="fill:#AFCDFB;" d="M539.5,261.6v2.1h-2.1v-2.1H539.5z"/>
			<path style="fill:#AFCDFB;" d="M539.5,265.8v2.1h-2.1v-2.1H539.5z"/>
			<path style="fill:#AFCDFB;" d="M539.5,270v2.1h-2.1V270H539.5z"/>
			<path style="fill:#AFCDFB;" d="M539.5,274.2v2.1h-2.1v-2.1H539.5z"/>
			<path style="fill:#AFCDFB;" d="M539.5,278.4v2.1h-2.1v-2.1H539.5z"/>
			<path style="fill:#AFCDFB;" d="M539.5,282.6v2.1h-2.1v-2.1H539.5z"/>
			<path style="fill:#AFCDFB;" d="M539.5,286.8v2.1h-2.1v-2.1H539.5z"/>
			<path style="fill:#AFCDFB;" d="M539.5,291v2.1h-2.1V291H539.5z"/>
			<path style="fill:#AFCDFB;" d="M539.5,295.2v2.1h-2.1v-2.1H539.5z"/>
			<path style="fill:#AFCDFB;" d="M539.5,299.3v2.1h-2.1v-2.1H539.5z"/>
		</g>
	</g>
</g>
</svg>
