<svg role="img" width="196" height="137" viewBox="0 0 196 137" fill="none" xmlns="http://www.w3.org/2000/svg">
    <g clip-path="url(#clip0_174_7306)">
        <path d="M188 0.5H8C3.85786 0.5 0.5 3.85786 0.5 8V113C0.5 117.142 3.85786 120.5 8 120.5H188C192.142 120.5 195.5 117.142 195.5 113V8C195.5 3.85786 192.142 0.5 188 0.5Z" stroke="#1E1C1C"/>
        <path d="M19.94 14.5H10.5V23.5H19.94V14.5Z" fill="#A8CFEE"/>
        <path d="M115.54 23.5H42.5303V32.5H115.54V23.5Z" fill="#1E1C1C"/>
        <path d="M178.18 23.5H131.94V32.5H178.18V23.5Z" fill="#1E1C1C"/>
        <path d="M101.18 37.52H42.4697V39.52H101.18V37.52Z" fill="#1E1C1C"/>
        <path d="M168.41 37.52H131.94V39.52H168.41V37.52Z" fill="#1E1C1C"/>
        <path d="M88 120.5C88 124 88.8 136 76 136" stroke="#1E1C1C"/>
        <path d="M108.01 120.5C108.01 124 107.21 136 120.01 136" stroke="#1E1C1C"/>
        <path d="M65.8495 55.52C61.2353 55.52 56.7247 56.8883 52.8881 59.4518C49.0515 62.0154 46.0612 65.659 44.2954 69.922C42.5296 74.185 42.0676 78.8759 42.9678 83.4015C43.868 87.9271 46.09 92.0841 49.3527 95.3468C52.6155 98.6096 56.7725 100.832 61.2981 101.732C65.8237 102.632 70.5145 102.17 74.7775 100.404C79.0405 98.6383 82.6842 95.6481 85.2477 91.8115C87.8113 87.9749 89.1796 83.4643 89.1796 78.85H65.8495V55.52Z" stroke="#1E1C1C" stroke-miterlimit="10"/>
        <path d="M71.5 50.25V73.57H94.82C94.82 67.3852 92.3631 61.4536 87.9897 57.0803C83.6164 52.7069 77.6848 50.25 71.5 50.25Z" fill="#FFCD4E"/>
        <path d="M96.4097 42.72H42.4697V44.72H96.4097V42.72Z" fill="#1E1C1C"/>
        <path d="M29.3496 13.5V110.86" stroke="#1E1C1C" stroke-miterlimit="10"/>
        <path d="M168.41 42.72H131.94V44.72H168.41V42.72Z" fill="#1E1C1C"/>
        <path d="M178.18 57.5699H131.94V66.5699H178.18V57.5699Z" fill="#1E1C1C"/>
        <path d="M168.41 71.59H131.94V73.59H168.41V71.59Z" fill="#1E1C1C"/>
        <path d="M168.41 76.79H131.94V78.79H168.41V76.79Z" fill="#1E1C1C"/>
        <path d="M137.66 102.81C140.819 102.81 143.38 100.249 143.38 97.09C143.38 93.9309 140.819 91.37 137.66 91.37C134.501 91.37 131.94 93.9309 131.94 97.09C131.94 100.249 134.501 102.81 137.66 102.81Z" fill="#A8CFEE"/>
        <path d="M154.81 102.81C157.969 102.81 160.53 100.249 160.53 97.09C160.53 93.9309 157.969 91.37 154.81 91.37C151.651 91.37 149.09 93.9309 149.09 97.09C149.09 100.249 151.651 102.81 154.81 102.81Z" fill="#60E093"/>
        <path d="M172.46 102.81C175.619 102.81 178.18 100.249 178.18 97.09C178.18 93.9309 175.619 91.37 172.46 91.37C169.301 91.37 166.74 93.9309 166.74 97.09C166.74 100.249 169.301 102.81 172.46 102.81Z" fill="#FF5631"/>
    </g>
    <defs>
        <clipPath id="clip0_174_7306">
            <rect width="196" height="136.5" fill="white"/>
        </clipPath>
    </defs>
</svg>
