<svg width="221" height="256" viewBox="0 0 221 256" fill="none" xmlns="http://www.w3.org/2000/svg">
    <path d="M78.3164 251.741C147.352 251.741 203.316 195.553 203.316 126.241C203.316 56.9295 147.352 0.741211 78.3164 0.741211C9.28081 0.741211 -46.6836 56.9295 -46.6836 126.241C-46.6836 195.553 9.28081 251.741 78.3164 251.741Z" fill="#A8CFEE"/>
    <path d="M-28.9855 236.49C-7.48581 236.49 9.94313 219.061 9.94313 197.561C9.94313 176.062 -7.48581 158.633 -28.9855 158.633C-50.4851 158.633 -67.9141 176.062 -67.9141 197.561C-67.9141 219.061 -50.4851 236.49 -28.9855 236.49Z" stroke="#1E1C1C" stroke-miterlimit="10"/>
    <path d="M-28.9848 246.592C-1.90533 246.592 20.0469 224.64 20.0469 197.561C20.0469 170.481 -1.90533 148.529 -28.9848 148.529C-56.0644 148.529 -78.0166 170.481 -78.0166 197.561C-78.0166 224.64 -56.0644 246.592 -28.9848 246.592Z" stroke="#1E1C1C" stroke-miterlimit="10"/>
    <path d="M-28.9851 255.259C2.88094 255.259 28.7134 229.426 28.7134 197.56C28.7134 165.694 2.88094 139.862 -28.9851 139.862C-60.8511 139.862 -86.6836 165.694 -86.6836 197.56C-86.6836 229.426 -60.8511 255.259 -28.9851 255.259Z" stroke="#1E1C1C" stroke-miterlimit="10"/>
    <path d="M171.38 2.74023L183.218 88.6921" stroke="#1E1C1C" stroke-miterlimit="10"/>
    <path d="M134.323 51.6346L220.312 39.7969" stroke="#1E1C1C" stroke-miterlimit="10"/>
    <path d="M142.742 19.5034L211.893 71.9274" stroke="#1E1C1C" stroke-miterlimit="10"/>
    <path d="M151.087 80.3094L203.511 11.1582" stroke="#1E1C1C" stroke-miterlimit="10"/>
    <path d="M188.696 3.84253L165.903 87.5887" stroke="#1E1C1C" stroke-miterlimit="10"/>
    <path d="M135.426 34.3191L219.172 57.1121" stroke="#1E1C1C" stroke-miterlimit="10"/>
    <path d="M155.756 8.0708L198.842 83.3982" stroke="#1E1C1C" stroke-miterlimit="10"/>
    <path d="M139.654 67.2586L214.982 24.1724" stroke="#1E1C1C" stroke-miterlimit="10"/>
</svg>
