<?xml version="1.0" encoding="UTF-8" standalone="no"?>
<!-- Created with Inkscape (http://www.inkscape.org/) -->

<svg
   width="512"
   height="512"
   viewBox="0 0 512 512"
   version="1.1"
   id="svg1"
   inkscape:export-filename="bitmap.svg"
   inkscape:export-xdpi="101.80238"
   inkscape:export-ydpi="101.80238"
   inkscape:version="1.4.2 (ebf0e940, 2025-05-08)"
   sodipodi:docname="logo_01.svg"
   xmlns:inkscape="http://www.inkscape.org/namespaces/inkscape"
   xmlns:sodipodi="http://sodipodi.sourceforge.net/DTD/sodipodi-0.dtd"
   xmlns="http://www.w3.org/2000/svg"
   xmlns:svg="http://www.w3.org/2000/svg">
  <sodipodi:namedview
     id="namedview1"
     pagecolor="#ffffff"
     bordercolor="#000000"
     borderopacity="0.25"
     inkscape:showpageshadow="2"
     inkscape:pageopacity="0.0"
     inkscape:pagecheckerboard="0"
     inkscape:deskcolor="#d1d1d1"
     inkscape:document-units="px"
     inkscape:zoom="1.2565203"
     inkscape:cx="250.69233"
     inkscape:cy="274.56779"
     inkscape:window-width="1440"
     inkscape:window-height="847"
     inkscape:window-x="0"
     inkscape:window-y="25"
     inkscape:window-maximized="1"
     inkscape:current-layer="layer1" />
  <defs
     id="defs1" />
  <g
     inkscape:label="Layer 1"
     inkscape:groupmode="layer"
     id="layer1">
    <path
       d="m 61.930864,268.53952 h 18.860551 v -60.58557 h 13.90834 v -14.962 H 47.969842 v 14.962 h 13.961022 z m 50.561656,1.42244 c 15.2781,0 21.91617,-6.69075 21.91617,-19.70348 v -1.00098 h -17.59616 v 2.31806 c 0,4.47806 -1.79123,6.26929 -4.74148,6.26929 -3.00294,0 -4.84684,-1.84391 -4.84684,-6.69075 v -5.74246 h 27.23716 V 234.6116 c 0,-14.48785 -6.90149,-21.44202 -22.17959,-21.44202 -15.646879,0 -22.653731,7.00685 -22.653731,21.44202 v 13.90834 c 0,14.43517 7.006852,21.44202 22.864471,21.44202 z m -5.26831,-34.19133 v -4.21465 c 0,-4.84684 1.89659,-6.74344 4.95221,-6.74344 2.89757,0 4.79416,1.84391 4.79416,6.74344 v 4.21465 z m 33.33427,32.76889 h 17.43811 v -75.54757 h -17.43811 z m 46.39969,1.42244 c 15.2781,0 21.91617,-6.69075 21.91617,-19.70348 v -1.00098 h -17.59616 v 2.31806 c 0,4.47806 -1.79122,6.26929 -4.74148,6.26929 -3.00293,0 -4.84684,-1.84391 -4.84684,-6.69075 v -5.74246 h 27.23716 V 234.6116 c 0,-14.48785 -6.90148,-21.44202 -22.17958,-21.44202 -15.64689,0 -22.65374,7.00685 -22.65374,21.44202 v 13.90834 c 0,14.43517 7.00685,21.44202 22.86447,21.44202 z m -5.26831,-34.19133 v -4.21465 c 0,-4.84684 1.89659,-6.74344 4.95221,-6.74344 2.89757,0 4.79416,1.84391 4.79416,6.74344 v 4.21465 z m 54.7763,34.19133 c 16.06834,0 22.39032,-6.32197 22.39032,-17.17469 v -0.68488 c 0,-9.43027 -4.3727,-13.80297 -13.32883,-15.85761 l -9.11418,-2.05464 c -3.05562,-0.73757 -4.47806,-2.16001 -4.47806,-4.6888 v -0.52683 c 0,-2.79221 1.63318,-4.3727 4.32001,-4.3727 2.68684,0 4.32002,1.58049 4.32002,4.6888 v 2.21269 h 17.06932 v -1.36976 c 0,-10.80004 -6.05855,-16.91128 -21.07324,-16.91128 -15.5942,0 -21.91617,6.32197 -21.91617,17.12201 v 0.73756 c 0,9.27223 4.3727,13.64493 13.48688,15.64689 l 8.53466,1.89659 c 3.21367,0.73756 4.63611,2.21269 4.63611,4.84684 v 0.47415 c 0,2.89757 -1.58049,4.47806 -4.58343,4.47806 -3.05562,0 -4.74148,-1.63317 -4.74148,-5.21562 v -2.31806 H 214.4973 v 1.47513 c 0,11.48491 6.16393,17.59615 21.96886,17.59615 z m 53.03774,0 c 17.01664,0 24.91911,-7.84978 24.91911,-26.1835 v -6.32197 h -19.17665 v 9.06149 c 0,6.42734 -2.37074,8.79808 -5.84782,8.79808 -3.58246,0 -6.00588,-2.4761 -6.00588,-9.11418 v -31.13571 c 0,-6.37466 2.42342,-8.85076 5.95319,-8.85076 3.4244,0 5.63709,2.31806 5.63709,8.64003 v 8.00783 h 19.12397 v -5.32099 c 0,-18.22836 -7.7971,-25.97277 -24.70837,-25.97277 -17.38543,0 -25.28789,7.95514 -25.28789,27.07911 v 24.23423 c 0,19.12397 7.90246,27.07911 25.39325,27.07911 z m 52.82704,0 c 15.54152,0 22.54837,-7.00685 22.54837,-21.54739 v -13.6976 c 0,-14.54054 -7.00685,-21.54739 -22.54837,-21.54739 -15.48883,0 -22.49568,7.00685 -22.49568,21.54739 v 13.6976 c 0,14.54054 7.00685,21.54739 22.49568,21.54739 z m 0.0527,-12.38053 c -3.00293,0 -4.95221,-1.94927 -4.95221,-6.79612 v -18.43908 c 0,-4.84685 1.94928,-6.79612 4.95221,-6.79612 3.00294,0 4.89953,1.94927 4.89953,6.79612 v 18.43908 c 0,4.84685 -1.89659,6.79612 -4.89953,6.79612 z m 50.87774,12.38053 c 15.54152,0 22.54837,-7.00685 22.54837,-21.54739 v -13.6976 c 0,-14.54054 -7.00685,-21.54739 -22.54837,-21.54739 -15.48883,0 -22.49568,7.00685 -22.49568,21.54739 v 13.6976 c 0,14.54054 7.00685,21.54739 22.49568,21.54739 z m 0.0527,-12.38053 c -3.00293,0 -4.95221,-1.94927 -4.95221,-6.79612 v -18.43908 c 0,-4.84685 1.94928,-6.79612 4.95221,-6.79612 3.00294,0 4.89953,1.94927 4.89953,6.79612 v 18.43908 c 0,4.84685 -1.89659,6.79612 -4.89953,6.79612 z m 28.59279,32.55816 h 17.4381 v -27.97473 c 2.47611,5.42636 6.90149,7.63905 12.85468,7.63905 9.32491,0 14.54054,-5.42635 14.54054,-20.33567 v -15.80493 c 0,-15.01469 -5.26831,-20.33568 -14.54054,-20.33568 -5.95319,0 -10.37857,2.21269 -12.85468,7.63905 v -6.37466 h -17.4381 z m 22.33763,-32.55816 c -3.00293,0 -4.89953,-1.94927 -4.89953,-6.79612 v -18.43908 c 0,-4.84685 1.8966,-6.79612 4.89953,-6.79612 3.00294,0 4.95221,1.94927 4.95221,6.79612 v 18.43908 c 0,4.84685 -1.94927,6.79612 -4.95221,6.79612 z"
       id="text1"
       style="font-weight:bold;font-stretch:semi-condensed;font-size:107.895px;line-height:10;font-family:'PP Neue Corp';-inkscape-font-specification:'PP Neue Corp Bold Semi-Condensed';letter-spacing:0.986849px;fill:#1a1a1a;stroke-width:1.49193;paint-order:markers fill stroke"
       transform="scale(0.98684871,1.0133266)"
       aria-label="TelesCoop "
       sodipodi:nodetypes="cccccccccssccsssccssssscssscccccccssccsssccssssscsssccsssccssssccssssccssssccssssccssssssccssssssssssssssssssssssssssssssssscccssssccccsssssss" />
  </g>
</svg>
