<svg role="img" width="204" height="135" viewBox="0 0 204 135" fill="none" xmlns="http://www.w3.org/2000/svg">
    <g clip-path="url(#clip0_174_7180)">
        <path d="M8.60369 7.40077L0.493371 112.087C0.173428 116.217 3.2619 119.824 7.39166 120.144L186.854 134.047C190.984 134.367 194.591 131.279 194.911 127.149L203.021 22.4628C203.341 18.333 200.253 14.7258 196.123 14.4059L16.6606 0.502483C12.5308 0.18254 8.92363 3.27101 8.60369 7.40077Z" stroke="#1E1C1C"/>
        <path d="M101.218 50.6665L46.442 46.4229C43.7439 46.2139 41.3872 48.2317 41.1782 50.9298L37.089 103.712C36.88 106.41 38.8978 108.766 41.5959 108.975L96.3718 113.219C99.0699 113.428 101.427 111.41 101.636 108.712L105.725 55.9304C105.934 53.2323 103.916 50.8756 101.218 50.6665Z" stroke="#1E1C1C"/>
        <path d="M15.4103 66.8201C17.5531 66.8201 19.2903 65.0829 19.2903 62.9401C19.2903 60.7972 17.5531 59.0601 15.4103 59.0601C13.2674 59.0601 11.5303 60.7972 11.5303 62.9401C11.5303 65.0829 13.2674 66.8201 15.4103 66.8201Z" stroke="#1E1C1C"/>
        <path d="M37.3001 6.94994L192.54 18.9499C194.302 19.1389 195.916 20.0188 197.03 21.3967C198.143 22.7747 198.665 24.538 198.48 26.2999L191.04 122.3C190.952 124.07 190.166 125.734 188.854 126.926C187.542 128.118 185.811 128.741 184.04 128.66L28.7901 116.66C27.0277 116.469 25.413 115.586 24.2997 114.207C23.1863 112.827 22.6651 111.063 22.8501 109.3L30.3001 13.2999C30.3424 12.4232 30.5571 11.5635 30.9318 10.7698C31.3066 9.9761 31.8341 9.26403 32.4841 8.67431C33.1342 8.08458 33.8942 7.62875 34.7205 7.33288C35.5469 7.037 36.4234 6.90687 37.3001 6.94994Z" stroke="#1E1C1C"/>
        <path d="M73.6115 55.0413L51.8268 53.3536C49.1287 53.1445 46.772 55.1623 46.5629 57.8605L46.5622 57.8704C46.3531 60.5685 48.3709 62.9252 51.069 63.1343L72.8538 64.822C75.5519 65.031 77.9086 63.0132 78.1176 60.3151L78.1184 60.3051C78.3274 57.607 76.3096 55.2503 73.6115 55.0413Z" fill="#A8CFEE"/>
        <path d="M89.9663 71.7386L50.4547 68.6776C47.7566 68.4685 45.3999 70.4863 45.1909 73.1844L45.1901 73.1944C44.9811 75.8925 46.9988 78.2492 49.697 78.4582L89.2085 81.5193C91.9066 81.7283 94.2634 79.7105 94.4724 77.0124L94.4732 77.0025C94.6822 74.3043 92.6644 71.9476 89.9663 71.7386Z" fill="#FFCD4E"/>
        <path d="M180.013 114.593L186.257 33.9948C186.466 31.2966 184.448 28.9399 181.75 28.7309L121.182 24.0385C118.484 23.8295 116.127 25.8473 115.918 28.5454L109.674 109.144C109.465 111.842 111.483 114.199 114.181 114.408L174.749 119.1C177.447 119.309 179.804 117.291 180.013 114.593Z" stroke="#1E1C1C"/>
        <path d="M70.6427 93.3274L48.858 91.6397C46.1599 91.4307 43.8032 93.4485 43.5942 96.1466L43.5934 96.1565C43.3844 98.8546 45.4022 101.211 48.1003 101.42L69.885 103.108C72.5831 103.317 74.9398 101.299 75.1488 98.6012L75.1496 98.5913C75.3586 95.8932 73.3408 93.5365 70.6427 93.3274Z" fill="#60E093"/>
        <path d="M36.9805 22.8C41.0705 31.28 43.4905 32.87 44.9805 32.66C50.0305 31.95 45.3405 22.5901 50.2005 26.5001C55.3605 30.6601 56.1505 24.3401 58.6105 24.5001" stroke="#FF5631" stroke-miterlimit="10"/>
        <path d="M62.5857 28.5613L62.4482 30.3359L83.3955 31.9588L83.5329 30.1841L62.5857 28.5613Z" fill="#1E1C1C"/>
        <path d="M62.2908 32.2961L62.1533 34.0708L94.5662 36.5819L94.7037 34.8072L62.2908 32.2961Z" fill="#1E1C1C"/>
        <path d="M167.879 108.518L171.009 68.1187L126.901 64.7015L123.771 105.1L167.879 108.518Z" stroke="#FF5631" stroke-miterlimit="10"/>
        <path d="M129.476 67.685L129.873 62.5603L124.748 62.1633L124.351 67.2879L129.476 67.685Z" fill="#FF5631"/>
        <path d="M173.18 71.0832L173.577 65.9586L168.453 65.5616L168.056 70.6862L173.18 71.0832Z" fill="#FF5631"/>
        <path d="M126.654 107.944L127.051 102.82L121.926 102.423L121.529 107.547L126.654 107.944Z" fill="#FF5631"/>
        <path d="M170.349 111.332L170.746 106.207L165.621 105.81L165.224 110.935L170.349 111.332Z" fill="#FF5631"/>
        <path d="M127.219 39.2672L126.523 48.2404L172.625 51.812L173.32 42.8389L127.219 39.2672Z" fill="#1E1C1C"/>
        <path d="M126.135 53.2384L125.98 55.2324L162.342 58.0494L162.496 56.0554L126.135 53.2384Z" fill="#1E1C1C"/>
    </g>
    <defs>
        <clipPath id="clip0_174_7180">
            <rect width="203.58" height="134.6" fill="white"/>
        </clipPath>
    </defs>
</svg>
