<svg role="img" width="99" height="74" viewBox="0 0 99 74" fill="none" xmlns="http://www.w3.org/2000/svg">
    <path d="M80.8298 1.07312L80.5483 0.844375L80.2435 1.04103C76.1206 3.70096 72.2634 6.69343 68.6721 10.0183C65.0735 13.2175 61.9399 16.7513 59.2723 20.6192L59.2722 20.6192L59.2657 20.6291C56.7222 24.5112 54.7192 28.988 53.2525 34.0544C51.7822 39.0006 51.05 44.4714 51.05 50.4628C51.05 58.3303 52.9153 64.1177 56.7646 67.6921L56.7646 67.6921L56.7711 67.6979C60.7145 71.2334 65.8004 72.9837 71.9839 72.9837C78.0193 72.9837 82.7841 71.4401 86.2095 68.2888C89.6223 65.149 91.3307 61.1784 91.3307 56.4144C91.3307 51.4048 89.7004 47.4834 86.3935 44.7256C83.2336 41.9798 78.8715 40.6386 73.3726 40.6386C72.0744 40.6386 70.8117 40.7129 69.5847 40.8618C69.9089 39.0485 70.399 37.3563 71.0534 35.784C72.4827 32.668 74.4308 29.8762 76.9003 27.4067C79.3853 24.9217 82.2661 22.6294 85.5453 20.5307C88.8247 18.4319 92.5019 16.5271 96.5789 14.8174L97.3486 14.4946L96.7008 13.9683L80.8298 1.07312ZM31.0347 1.07312L30.7531 0.844375L30.4483 1.04103C26.3254 3.70097 22.4682 6.69344 18.8769 10.0183C15.2784 13.2176 12.1447 16.7513 9.47714 20.6192L9.47703 20.6192L9.47052 20.6291C6.92708 24.5112 4.92408 28.988 3.45736 34.0543C1.98706 39.0005 1.25488 44.4714 1.25488 50.4628C1.25488 58.3303 3.12018 64.1177 6.96949 67.6921L6.96944 67.6921L6.97595 67.6979C10.9193 71.2334 16.0053 72.9837 22.1887 72.9837C28.2241 72.9837 32.989 71.4401 36.4144 68.2888C39.8272 65.149 41.5355 61.1784 41.5355 56.4144C41.5355 51.4048 39.9053 47.4835 36.5985 44.7257C33.4385 41.9799 29.0764 40.6386 23.5775 40.6386C22.3511 40.6386 21.0878 40.7162 19.788 40.8709C20.1121 39.0542 20.6027 37.359 21.2582 35.7841C22.6875 32.6681 24.6357 29.8762 27.1052 27.4067C29.5892 24.9227 32.4688 22.6311 35.7465 20.533C39.1625 18.4312 42.8432 16.525 46.7891 14.8151L47.5449 14.4876L46.9056 13.9683L31.0347 1.07312Z" stroke="#C8C7C5"/>
</svg>
