<svg width="104" height="95" viewBox="0 0 104 95" fill="none" xmlns="http://www.w3.org/2000/svg">
    <g clip-path="url(#clip0_174_7200)">
        <path d="M37.6626 80.9371C41.6626 82.7171 71.2526 79.0971 83.8726 50.4271C72.6126 40.0571 69.1226 33.9271 64.0326 21.0671C51.7326 25.8471 44.8026 26.7871 29.0326 26.2471C16.3526 54.9171 33.9226 79.2871 37.6626 80.9371Z" stroke="#1E1C1C" stroke-miterlimit="10"/>
        <path d="M39.8932 75.8971C43.2432 77.3771 67.8132 74.3672 78.3132 50.5172C68.9432 41.9072 66.0432 36.7971 61.8132 26.1071C51.5832 30.1071 45.8132 30.8671 32.6632 30.4171C22.1632 54.2571 36.7732 74.5271 39.8932 75.8971Z" stroke="#1E1C1C" stroke-miterlimit="10"/>
        <path d="M33.9231 78.4771L18.3831 60.9671L0.873047 76.5071L16.4031 94.0172L33.9231 78.4771Z" fill="#A8CFEE"/>
        <path d="M77.0333 14.0171C78.3886 14.0191 79.7139 13.619 80.8417 12.8675C81.9695 12.116 82.849 11.0469 83.369 9.79538C83.889 8.54388 84.0261 7.16631 83.7629 5.83688C83.4998 4.50746 82.8481 3.28593 81.8905 2.32693C80.9329 1.36794 79.7125 0.714553 78.3834 0.449432C77.0544 0.184312 75.6766 0.31939 74.4243 0.837555C73.1721 1.35572 72.1016 2.23369 71.3485 3.36038C70.5954 4.48707 70.1934 5.81186 70.1934 7.16708C70.1934 8.98209 70.9137 10.7229 72.1962 12.0072C73.4786 13.2916 75.2183 14.0145 77.0333 14.0171Z" fill="#FFCD4E"/>
        <path d="M99.3833 64.7872H76.6533C74.8363 64.7872 73.3633 66.2602 73.3633 68.0772V88.7972C73.3633 90.6142 74.8363 92.0872 76.6533 92.0872H99.3833C101.2 92.0872 102.673 90.6142 102.673 88.7972V68.0772C102.673 66.2602 101.2 64.7872 99.3833 64.7872Z" fill="#60E093"/>
        <path d="M82.5332 67.8471V59.3872C82.5332 58.668 82.675 57.9558 82.9506 57.2915C83.2261 56.6272 83.6299 56.0238 84.1389 55.5157C84.6479 55.0076 85.2521 54.6049 85.9169 54.3306C86.5817 54.0563 87.294 53.9158 88.0132 53.9171C89.4639 53.9171 90.8553 54.4934 91.8811 55.5192C92.9069 56.5451 93.4832 57.9364 93.4832 59.3872V67.8471" stroke="#60E093" stroke-width="3" stroke-miterlimit="10"/>
        <path d="M88.0127 77.6971V81.9671" stroke="white" stroke-width="3" stroke-linecap="round" stroke-linejoin="round"/>
        <path d="M88.0127 80.0572C89.6475 80.0572 90.9727 78.7319 90.9727 77.0971C90.9727 75.4624 89.6475 74.1371 88.0127 74.1371C86.378 74.1371 85.0527 75.4624 85.0527 77.0971C85.0527 78.7319 86.378 80.0572 88.0127 80.0572Z" fill="white"/>
        <path d="M13.0029 33.3771C13.6793 33.3771 14.3407 33.1765 14.9031 32.8007C15.4655 32.4249 15.9037 31.8908 16.1626 31.2659C16.4214 30.6409 16.4893 29.9533 16.3573 29.2899C16.2253 28.6265 15.8996 28.0171 15.4213 27.5388C14.943 27.0605 14.3336 26.7348 13.6702 26.6028C13.0068 26.4709 12.3191 26.5386 11.6942 26.7974C11.0693 27.0563 10.5351 27.4946 10.1593 28.0571C9.78351 28.6195 9.58301 29.2807 9.58301 29.9571C9.58301 30.8641 9.94334 31.734 10.5847 32.3754C11.2261 33.0168 12.0959 33.3771 13.0029 33.3771Z" fill="#FF5631"/>
        <path d="M85.2334 5.25714L89.5435 36.6171" stroke="#1E1C1C" stroke-miterlimit="10"/>
        <path d="M71.7129 23.0971L103.073 18.7871" stroke="#1E1C1C" stroke-miterlimit="10"/>
        <path d="M74.7832 11.3771L100.003 30.4971" stroke="#1E1C1C" stroke-miterlimit="10"/>
        <path d="M77.833 33.5471L96.953 8.32715" stroke="#1E1C1C" stroke-miterlimit="10"/>
        <path d="M91.553 5.67712L83.293 36.2171" stroke="#1E1C1C" stroke-miterlimit="10"/>
        <path d="M72.1328 16.7371L102.673 25.0671" stroke="#1E1C1C" stroke-miterlimit="10"/>
        <path d="M79.5332 7.20709L95.2932 34.6771" stroke="#1E1C1C" stroke-miterlimit="10"/>
        <path d="M73.6533 28.7971L101.123 13.0871" stroke="#1E1C1C" stroke-miterlimit="10"/>
    </g>
    <defs>
        <clipPath id="clip0_174_7200">
            <rect width="102.27" height="93.69" fill="white" transform="translate(0.873047 0.327148)"/>
        </clipPath>
    </defs>
</svg>
