<svg role="img" width="202" height="132" viewBox="0 0 202 132" fill="none" xmlns="http://www.w3.org/2000/svg">
    <g clip-path="url(#clip0_174_7282)">
        <path d="M58.7286 76.0434L68.1117 75.481C69.3851 75.4047 70.6367 75.8374 71.5911 76.6838C72.5455 77.5303 73.1246 78.7212 73.2009 79.9946L73.9727 92.8715L54.877 94.016L54.1117 81.249C54.0364 79.9471 54.4799 78.6684 55.3451 77.6927C56.2104 76.7171 57.427 76.1241 58.7286 76.0434Z" fill="#FF5631"/>
        <path d="M187.228 0.527416L7.55004 11.2966C3.41533 11.5445 0.264374 15.0972 0.512194 19.2319L6.79424 124.044C7.04206 128.179 10.5948 131.33 14.7295 131.082L194.407 120.312C198.542 120.065 201.693 116.512 201.445 112.377L195.163 7.56526C194.915 3.43055 191.362 0.279596 187.228 0.527416Z" stroke="#1E1C1C"/>
        <path d="M39.77 32.4413L34.9287 32.7314L35.4085 40.7371L40.2499 40.4469L39.77 32.4413Z" fill="#FFCD4E"/>
        <path d="M173.186 52.8262L109.53 56.6415L110.01 64.6471L173.666 60.8318L173.186 52.8262Z" fill="#1E1C1C"/>
        <path d="M159.802 66.1461L110.281 69.1143L110.388 70.8911L159.909 67.9229L159.802 66.1461Z" fill="#1E1C1C"/>
        <path d="M156.431 70.9794L110.554 73.7291L110.66 75.5059L156.538 72.7562L156.431 70.9794Z" fill="#1E1C1C"/>
        <path d="M44.6138 32.1522L39.7725 32.4424L40.2523 40.448L45.0936 40.1578L44.6138 32.1522Z" fill="#A8CFEE"/>
        <path d="M49.4585 31.8625L44.6172 32.1527L45.097 40.1583L49.9383 39.8682L49.4585 31.8625Z" fill="#60E093"/>
        <path d="M75.9099 31.52L54.9375 32.777L55.044 34.5538L76.0164 33.2968L75.9099 31.52Z" fill="#1E1C1C"/>
        <path d="M87.6119 34.5733L55.1602 36.5183L55.2667 38.2951L87.7184 36.3501L87.6119 34.5733Z" fill="#1E1C1C"/>
        <path d="M100.838 50.2329L36.2139 54.1062L39.2598 104.925L103.884 101.052L100.838 50.2329Z" stroke="#1E1C1C"/>
        <path d="M60.7299 74.24C63.5465 74.24 65.8299 71.9567 65.8299 69.14C65.8299 66.3234 63.5465 64.04 60.7299 64.04C57.9132 64.04 55.6299 66.3234 55.6299 69.14C55.6299 71.9567 57.9132 74.24 60.7299 74.24Z" stroke="#1E1C1C"/>
        <path d="M55.9595 74.79C54.5695 74.87 51.2395 77.12 51.5395 82.15L51.8895 87.95" stroke="#1E1C1C"/>
        <path d="M66.1699 74.18C67.5599 74.1 71.1699 75.93 71.4399 80.95L71.7899 86.76" stroke="#1E1C1C"/>
        <path d="M82.9182 87.8874L45.665 90.1202L46.1383 98.0161L83.3914 95.7832L82.9182 87.8874Z" fill="#60E093"/>
        <path d="M126.871 87.0489L111.419 87.9751L111.648 91.7982L127.1 90.8721L126.871 87.0489Z" fill="#A8CFEE"/>
        <path d="M145.926 85.8607L130.474 86.7869L130.703 90.61L146.155 89.6839L145.926 85.8607Z" fill="#A8CFEE"/>
        <path d="M165.015 84.7406L149.562 85.6667L149.792 89.4899L165.244 88.5637L165.015 84.7406Z" fill="#A8CFEE"/>
        <path d="M184.089 83.5518L168.637 84.4779L168.866 88.301L184.318 87.3749L184.089 83.5518Z" fill="#A8CFEE"/>
        <path d="M156.717 75.7735L110.839 78.5232L110.945 80.3L156.823 77.5503L156.717 75.7735Z" fill="#1E1C1C"/>
        <path d="M14.8204 77.18C16.9633 77.18 18.7004 75.4429 18.7004 73.3C18.7004 71.1572 16.9633 69.42 14.8204 69.42C12.6776 69.42 10.9404 71.1572 10.9404 73.3C10.9404 75.4429 12.6776 77.18 14.8204 77.18Z" stroke="#1E1C1C"/>
        <path d="M28.83 14.86L184.26 5.53996C186.033 5.48608 187.755 6.13842 189.047 7.35355C190.339 8.56869 191.095 10.2472 191.15 12.02L196.92 108.13C197.075 109.896 196.523 111.652 195.385 113.011C194.247 114.37 192.616 115.222 190.85 115.38L35.42 124.71C33.6486 124.759 31.93 124.104 30.6391 122.89C29.3483 121.676 28.5901 120.001 28.53 118.23L22.77 22.12C22.6144 20.3544 23.1648 18.599 24.3006 17.2383C25.4364 15.8776 27.065 15.0224 28.83 14.86Z" stroke="#1E1C1C"/>
    </g>
    <defs>
        <clipPath id="clip0_174_7282">
            <rect width="201.96" height="131.59" fill="white"/>
        </clipPath>
    </defs>
</svg>
