<svg width="196" height="145" viewBox="0 0 196 145" fill="none" xmlns="http://www.w3.org/2000/svg">
    <g clip-path="url(#clip0_174_7326)">
        <path d="M103.09 87.92C106.706 87.922 110.241 86.8515 113.249 84.8441C116.256 82.8367 118.601 79.9824 119.986 76.6424C121.371 73.3023 121.734 69.6265 121.03 66.0799C120.326 62.5332 118.586 59.2751 116.03 56.7176C113.474 54.1601 110.216 52.4181 106.67 51.712C103.124 51.0058 99.448 51.3672 96.1072 52.7505C92.7663 54.1338 89.9108 56.4768 87.9017 59.4831C85.8927 62.4895 84.8203 66.0241 84.8203 69.64C84.8203 74.4864 86.7449 79.1345 90.1709 82.5624C93.5969 85.9903 98.2439 87.9173 103.09 87.92Z" fill="#FFCD4E"/>
        <path d="M188 8.90002H8C3.85786 8.90002 0.5 12.2579 0.5 16.4V121.4C0.5 125.542 3.85786 128.9 8 128.9H188C192.142 128.9 195.5 125.542 195.5 121.4V16.4C195.5 12.2579 192.142 8.90002 188 8.90002Z" stroke="#1E1C1C"/>
        <path d="M88 128.89C88 132.39 88.8 144.39 76 144.39" stroke="#1E1C1C"/>
        <path d="M108.01 128.89C108.01 132.39 107.21 144.39 120.01 144.39" stroke="#1E1C1C"/>
        <path d="M0.499954 76.82C0.499954 76.82 33.16 69.05 37.75 64.11C42.34 59.17 46.46 50.7 57.46 41.53C68.46 32.36 64.93 22.82 64.57 21.76C64.21 20.7 65.99 9.75996 64.22 8.88996C62.45 8.01996 77.63 8.88996 77.63 8.88996C77.63 8.88996 82.22 34.47 80.1 39.05C77.98 43.63 62.8099 48.58 63.8699 55.29C64.9299 62 63.06 78.23 53.05 76.82C43.04 75.41 24.69 77.88 14.46 83.88C4.22996 89.88 0.459961 90.31 0.459961 90.31L0.499954 76.82Z" fill="#60E093"/>
        <path d="M63.6302 49.4C63.6302 49.4 65.9902 74.23 69.7502 77.05C73.5102 79.87 84.8102 90.23 84.8102 93.53C84.8102 96.83 85.7202 105.29 89.5002 107.17C93.2802 109.05 93.2802 118 93.2802 121.29C93.2802 124.58 96.1002 128.89 96.1002 128.89H79.8702C79.8702 128.89 81.0502 113.29 72.5702 105.29C64.0902 97.29 66.4602 98.38 63.6302 90.29C60.8002 82.2 64.3202 75.62 58.5702 72.29C52.8202 68.96 58.5702 60.05 58.5702 60.05L63.6302 49.4Z" fill="#60E093"/>
        <path d="M137.47 10.85C137.47 16.85 130.83 40.44 126.62 40.44C122.41 40.44 115.77 16.84 115.77 10.85C115.77 7.97238 116.913 5.21266 118.947 3.17789C120.982 1.14312 123.742 0 126.62 0C129.497 0 132.257 1.14312 134.292 3.17789C136.326 5.21266 137.47 7.97238 137.47 10.85Z" fill="#FF5631"/>
        <path d="M126.62 16.14C129.812 16.14 132.4 13.5522 132.4 10.36C132.4 7.16775 129.812 4.57996 126.62 4.57996C123.428 4.57996 120.84 7.16775 120.84 10.36C120.84 13.5522 123.428 16.14 126.62 16.14Z" fill="white"/>
        <path d="M72.21 79.06C74.93 72.35 117.1 71.41 120.01 66.23C122.92 61.05 130.91 60.11 134.69 60.58C138.47 61.05 164.01 53.2 169.26 49.4C174.51 45.6 186.92 44.58 189.98 44.58C193.04 44.58 195.5 42.02 195.5 42.02" stroke="#1E1C1C"/>
        <path d="M179.42 56.4401C179.42 64.4401 170.59 95.7701 165 95.7701C159.41 95.7701 150.57 64.4101 150.57 56.4401C150.669 52.6801 152.233 49.1073 154.927 46.4829C157.621 43.8585 161.234 42.3899 164.995 42.3899C168.757 42.3899 172.369 43.8585 175.064 46.4829C177.758 49.1073 179.321 52.6801 179.42 56.4401Z" fill="#A8CFEE"/>
        <path d="M164.99 63.47C169.231 63.47 172.67 60.0315 172.67 55.79C172.67 51.5484 169.231 48.11 164.99 48.11C160.748 48.11 157.31 51.5484 157.31 55.79C157.31 60.0315 160.748 63.47 164.99 63.47Z" fill="white"/>
        <path d="M98.8096 71.65C98.8096 71.65 93.5496 93.54 108 95.77C122.45 98 111.21 108.58 120 110C128.79 111.42 119.78 124.11 127.46 124.82C135.14 125.53 138.08 128.89 138.08 128.89" stroke="#1E1C1C"/>
        <path d="M84.8096 93.5301L100.02 90.3101" stroke="#1E1C1C"/>
        <path d="M88.0098 107.49C88.0098 107.49 103.69 106.41 106.69 104.78C109.69 103.15 116.15 102.62 116.15 102.62" fill="white"/>
        <path d="M88.0098 107.49C88.0098 107.49 103.69 106.41 106.69 104.78C109.69 103.15 116.15 102.62 116.15 102.62" stroke="#1E1C1C"/>
        <path d="M91.5703 121.29C94.2203 119.7 110.67 121.64 114.01 119.7C117.35 117.76 122.1 118.47 122.1 118.47L124.1 118.34" fill="white"/>
        <path d="M91.5703 121.29C94.2203 119.7 110.67 121.64 114.01 119.7C117.35 117.76 122.1 118.47 122.1 118.47L124.1 118.34" stroke="#1E1C1C"/>
        <path d="M140.08 59.77C140.08 59.77 145.86 92.23 150.57 93.53C155.28 94.83 158.46 104.35 159.16 105.05C159.86 105.75 162.34 112.92 167.63 118.34C170.886 121.681 173.951 125.203 176.81 128.89" fill="white"/>
        <path d="M140.08 59.77C140.08 59.77 145.86 92.23 150.57 93.53C155.28 94.83 158.46 104.35 159.16 105.05C159.86 105.75 162.34 112.92 167.63 118.34C170.886 121.681 173.951 125.203 176.81 128.89" stroke="#1E1C1C"/>
        <path d="M80.6904 49.4C83.6607 49.1515 86.613 48.7206 89.5304 48.11C91.9004 47.41 102.11 45.53 102.11 45.53L108.03 70.18" stroke="#1E1C1C"/>
        <path d="M24.1099 71.6501C23.1099 69.9301 19.1098 55.8801 21.4498 45.5301C23.7898 35.1801 26.2098 31.64 21.4498 25.29" fill="white"/>
        <path d="M24.1099 71.6501C23.1099 69.9301 19.1098 55.8801 21.4498 45.5301C23.7898 35.1801 26.2098 31.64 21.4498 25.29" stroke="#1E1C1C"/>
        <path d="M9.28027 42.02C13.8703 42.58 23.1303 38.72 23.1303 38.72C26.2394 38.6474 29.3134 38.0454 32.2203 36.94C36.4603 35.17 45.6303 32.7 47.4003 32.7H54.0103C56.5703 32.7 61.1603 28.47 61.1603 28.47" fill="white"/>
        <path d="M9.28027 42.02C13.8703 42.58 23.1303 38.72 23.1303 38.72C26.2394 38.6474 29.3134 38.0454 32.2203 36.94C36.4603 35.17 45.6303 32.7 47.4003 32.7H54.0103C56.5703 32.7 61.1603 28.47 61.1603 28.47" stroke="#1E1C1C"/>
    </g>
    <defs>
        <clipPath id="clip0_174_7326">
            <rect width="196" height="144.9" fill="white"/>
        </clipPath>
    </defs>
</svg>
