<svg width="84" height="82" viewBox="0 0 84 82" fill="none" xmlns="http://www.w3.org/2000/svg">
    <path d="M54.809 81.1527C66.7799 81.1527 76.4842 71.4484 76.4842 59.4775C76.4842 47.5066 66.7799 37.8023 54.809 37.8023C42.8381 37.8023 33.1338 47.5066 33.1338 59.4775C33.1338 71.4484 42.8381 81.1527 54.809 81.1527Z" fill="#A8CFEE"/>
    <path d="M65.5625 0.828369L69.7857 31.5093" stroke="#1E1C1C" stroke-miterlimit="10"/>
    <path d="M52.333 18.2804L83.0138 14.0572" stroke="#1E1C1C" stroke-miterlimit="10"/>
    <path d="M55.3262 6.8136L80.008 25.5242" stroke="#1E1C1C" stroke-miterlimit="10"/>
    <path d="M58.3193 28.5029L77.0299 3.83514" stroke="#1E1C1C" stroke-miterlimit="10"/>
    <path d="M71.7443 1.23395L63.6055 31.1177" stroke="#1E1C1C" stroke-miterlimit="10"/>
    <path d="M52.7256 12.0996L82.6094 20.2383" stroke="#1E1C1C" stroke-miterlimit="10"/>
    <path d="M59.9824 2.73035L75.3648 29.6076" stroke="#1E1C1C" stroke-miterlimit="10"/>
    <path d="M54.2354 23.86L81.1126 8.4776" stroke="#1E1C1C" stroke-miterlimit="10"/>
    <path d="M25.6522 63.8403C39.2758 63.8403 50.3198 52.7962 50.3198 39.1725C50.3198 25.5489 39.2758 14.5048 25.6522 14.5048C12.0285 14.5048 0.984375 25.5489 0.984375 39.1725C0.984375 52.7962 12.0285 63.8403 25.6522 63.8403Z" stroke="#1E1C1C" stroke-miterlimit="10"/>
</svg>
