<svg width="536" height="113" viewBox="0 0 536 113" fill="none" xmlns="http://www.w3.org/2000/svg">
    <path d="M55.873 82.6519C70.4476 82.6519 82.2627 70.8368 82.2627 56.2622C82.2627 41.6876 70.4476 29.8726 55.873 29.8726C41.2984 29.8726 29.4834 41.6876 29.4834 56.2622C29.4834 70.8368 41.2984 82.6519 55.873 82.6519Z" stroke="#C8C7C5" stroke-miterlimit="10"/>
    <path d="M55.8723 93.5756C76.4795 93.5756 93.1849 76.8701 93.1849 56.2629C93.1849 35.6557 76.4795 18.9502 55.8723 18.9502C35.265 18.9502 18.5596 35.6557 18.5596 56.2629C18.5596 76.8701 35.265 93.5756 55.8723 93.5756Z" stroke="#C8C7C5" stroke-miterlimit="10"/>
    <path d="M55.8725 103.259C81.8279 103.259 102.869 82.218 102.869 56.2626C102.869 30.3071 81.8279 9.26611 55.8725 9.26611C29.917 9.26611 8.87598 30.3071 8.87598 56.2626C8.87598 82.218 29.917 103.259 55.8725 103.259Z" stroke="#C8C7C5" stroke-miterlimit="10"/>
    <path d="M55.8728 111.566C86.4161 111.566 111.176 86.8055 111.176 56.2622C111.176 25.7189 86.4161 0.95874 55.8728 0.95874C25.3295 0.95874 0.569336 25.7189 0.569336 56.2622C0.569336 86.8055 25.3295 111.566 55.8728 111.566Z" stroke="#C8C7C5" stroke-miterlimit="10"/>
    <path d="M196.106 2.89209L210.885 110.195" stroke="#C8C7C5" stroke-miterlimit="10"/>
    <path d="M149.844 63.9318L257.192 49.1536" stroke="#C8C7C5" stroke-miterlimit="10"/>
    <path d="M160.354 23.8196L246.682 89.2658" stroke="#C8C7C5" stroke-miterlimit="10"/>
    <path d="M170.771 99.7297L236.218 13.4011" stroke="#C8C7C5" stroke-miterlimit="10"/>
    <path d="M217.723 4.26831L189.268 108.817" stroke="#C8C7C5" stroke-miterlimit="10"/>
    <path d="M151.22 42.3154L255.769 70.7703" stroke="#C8C7C5" stroke-miterlimit="10"/>
    <path d="M176.6 9.54639L230.389 103.585" stroke="#C8C7C5" stroke-miterlimit="10"/>
    <path d="M156.498 83.4379L250.537 29.6489" stroke="#C8C7C5" stroke-miterlimit="10"/>
    <path d="M474.345 2.89209L489.123 110.195" stroke="#C8C7C5" stroke-miterlimit="10"/>
    <path d="M428.082 63.9318L535.431 49.1536" stroke="#C8C7C5" stroke-miterlimit="10"/>
    <path d="M438.592 23.8196L524.92 89.2658" stroke="#C8C7C5" stroke-miterlimit="10"/>
    <path d="M449.01 99.7297L514.456 13.4011" stroke="#C8C7C5" stroke-miterlimit="10"/>
    <path d="M495.961 4.26831L467.506 108.817" stroke="#C8C7C5" stroke-miterlimit="10"/>
    <path d="M429.458 42.3154L534.007 70.7703" stroke="#C8C7C5" stroke-miterlimit="10"/>
    <path d="M454.838 9.54639L508.627 103.585" stroke="#C8C7C5" stroke-miterlimit="10"/>
    <path d="M434.736 83.4379L528.775 29.6489" stroke="#C8C7C5" stroke-miterlimit="10"/>
    <path d="M348.578 109.227C377.408 109.227 400.78 85.856 400.78 57.026C400.78 28.196 377.408 4.82471 348.578 4.82471C319.748 4.82471 296.377 28.196 296.377 57.026C296.377 85.856 319.748 109.227 348.578 109.227Z" stroke="#C8C7C5" stroke-miterlimit="10"/>
    <path d="M303.112 82.2846L306.48 25.0315" stroke="#C8C7C5" stroke-miterlimit="10"/>
    <path d="M306.481 87.3364L333.424 6.50854" stroke="#C8C7C5" stroke-miterlimit="10"/>
    <path d="M308.164 90.7042L363.733 6.50854" stroke="#C8C7C5" stroke-miterlimit="10"/>
    <path d="M311.532 94.0727L385.624 19.9805" stroke="#C8C7C5" stroke-miterlimit="10"/>
    <path d="M313.217 95.7556L399.096 41.8704" stroke="#C8C7C5" stroke-miterlimit="10"/>
    <path d="M316.584 97.4401L399.096 72.1814" stroke="#C8C7C5" stroke-miterlimit="10"/>
    <path d="M321.636 100.807L380.573 97.4395" stroke="#C8C7C5" stroke-miterlimit="10"/>
</svg>
