<svg width="367" height="273" viewBox="0 0 367 273" fill="none" xmlns="http://www.w3.org/2000/svg">
    <path d="M89.7513 186.114C74.4062 186.114 61.9669 173.675 61.9669 158.33C61.9669 142.984 74.4062 130.545 89.7513 130.545C105.096 130.545 117.536 142.984 117.536 158.33C117.536 173.675 105.096 186.114 89.7513 186.114Z" fill="#FF5631"/>
    <path d="M273.578 156.467L310.104 119.941L346.631 156.467L310.104 192.993L273.578 156.467Z" fill="#60E093"/>
    <path d="M352.444 235.836L367 258.281L344.555 272.838L329.999 250.393L352.444 235.836Z" fill="#005281"/>
    <path d="M196.076 248.185C152.582 248.185 117.322 212.926 117.322 169.432C117.322 125.938 152.582 90.6786 196.076 90.6786C239.57 90.6786 274.829 125.938 274.829 169.432C274.829 212.926 239.57 248.185 196.076 248.185Z" stroke="#1E1C1C" stroke-miterlimit="10"/>
    <path d="M48.5108 268.392C22.4491 268.392 1.32177 247.265 1.32177 221.203C1.32177 195.142 22.4491 174.014 48.5108 174.014C74.5725 174.014 95.6992 195.142 95.6992 221.203C95.6992 247.265 74.5725 268.392 48.5108 268.392Z" stroke="#1E1C1C" stroke-miterlimit="10"/>
    <path d="M147.97 99.0991C120.849 99.0991 98.8633 77.1134 98.8633 49.9927C98.8633 22.8719 120.849 0.88623 147.97 0.88623C175.09 0.88623 197.076 22.8719 197.076 49.9927C197.076 77.1134 175.09 99.0991 147.97 99.0991Z" fill="#FFCD4E"/>
    <path d="M115.271 90.6786L109.104 135.549" stroke="#1E1C1C" stroke-miterlimit="10"/>
    <path d="M134.622 116.197L89.751 110.031" stroke="#1E1C1C" stroke-miterlimit="10"/>
    <path d="M130.227 99.4375L94.1464 126.79" stroke="#1E1C1C" stroke-miterlimit="10"/>
    <path d="M125.863 131.154L98.5106 95.0743" stroke="#1E1C1C" stroke-miterlimit="10"/>
    <path d="M106.226 91.2792L118.115 134.98" stroke="#1E1C1C" stroke-miterlimit="10"/>
    <path d="M134.021 107.153L90.3198 119.074" stroke="#1E1C1C" stroke-miterlimit="10"/>
    <path d="M123.428 93.4615L100.945 132.767" stroke="#1E1C1C" stroke-miterlimit="10"/>
    <path d="M131.84 124.356L92.5342 101.873" stroke="#1E1C1C" stroke-miterlimit="10"/>
    <path d="M297.214 256.133C282.766 256.133 271.053 244.421 271.053 229.972C271.053 215.524 282.766 203.811 297.214 203.811C311.662 203.811 323.375 215.524 323.375 229.972C323.375 244.421 311.662 256.133 297.214 256.133Z" stroke="#1E1C1C" stroke-miterlimit="10"/>
    <path d="M297.214 268.747C275.8 268.747 258.439 251.387 258.439 229.972C258.439 208.557 275.8 191.197 297.214 191.197C318.629 191.197 335.989 208.557 335.989 229.972C335.989 251.387 318.629 268.747 297.214 268.747Z" stroke="#1E1C1C" stroke-miterlimit="10"/>
</svg>
