<svg width="92" height="92" viewBox="0 0 92 92" fill="none" xmlns="http://www.w3.org/2000/svg">
    <path d="M46.1261 67.1915C57.9502 67.1915 67.5354 57.6062 67.5354 45.7821C67.5354 33.9581 57.9502 24.3728 46.1261 24.3728C34.3021 24.3728 24.7168 33.9581 24.7168 45.7821C24.7168 57.6062 34.3021 67.1915 46.1261 67.1915Z" stroke="#C8C7C5" stroke-miterlimit="10"/>
    <path d="M46.1254 76.0535C62.8436 76.0535 76.3964 62.5007 76.3964 45.7825C76.3964 29.0644 62.8436 15.5116 46.1254 15.5116C29.4073 15.5116 15.8545 29.0644 15.8545 45.7825C15.8545 62.5007 29.4073 76.0535 46.1254 76.0535Z" stroke="#C8C7C5" stroke-miterlimit="10"/>
    <path d="M46.1262 83.9093C67.1833 83.9093 84.2534 66.8392 84.2534 45.7821C84.2534 24.725 67.1833 7.65491 46.1262 7.65491C25.0691 7.65491 7.99902 24.725 7.99902 45.7821C7.99902 66.8392 25.0691 83.9093 46.1262 83.9093Z" stroke="#C8C7C5" stroke-miterlimit="10"/>
    <path d="M46.1262 90.6484C70.9053 90.6484 90.9927 70.5611 90.9927 45.782C90.9927 21.0029 70.9053 0.915527 46.1262 0.915527C21.3471 0.915527 1.25977 21.0029 1.25977 45.782C1.25977 70.5611 21.3471 90.6484 46.1262 90.6484Z" stroke="#C8C7C5" stroke-miterlimit="10"/>
</svg>
