<svg role="img" width="71" height="79" viewBox="0 0 71 79" fill="none" xmlns="http://www.w3.org/2000/svg">
    <g clip-path="url(#clip0_306_814)">
        <path d="M64.9439 7.83997H61.03V12.0772C61.03 12.4528 60.8822 12.8129 60.6193 13.0785C60.3564 13.3441 60 13.4933 59.6282 13.4933H56.5889C56.2171 13.4933 55.8607 13.3441 55.5978 13.0785C55.3349 12.8129 55.1871 12.4528 55.1871 12.0772V7.83997H50.3761V12.0772C50.3761 12.2641 50.3394 12.4491 50.2682 12.6217C50.1971 12.7943 50.0929 12.9509 49.9616 13.0826C49.8302 13.2142 49.6743 13.3183 49.503 13.3888C49.3316 13.4593 49.1481 13.4948 48.963 13.4933H45.9911C45.8061 13.4948 45.6226 13.4593 45.4512 13.3888C45.2798 13.3183 45.124 13.2142 44.9926 13.0826C44.8612 12.9509 44.757 12.7943 44.6858 12.6217C44.6147 12.4491 44.5781 12.2641 44.5781 12.0772V7.83997H26.4776V12.0772C26.4776 12.4528 26.3299 12.8129 26.067 13.0785C25.8042 13.3441 25.4476 13.4933 25.0758 13.4933H22.0366C21.6649 13.4933 21.3083 13.3441 21.0454 13.0785C20.7825 12.8129 20.6348 12.4528 20.6348 12.0772V7.83997H15.8237V12.0772C15.8237 12.4528 15.676 12.8129 15.4131 13.0785C15.1502 13.3441 14.7936 13.4933 14.4218 13.4933H11.3827C11.0099 13.4933 10.6521 13.3445 10.3875 13.0793C10.1228 12.814 9.97262 12.4538 9.96966 12.0772V7.83997H6.05576C4.59834 7.83997 3.2006 8.42485 2.17005 9.46595C1.13951 10.507 0.560547 11.919 0.560547 13.3913V72.8821C0.560547 74.3544 1.13951 75.7665 2.17005 76.8076C3.2006 77.8487 4.59834 78.4335 6.05576 78.4335H64.9439C65.6656 78.4335 66.3801 78.29 67.0468 78.011C67.7135 77.732 68.3194 77.3231 68.8296 76.8076C69.3399 76.2921 69.7446 75.6801 70.0208 75.0066C70.2969 74.333 70.4391 73.6111 70.4391 72.8821V13.3913C70.4391 11.919 69.8602 10.507 68.8296 9.46595C67.7991 8.42485 66.4013 7.83997 64.9439 7.83997Z" stroke="#C8C7C5" stroke-miterlimit="10"/>
        <path d="M15.8237 7.83997V1.99395C15.8238 1.61731 15.6765 1.25598 15.4139 0.988593C15.1513 0.721207 14.7947 0.569426 14.4219 0.566437H11.3828C11.0089 0.569399 10.6512 0.720762 10.3869 0.987832C10.1225 1.2549 9.97266 1.61627 9.96973 1.99395V7.83997" stroke="#C8C7C5" stroke-miterlimit="10"/>
        <path d="M9.96973 7.83997V12.0772C9.97269 12.4538 10.1229 12.814 10.3875 13.0793C10.6522 13.3445 11.01 13.4933 11.3828 13.4933H14.4219C14.7937 13.4933 15.1503 13.3441 15.4132 13.0785C15.6761 12.8129 15.8237 12.4528 15.8237 12.0772V7.83997" stroke="#C8C7C5" stroke-miterlimit="10"/>
        <path d="M26.4776 7.83997V1.99395C26.4776 1.61731 26.3303 1.25598 26.0677 0.988593C25.8051 0.721207 25.4485 0.569426 25.0757 0.566437H22.0366C21.6638 0.569426 21.3072 0.721207 21.0446 0.988593C20.7821 1.25598 20.6348 1.61731 20.6348 1.99395V7.83997" stroke="#C8C7C5" stroke-miterlimit="10"/>
        <path d="M20.6348 7.83997V12.0772C20.6348 12.4528 20.7824 12.8129 21.0453 13.0785C21.3082 13.3441 21.6648 13.4933 22.0366 13.4933H25.0757C25.4475 13.4933 25.8041 13.3441 26.067 13.0785C26.3299 12.8129 26.4776 12.4528 26.4776 12.0772V7.83997" stroke="#C8C7C5" stroke-miterlimit="10"/>
        <path d="M50.3762 7.83997V1.99395C50.3762 1.61536 50.2272 1.25229 49.9622 0.984582C49.6972 0.716873 49.3379 0.566437 48.9631 0.566437H45.9912C45.6164 0.566437 45.257 0.716873 44.992 0.984582C44.727 1.25229 44.5781 1.61536 44.5781 1.99395V7.83997" stroke="#C8C7C5" stroke-miterlimit="10"/>
        <path d="M44.5225 7.83997V12.0772C44.5225 12.2641 44.5592 12.4491 44.6303 12.6217C44.7015 12.7943 44.8058 12.9509 44.9371 13.0826C45.0685 13.2142 45.2244 13.3183 45.3957 13.3888C45.5671 13.4593 45.7505 13.4948 45.9355 13.4933H48.9636C49.1486 13.4948 49.3321 13.4593 49.5035 13.3888C49.6749 13.3183 49.8307 13.2142 49.9621 13.0826C50.0935 12.9509 50.1976 12.7943 50.2687 12.6217C50.3399 12.4491 50.3766 12.2641 50.3766 12.0772V7.83997" stroke="#C8C7C5" stroke-miterlimit="10"/>
        <path d="M61.0304 7.83997V1.99395C61.0304 1.61731 60.8831 1.25598 60.6206 0.988593C60.358 0.721207 60.0014 0.569426 59.6286 0.566437H56.5893C56.2165 0.569426 55.8601 0.721207 55.5975 0.988593C55.3349 1.25598 55.1875 1.61731 55.1875 1.99395V7.83997" stroke="#C8C7C5" stroke-miterlimit="10"/>
        <path d="M0.560547 18.2177H70.4391" stroke="#C8C7C5" stroke-miterlimit="10"/>
        <path d="M26.377 46.4846C26.8989 46.8796 27.3279 47.3864 27.633 47.9687C27.9134 48.5346 28.0557 49.16 28.0479 49.7927C28.0549 50.5057 27.8688 51.207 27.5096 51.8208C27.1158 52.4779 26.5273 52.9932 25.8274 53.2936C25.0271 53.6555 24.1585 53.8372 23.2817 53.826C22.4122 53.8371 21.5508 53.6554 20.7584 53.2936C20.0684 52.9866 19.4889 52.4724 19.0987 51.8208C18.7662 51.2381 18.5819 50.5812 18.5623 49.909C18.5427 49.2368 18.6885 48.5701 18.9865 47.9687C19.2882 47.384 19.7177 46.8765 20.2426 46.4846C19.7771 46.0768 19.396 45.5801 19.1211 45.0231C18.8724 44.5199 18.7419 43.9655 18.7397 43.403C18.7358 42.8554 18.8479 42.3134 19.0684 41.8131C19.2889 41.3129 19.6127 40.866 20.0182 40.5026C20.9277 39.7123 22.0876 39.2776 23.2873 39.2776C24.487 39.2776 25.6469 39.7123 26.5564 40.5026C26.9581 40.8685 27.2786 41.316 27.4971 41.8159C27.7155 42.3158 27.8268 42.8566 27.8237 43.403C27.8263 43.9684 27.6996 44.5266 27.4535 45.0344C27.195 45.5861 26.8288 46.0794 26.377 46.4846ZM25.8723 49.8834C25.8666 49.5829 25.7976 49.287 25.67 49.0155C25.5424 48.744 25.359 48.503 25.1321 48.3086C24.6289 47.8555 23.9783 47.6051 23.3041 47.6051C22.63 47.6051 21.9794 47.8555 21.4762 48.3086C21.247 48.506 21.0624 48.7507 20.9347 49.0263C20.807 49.3018 20.7392 49.6019 20.7359 49.9061C20.7415 50.1414 20.8024 50.3719 20.9135 50.5788C21.0247 50.7856 21.183 50.9628 21.3753 51.0957C21.9663 51.4301 22.6323 51.6057 23.3098 51.6057C23.9872 51.6057 24.6532 51.4301 25.2443 51.0957C25.432 50.959 25.5862 50.7808 25.6951 50.5746C25.8039 50.3683 25.8646 50.1397 25.8723 49.9061V49.8834ZM25.6143 43.4143C25.6181 43.1512 25.5637 42.8906 25.4551 42.6515C25.3464 42.4124 25.1863 42.2008 24.9863 42.0321C24.4996 41.6679 23.9099 41.4713 23.3041 41.4713C22.6984 41.4713 22.1087 41.6679 21.6219 42.0321C21.4206 42.2002 21.2587 42.4114 21.1481 42.6505C21.0376 42.8895 20.981 43.1504 20.9826 43.4143C20.9801 43.6816 21.0361 43.9462 21.1466 44.189C21.2572 44.4319 21.4195 44.6471 21.6219 44.8192C22.1114 45.1767 22.7001 45.3692 23.3041 45.3692C23.9082 45.3692 24.4969 45.1767 24.9863 44.8192C25.1845 44.649 25.3433 44.4371 25.4518 44.1983C25.5603 43.9595 25.6157 43.6997 25.6143 43.437V43.4143Z" fill="#C8C7C5"/>
        <path d="M39.2625 45.3516V47.7648C39.2544 49.2223 38.83 50.6464 38.0401 51.866C37.6835 52.4814 37.1692 52.9882 36.5515 53.3331C35.9337 53.678 35.2354 53.8483 34.5299 53.826C33.7411 53.858 32.9605 53.653 32.287 53.2369C31.5397 52.6821 30.9483 51.9402 30.5711 51.0843C30.0381 50.0608 29.7609 48.9212 29.7637 47.7648V45.3516C29.7728 43.8959 30.1929 42.4731 30.9748 41.2504C31.3272 40.633 31.8387 40.1236 32.4548 39.7765C33.0709 39.4294 33.7687 39.2575 34.4738 39.2791C35.261 39.249 36.0399 39.4497 36.7167 39.8569C37.4622 40.4165 38.0563 41.1567 38.4438 42.0094C38.9869 43.0376 39.2683 44.1862 39.2625 45.3516ZM37.0195 45.3516C37.0459 44.2272 36.6984 43.1262 36.0326 42.2247C35.8497 41.9789 35.6099 41.7823 35.3342 41.6519C35.0585 41.5216 34.7553 41.4615 34.4513 41.477C34.1388 41.4723 33.8298 41.5441 33.5506 41.6861C33.2713 41.8282 33.0302 42.0362 32.8477 42.2927C32.1966 43.174 31.8605 44.2524 31.8945 45.3516V47.7648C31.874 48.8902 32.2251 49.9904 32.8925 50.8917C33.078 51.1339 33.3187 51.3273 33.594 51.4555C33.8692 51.5837 34.171 51.6429 34.4738 51.6281C34.7864 51.6327 35.0955 51.5609 35.3747 51.4189C35.6539 51.2769 35.8951 51.0688 36.0776 50.8124C36.7247 49.9339 37.0569 48.8592 37.0195 47.7648V45.3516Z" fill="#C8C7C5"/>
        <path d="M51.7895 46.1107L43.771 48.7391C43.6293 48.787 43.4824 48.8174 43.3336 48.8298C43.2523 48.8284 43.1721 48.8094 43.0986 48.7743C43.0252 48.7391 42.96 48.6885 42.9074 48.6259C42.8425 48.5588 42.7921 48.4789 42.7593 48.3911C42.7265 48.3034 42.7119 48.2097 42.7167 48.116C42.7122 47.9663 42.7643 47.8205 42.8625 47.7082C43.0015 47.5767 43.1714 47.4832 43.356 47.4363L51.3745 44.8079C51.5165 44.761 51.6631 44.7306 51.8118 44.7172C51.895 44.717 51.9773 44.7352 52.0529 44.7704C52.1284 44.8056 52.1953 44.8571 52.2492 44.9211C52.3713 45.0579 52.4393 45.2354 52.4399 45.4196C52.4374 45.5716 52.3863 45.7187 52.2941 45.8388C52.1519 45.972 51.9781 46.0657 51.7895 46.1107ZM49.2213 42.8366C49.2227 43.2437 49.1446 43.6471 48.9914 44.0236C48.8382 44.4002 48.613 44.7425 48.3285 45.0309C48.0441 45.3193 47.706 45.5481 47.3339 45.7043C46.9617 45.8604 46.5627 45.9408 46.1597 45.9408C45.7552 45.946 45.354 45.8684 44.98 45.7126C44.6061 45.5568 44.2672 45.3261 43.984 45.0344C43.692 44.7507 43.4616 44.4089 43.3071 44.0306C43.1527 43.6522 43.0777 43.2457 43.0869 42.8366C43.088 42.2241 43.2683 41.6256 43.6053 41.1165C43.9423 40.6074 44.421 40.2103 44.9809 39.9754C45.5407 39.7404 46.1569 39.678 46.7518 39.796C47.3467 39.914 47.8937 40.2072 48.324 40.6387C48.616 40.9223 48.8466 41.2642 49.001 41.6425C49.1554 42.0208 49.2304 42.4274 49.2213 42.8366ZM47.8866 42.8366C47.8908 42.6068 47.8482 42.3785 47.7614 42.1661C47.6746 41.9537 47.5454 41.7615 47.382 41.6016C47.2226 41.4382 47.0321 41.3088 46.8221 41.2212C46.6121 41.1336 46.3869 41.0896 46.1597 41.0918C45.8178 41.0913 45.4834 41.1934 45.1989 41.3851C44.9145 41.5767 44.6927 41.8494 44.5618 42.1685C44.4309 42.4876 44.3967 42.8388 44.4635 43.1775C44.5304 43.5163 44.6953 43.8274 44.9373 44.0714C45.0955 44.2375 45.2853 44.3693 45.4955 44.4589C45.7056 44.5485 45.9316 44.594 46.1597 44.5926C46.3876 44.5927 46.6131 44.5466 46.8231 44.4571C47.033 44.3676 47.2231 44.2364 47.382 44.0714C47.5454 43.9115 47.6746 43.7194 47.7614 43.507C47.8482 43.2945 47.8908 43.0664 47.8866 42.8366ZM51.98 50.7672C51.9767 51.38 51.794 51.9782 51.4547 52.4863C51.1155 52.9944 50.6349 53.3896 50.0736 53.6222C49.5123 53.8548 48.8955 53.9144 48.3008 53.7934C47.706 53.6724 47.16 53.3763 46.7316 52.9424C46.4408 52.6626 46.2109 52.3247 46.0565 51.9502C45.902 51.5757 45.8263 51.1728 45.8344 50.7672C45.8344 49.9428 46.1577 49.152 46.7337 48.5681C47.3096 47.9841 48.0912 47.6546 48.9072 47.6516C49.3121 47.6501 49.7133 47.7297 50.0875 47.8858C50.4618 48.042 50.8015 48.2716 51.0873 48.5614C51.3731 48.8511 51.5991 49.1953 51.7524 49.5739C51.9056 49.9525 51.983 50.3581 51.98 50.7672ZM50.6343 50.7672C50.6343 50.3044 50.4524 49.8606 50.1285 49.5334C49.8046 49.2062 49.3653 49.0224 48.9072 49.0224C48.4492 49.0224 48.01 49.2062 47.6861 49.5334C47.3622 49.8606 47.1803 50.3044 47.1803 50.7672C47.177 50.9951 47.2201 51.2213 47.3069 51.4318C47.3937 51.6423 47.5223 51.8325 47.6849 51.9907C47.8439 52.1547 48.0343 52.2844 48.2444 52.372C48.4545 52.4597 48.6799 52.5034 48.9072 52.5005C49.1344 52.5027 49.3598 52.4587 49.5698 52.3711C49.7798 52.2836 49.9701 52.1542 50.1296 51.9907C50.2964 51.8286 50.4276 51.6329 50.5145 51.4162C50.6015 51.1995 50.6423 50.9668 50.6343 50.7331V50.7672Z" fill="#C8C7C5"/>
    </g>
    <defs>
        <clipPath id="clip0_306_814">
            <rect width="71" height="79" fill="white"/>
        </clipPath>
    </defs>
</svg>
