<svg role="img" width="80" height="91" viewBox="0 0 80 91" fill="none" xmlns="http://www.w3.org/2000/svg">
    <g clip-path="url(#clip0_306_697)">
        <path d="M8.93207 47.6658V87.8958C8.93207 88.5111 9.17655 89.1012 9.61163 89.5363C10.0467 89.9713 10.6368 90.2158 11.2521 90.2158H68.8321C69.4474 90.2158 70.0375 89.9713 70.4726 89.5363C70.9077 89.1012 71.152 88.5111 71.152 87.8958V47.6658C71.152 47.0505 71.3965 46.4604 71.8316 46.0253C72.2667 45.5902 72.8568 45.3458 73.4721 45.3458H74.412C75.2708 45.3462 76.1104 45.092 76.8245 44.6151C77.5387 44.1383 78.0952 43.4602 78.4239 42.6669C78.7526 41.8736 78.8385 41.0006 78.6708 40.1584C78.5032 39.3163 78.0895 38.5428 77.4821 37.9358L41.662 2.12579C41.4482 1.90961 41.1935 1.73797 40.9129 1.62085C40.6323 1.50372 40.3311 1.44342 40.027 1.44342C39.7229 1.44342 39.4219 1.50372 39.1413 1.62085C38.8607 1.73797 38.606 1.90961 38.3922 2.12579L2.32208 38.1958C1.72975 38.7823 1.3263 39.5324 1.16351 40.3499C1.00073 41.1673 1.08601 42.0148 1.40851 42.7834C1.731 43.5521 2.27597 44.2067 2.97333 44.6633C3.67069 45.1199 4.48863 45.3575 5.32208 45.3458H6.62213C7.2357 45.3484 7.82324 45.594 8.25616 46.0288C8.68909 46.4636 8.93207 47.0522 8.93207 47.6658Z" stroke="#C8C7C5" stroke-miterlimit="10"/>
        <path d="M17.6826 69.1858H61.7226" stroke="#C8C7C5" stroke-miterlimit="10"/>
        <path d="M23.1826 69.1858V55.8658H42.6226V69.1858" stroke="#C8C7C5" stroke-miterlimit="10"/>
        <path d="M32.9018 52.0858C34.9839 52.0858 36.6718 49.986 36.6718 47.3958C36.6718 44.8056 34.9839 42.7058 32.9018 42.7058C30.8197 42.7058 29.1318 44.8056 29.1318 47.3958C29.1318 49.986 30.8197 52.0858 32.9018 52.0858Z" stroke="#C8C7C5" stroke-miterlimit="10"/>
        <path d="M30.4219 43.8658C31.4219 45.4358 33.742 46.9658 35.142 46.5858L36.5419 46.2058" stroke="#C8C7C5" stroke-miterlimit="10"/>
        <path d="M31.7019 52.0858C31.9219 54.0858 31.7019 55.8658 30.4219 55.8658" stroke="#C8C7C5" stroke-miterlimit="10"/>
        <path d="M34.2023 52.0858C33.9823 54.0858 34.2523 55.8658 35.4823 55.8658" stroke="#C8C7C5" stroke-miterlimit="10"/>
        <path d="M38.8326 10.3558L9.23259 38.9558C9.07786 39.1097 8.97241 39.3061 8.92961 39.52C8.8868 39.734 8.90849 39.9558 8.99211 40.1573C9.07572 40.3589 9.21739 40.531 9.39909 40.6518C9.58079 40.7726 9.79442 40.8367 10.0126 40.8358H12.3626C12.9161 40.8384 13.4462 41.0595 13.8376 41.4509C14.2289 41.8422 14.4499 42.3723 14.4526 42.9258V82.3258C14.4512 82.5499 14.4943 82.772 14.5791 82.9794C14.664 83.1868 14.7889 83.3754 14.9469 83.5344C15.1049 83.6933 15.2928 83.8194 15.4997 83.9054C15.7066 83.9915 15.9284 84.0358 16.1525 84.0358H63.9225C64.1466 84.0358 64.3686 83.9915 64.5755 83.9054C64.7824 83.8194 64.9702 83.6933 65.1282 83.5344C65.2862 83.3754 65.4112 83.1868 65.496 82.9794C65.5809 82.772 65.6239 82.5499 65.6226 82.3258V42.9258C65.6252 42.3706 65.8476 41.839 66.2411 41.4473C66.6347 41.0557 67.1673 40.8358 67.7226 40.8358H70.0625C70.2719 40.8276 70.4746 40.7597 70.6468 40.6403C70.8189 40.5208 70.9533 40.3545 71.0342 40.1612C71.1151 39.968 71.139 39.7556 71.1033 39.5491C71.0676 39.3427 70.9737 39.1507 70.8326 38.9958L41.2326 10.3958C40.9193 10.0729 40.4907 9.88731 40.0408 9.87981C39.5909 9.87232 39.1565 10.0435 38.8326 10.3558Z" stroke="#C8C7C5" stroke-miterlimit="10"/>
        <path d="M66.9122 27.3358V12.1458C66.9122 10.8409 66.3939 9.58949 65.4712 8.66681C64.5485 7.74413 63.2972 7.22577 61.9923 7.22577C60.6874 7.22577 59.436 7.74413 58.5133 8.66681C57.5906 9.58949 57.0723 10.8409 57.0723 12.1458V12.2358" stroke="#C8C7C5" stroke-miterlimit="10"/>
    </g>
    <defs>
        <clipPath id="clip0_306_697">
            <rect width="78.68" height="89.77" fill="white" transform="translate(0.612305 0.945801)"/>
        </clipPath>
    </defs>
</svg>
