<svg xmlns="http://www.w3.org/2000/svg" viewBox="0 0 29.5 24.67"><title>Fichier 4</title><g id="Calque_2" data-name="Calque 2"><g id="development"><path d="M29.26,24.67H.24A.24.24,0,0,1,0,24.43V.24A.24.24,0,0,1,.24,0h29a.24.24,0,0,1,.24.24V24.43A.24.24,0,0,1,29.26,24.67ZM.48,24.19H29V.49H.48Z"/><path d="M29.26,24.67H16.4a.24.24,0,0,1-.21-.12l-.1-.17a.24.24,0,0,1,.06-.31L18,22.58a7,7,0,0,1-.29-1.09l-2.36-.35a.24.24,0,0,1-.21-.24V19.76a.24.24,0,0,1,.21-.24l2.36-.35A7,7,0,0,1,18,18.08l-1.86-1.49a.24.24,0,0,1-.06-.31l.66-1.14A.24.24,0,0,1,17,15l2.22.87a7.18,7.18,0,0,1,.79-.79l-.87-2.22a.24.24,0,0,1,.1-.3l1.14-.66a.24.24,0,0,1,.31.06l1.49,1.87a6.91,6.91,0,0,1,1.08-.29l.36-2.36a.24.24,0,0,1,.24-.21h1.31a.24.24,0,0,1,.24.21l.35,2.36a7,7,0,0,1,1.09.29L28.4,12a.24.24,0,0,1,.31-.06l.67.39a.24.24,0,0,1,.12.21V14a.24.24,0,0,1,0,.09l-.41,1,.35.32a.24.24,0,0,1,.07.17v8.82A.24.24,0,0,1,29.26,24.67Zm-12.48-.49H29V15.71l-.38-.33a.24.24,0,0,1-.07-.28L29,14V12.68l-.37-.21L27.18,14.3a.24.24,0,0,1-.28.08A6.5,6.5,0,0,0,25.57,14a.24.24,0,0,1-.2-.2L25,11.49h-.9l-.35,2.33a.24.24,0,0,1-.2.2,6.45,6.45,0,0,0-1.33.36A.24.24,0,0,1,22,14.3L20.5,12.46l-.78.45.86,2.19a.24.24,0,0,1-.07.28,6.67,6.67,0,0,0-1,1,.24.24,0,0,1-.28.07l-2.19-.86-.45.78,1.84,1.47a.24.24,0,0,1,.08.28,6.51,6.51,0,0,0-.35,1.33.24.24,0,0,1-.2.2L15.65,20v.72L18,21a.24.24,0,0,1,.2.2,6.53,6.53,0,0,0,.35,1.33.24.24,0,0,1-.08.28Z"/><path d="M29.26,5.39H.24a.24.24,0,0,1,0-.49h29a.24.24,0,0,1,0,.49Z"/><path d="M3.17,3.71A1.07,1.07,0,1,1,4.24,2.64,1.07,1.07,0,0,1,3.17,3.71Zm0-1.65a.58.58,0,1,0,.58.58A.58.58,0,0,0,3.17,2.06Z"/><path d="M6.75,3.71A1.07,1.07,0,1,1,7.82,2.64,1.07,1.07,0,0,1,6.75,3.71Zm0-1.65a.58.58,0,1,0,.58.58A.58.58,0,0,0,6.75,2.06Z"/><path d="M29.26,2.88H13.14a.24.24,0,0,1,0-.49H29.26a.24.24,0,0,1,0,.49Z"/><path d="M25.77,9.2h-22A.24.24,0,0,1,3.49,9V7.45a.24.24,0,0,1,.24-.24h22a.24.24,0,0,1,.24.24V9A.24.24,0,0,1,25.77,9.2ZM4,8.72H25.52v-1H4Z"/><path d="M16.38,12.37H3.64a.24.24,0,0,1,0-.49H16.38a.24.24,0,0,1,0,.49Z"/><path d="M8.27,13.89H3.64a.24.24,0,0,1,0-.49H8.27a.24.24,0,0,1,0,.49Z"/><path d="M13.85,15.42H3.64a.24.24,0,1,1,0-.48H13.85a.24.24,0,1,1,0,.48Z"/><path d="M11.11,16.94H3.64a.24.24,0,0,1,0-.49h7.47a.24.24,0,1,1,0,.49Z"/><path d="M13.79,18.46H3.64a.24.24,0,1,1,0-.48H13.79a.24.24,0,1,1,0,.48Z"/><path d="M10.88,20H3.64a.24.24,0,0,1,0-.49h7.24a.24.24,0,0,1,0,.49Z"/></g></g></svg>