<svg xmlns="http://www.w3.org/2000/svg" viewBox="0 0 31.6 24.93"><title>Fichier 3</title><g id="Calque_2" data-name="Calque 2"><g id="ecommerce"><g id="_Groupe_" data-name="&lt;Groupe&gt;"><path d="M29.15,7.19V21.26H26.86V8.84H20a6.06,6.06,0,0,0,1-2.26h7.48A.62.62,0,0,1,29.15,7.19Z" style="fill:none;stroke:#000;stroke-linecap:round;stroke-linejoin:round;stroke-width:0.75px"/><path d="M2.45,21.26h9.93v1.49h6.85V21.26h12v1.65a1.62,1.62,0,0,1-.5,1.17,1.71,1.71,0,0,1-1.2.48H2.07a1.71,1.71,0,0,1-1.2-.48,1.62,1.62,0,0,1-.5-1.17V21.26H2.45Z" style="fill:none;stroke:#000;stroke-linecap:round;stroke-linejoin:round;stroke-width:0.75px"/><path d="M3.06,6.58h7.48a6,6,0,0,0,1,2.26H4.73V21.26H2.45V7.19A.62.62,0,0,1,3.06,6.58Z" style="fill:none;stroke:#000;stroke-linecap:round;stroke-linejoin:round;stroke-width:0.75px"/><path d="M12.26,13.21c0,1.14,1.59,2.06,3.54,2.06v4.5l.1.07-.1.13v2.79H12.38V21.26H4.73V8.84h6.84A17.18,17.18,0,0,0,14,11.45C12.93,11.81,12.26,12.46,12.26,13.21Z" style="fill:none;stroke:#000;stroke-linecap:round;stroke-linejoin:round;stroke-width:0.75px"/><path d="M17.62,11.44A18,18,0,0,0,20,8.84h6.87V21.26H19.22v1.49H15.8V20l.1-.13-.1-.07v-4.5c2,0,3.54-.92,3.54-2.06C19.34,12.46,18.65,11.8,17.62,11.44Z" style="fill:none;stroke:#000;stroke-linecap:round;stroke-linejoin:round;stroke-width:0.75px"/><path d="M15.8,15.26c-2,0-3.54-.92-3.54-2.06,0-.74.68-1.4,1.7-1.76.63.6,1.26,1.18,1.83,1.76.56-.58,1.2-1.16,1.84-1.77,1,.35,1.72,1,1.72,1.76C19.34,14.34,17.76,15.26,15.8,15.26Z" style="fill:none;stroke:#000;stroke-linecap:round;stroke-linejoin:round;stroke-width:0.75px"/><path d="M10.44,5.6a5.36,5.36,0,0,1,10.71,0,4.85,4.85,0,0,1-.1,1h0a6.06,6.06,0,0,1-1,2.26,18,18,0,0,1-2.38,2.6c-.64.6-1.28,1.19-1.84,1.77-.57-.59-1.2-1.17-1.83-1.76a17.18,17.18,0,0,1-2.38-2.61,6,6,0,0,1-1-2.26A4.59,4.59,0,0,1,10.44,5.6ZM15.8,2.42a2.93,2.93,0,0,0-3,2.89,3,3,0,0,0,5.93,0A2.93,2.93,0,0,0,15.8,2.42Z" style="fill:none;stroke:#000;stroke-linecap:round;stroke-linejoin:round;stroke-width:0.75px"/><path d="M26.86,21.26H19.22v1.49H12.38V21.26H.38v1.65a1.62,1.62,0,0,0,.5,1.17,1.71,1.71,0,0,0,1.2.48H29.53a1.71,1.71,0,0,0,1.2-.48,1.62,1.62,0,0,0,.5-1.17V21.26H26.86Z" style="fill:none;stroke:#000;stroke-linecap:round;stroke-linejoin:round;stroke-width:0.75px"/><path d="M10.55,6.58H3.06a.62.62,0,0,0-.62.61V21.26" style="fill:none;stroke:#000;stroke-linecap:round;stroke-linejoin:round;stroke-width:0.75px"/><path d="M29.15,21.26V7.19a.62.62,0,0,0-.62-.61H21.05" style="fill:none;stroke:#000;stroke-linecap:round;stroke-linejoin:round;stroke-width:0.75px"/><polyline points="20 8.84 26.86 8.84 26.86 21.26" style="fill:none;stroke:#000;stroke-linecap:round;stroke-linejoin:round;stroke-width:0.75px"/><polyline points="4.73 21.26 4.73 8.84 11.57 8.84" style="fill:none;stroke:#000;stroke-linecap:round;stroke-linejoin:round;stroke-width:0.75px"/><polyline points="15.8 14.07 15.8 15.26 15.8 19.76" style="fill:none;stroke:#000;stroke-linecap:round;stroke-linejoin:round;stroke-width:0.75px"/><polyline points="14.2 17.76 15.8 19.96 15.89 19.83 17.4 17.76" style="fill:none;stroke:#000;stroke-linecap:round;stroke-linejoin:round;stroke-width:0.75px"/><path d="M10.55,6.58a4.59,4.59,0,0,1-.1-1,5.36,5.36,0,0,1,10.71,0,4.85,4.85,0,0,1-.1,1h0a6.06,6.06,0,0,1-1,2.26,18,18,0,0,1-2.38,2.6c-.64.6-1.28,1.19-1.84,1.77-.57-.59-1.2-1.17-1.83-1.76a17.18,17.18,0,0,1-2.38-2.61A6,6,0,0,1,10.55,6.58Z" style="fill:none;stroke:#000;stroke-linecap:round;stroke-linejoin:round;stroke-width:0.75px"/><ellipse cx="15.8" cy="5.32" rx="2.97" ry="2.89" style="fill:none;stroke:#000;stroke-linecap:round;stroke-linejoin:round;stroke-width:0.75px"/><path d="M17.62,11.44c1,.35,1.72,1,1.72,1.76,0,1.14-1.58,2.06-3.54,2.06s-3.54-.92-3.54-2.06c0-.74.68-1.4,1.7-1.76" style="fill:none;stroke:#000;stroke-linecap:round;stroke-linejoin:round;stroke-width:0.75px"/></g></g></g></svg>