<svg xmlns="http://www.w3.org/2000/svg" viewBox="0 0 21.11 31.29"><title>Fichier 2</title><g id="Calque_2" data-name="Calque 2"><g id="idea"><path d="M15.86,19.65H5.26a.25.25,0,0,1-.13,0,10.56,10.56,0,1,1,16-9.06A10.49,10.49,0,0,1,16,19.61.26.26,0,0,1,15.86,19.65ZM5.33,19.14H15.78A10,10,0,1,0,.51,10.56,10,10,0,0,0,5.33,19.14Z"/><path d="M14.53,28.58H6.59a.26.26,0,0,1-.26-.26V19.39a.26.26,0,0,1,.26-.26h7.94a.26.26,0,0,1,.26.26v8.93A.26.26,0,0,1,14.53,28.58Zm-7.68-.51h7.42V19.65H6.85Z"/><path d="M18,19.65h-15a.26.26,0,0,1,0-.51H18a.26.26,0,0,1,0,.51Z"/><path d="M16.06,22.91h-11a.26.26,0,0,1,0-.51h11a.26.26,0,0,1,0,.51Z"/><path d="M16.06,25.41h-11a.26.26,0,0,1,0-.51h11a.26.26,0,0,1,0,.51Z"/><path d="M10.56,31.29a2.43,2.43,0,0,1-2.43-2.43,2.4,2.4,0,0,1,.08-.61.26.26,0,0,1,.25-.19h4.21a.26.26,0,0,1,.25.19,2.4,2.4,0,0,1,.08.61A2.43,2.43,0,0,1,10.56,31.29ZM8.66,28.58a2,2,0,0,0,0,.29,1.92,1.92,0,1,0,3.83,0,2,2,0,0,0,0-.29Z"/><path d="M9.14,17.45H9.08l-1-.28a.26.26,0,0,1-.19-.28L8.06,15a5.5,5.5,0,0,1-.74-.43L5.77,15.69a.26.26,0,0,1-.34,0l-.77-.77a.26.26,0,0,1,0-.33L5.79,13a5.83,5.83,0,0,1-.43-.74l-1.92.22a.26.26,0,0,1-.28-.19l-.28-1.05a.26.26,0,0,1,.15-.3l1.77-.77a6,6,0,0,1,0-.85L3,8.56a.26.26,0,0,1-.15-.3l.24-.91a.25.25,0,0,1,.28-.19l1.91.22a5.92,5.92,0,0,1,.43-.74L4.6,5.09a.26.26,0,0,1,0-.33L5.39,4a.26.26,0,0,1,.33,0L7.28,5.11A5.48,5.48,0,0,1,8,4.68L7.8,2.76A.26.26,0,0,1,8,2.49L9,2.2a.26.26,0,0,1,.3.15l.77,1.77a5.64,5.64,0,0,1,.86,0l.77-1.77A.26.26,0,0,1,12,2.2l1,.28a.26.26,0,0,1,.19.28l-.22,1.91a5.74,5.74,0,0,1,.74.43L15.35,4a.26.26,0,0,1,.33,0l.77.77a.26.26,0,0,1,0,.33L15.33,6.64a5.7,5.7,0,0,1,.43.74l1.92-.22a.26.26,0,0,1,.28.19l.28,1.05a.26.26,0,0,1-.15.3l-1.76.77a5.92,5.92,0,0,1,0,.85l1.77.77a.26.26,0,0,1,.15.3L18,12.3a.26.26,0,0,1-.28.19l-1.92-.22a5.9,5.9,0,0,1-.43.74l1.14,1.55a.26.26,0,0,1,0,.33l-.77.77a.26.26,0,0,1-.34,0l-1.55-1.15a6,6,0,0,1-.74.43l.22,1.92a.26.26,0,0,1-.19.28l-1,.28a.26.26,0,0,1-.3-.15L11,15.53a5.88,5.88,0,0,1-.85,0L9.38,17.3A.26.26,0,0,1,9.14,17.45Zm2-2.45a.26.26,0,0,1,.24.15l.76,1.73.62-.16-.21-1.88a.26.26,0,0,1,.15-.26,5.41,5.41,0,0,0,1-.56.26.26,0,0,1,.3,0l1.52,1.13.45-.46-1.12-1.52a.26.26,0,0,1,0-.3,5.38,5.38,0,0,0,.56-1,.25.25,0,0,1,.26-.15l1.88.21.13-.48-1.73-.76a.26.26,0,0,1-.15-.26,5.37,5.37,0,0,0,0-1.12.26.26,0,0,1,.15-.26l1.73-.75-.17-.62-1.88.21a.25.25,0,0,1-.26-.15,5.14,5.14,0,0,0-.56-1,.26.26,0,0,1,0-.3L15.93,5l-.45-.45L14,5.63a.26.26,0,0,1-.3,0,5.19,5.19,0,0,0-1-.56.26.26,0,0,1-.15-.26l.21-1.88-.62-.17-.76,1.73a.26.26,0,0,1-.26.15,5.14,5.14,0,0,0-1.12,0,.25.25,0,0,1-.26-.15L9,2.76l-.62.17.21,1.88a.26.26,0,0,1-.15.26,5,5,0,0,0-1,.56.26.26,0,0,1-.31,0L5.6,4.5,5.15,5,6.27,6.48a.26.26,0,0,1,0,.3,5.4,5.4,0,0,0-.56,1,.25.25,0,0,1-.26.15L3.57,7.69l-.13.48,1.73.75a.26.26,0,0,1,.15.26,5.51,5.51,0,0,0,0,1.13.26.26,0,0,1-.15.26l-1.73.75.17.62,1.88-.21a.25.25,0,0,1,.26.15,5.3,5.3,0,0,0,.56,1,.26.26,0,0,1,0,.3L5.18,14.69l.45.46L7.16,14a.26.26,0,0,1,.31,0,5,5,0,0,0,1,.56.26.26,0,0,1,.15.26l-.21,1.88.62.16.76-1.73A.26.26,0,0,1,10,15a5.35,5.35,0,0,0,1.12,0Z"/><path d="M10.56,13.84a4,4,0,1,1,4-4A4,4,0,0,1,10.56,13.84Zm0-7.52a3.5,3.5,0,1,0,3.5,3.5A3.51,3.51,0,0,0,10.56,6.32Z"/><path d="M10.56,13.84c-1.22,0-2.18-1.76-2.18-4s1-4,2.18-4,2.18,1.76,2.18,4S11.78,13.84,10.56,13.84Zm0-7.52c-.9,0-1.67,1.6-1.67,3.5s.76,3.5,1.67,3.5,1.67-1.6,1.67-3.5S11.46,6.32,10.56,6.32Z"/><path d="M14.32,10.08H6.8a.26.26,0,0,1,0-.51h7.52a.26.26,0,0,1,0,.51Z"/><path d="M10.56,13.84a.26.26,0,0,1-.26-.26V6.07a.26.26,0,1,1,.51,0v7.52A.26.26,0,0,1,10.56,13.84Z"/><path d="M10.56,8.39a9.78,9.78,0,0,1-3.14-.53.26.26,0,0,1,.16-.49,9,9,0,0,0,5.93,0,.26.26,0,1,1,.17.49A9.64,9.64,0,0,1,10.56,8.39Z"/><path d="M7.51,12.21a.26.26,0,0,1-.08-.5,9.59,9.59,0,0,1,6.26,0,.26.26,0,1,1-.16.49,9.1,9.1,0,0,0-5.93,0Z"/></g></g></svg>