<svg role="img" xmlns="http://www.w3.org/2000/svg" viewBox="0 0 31 22.8"><title>Fichier 1</title><g id="Calque_2" data-name="Calque 2"><g id="website"><path d="M25.32,22.8a5.7,5.7,0,0,1-5.57-4.53.25.25,0,1,1,.5-.1,5.17,5.17,0,1,0,3.94-6.1.25.25,0,1,1-.11-.5A5.68,5.68,0,1,1,25.32,22.8Z"/><path d="M25.32,22.8c-1.23,0-2.25-1.87-2.49-4.56a.25.25,0,0,1,.51,0c.2,2.33,1.05,4.09,2,4.09s2-2.08,2-5.17-1-5.17-2-5.17a1.33,1.33,0,0,0-1,.67.25.25,0,1,1-.42-.29,1.75,1.75,0,0,1,1.39-.89c1.42,0,2.53,2.5,2.53,5.68S26.74,22.8,25.32,22.8Z"/><path d="M24.14,18.48H.25A.25.25,0,0,1,0,18.23V.25A.25.25,0,0,1,.25,0H24.14a.25.25,0,0,1,.25.25v18A.25.25,0,0,1,24.14,18.48ZM.51,18H23.88V.51H.51Z"/><path d="M8.54,13.41H7.28A.25.25,0,0,1,7,13.16V8.8a.25.25,0,0,1,.25-.25H8.54a.25.25,0,0,1,.25.25v4.36A.25.25,0,0,1,8.54,13.41Zm-1-.51h.75V9.05H7.54Z"/><path d="M10.7,13.41H9.44a.25.25,0,0,1-.25-.25V7.92a.25.25,0,0,1,.25-.25H10.7a.25.25,0,0,1,.25.25v5.24A.25.25,0,0,1,10.7,13.41Zm-1-.51h.75V8.18H9.69Z"/><path d="M12.85,13.41H11.59a.25.25,0,0,1-.25-.25v-4a.25.25,0,0,1,.25-.25h1.26a.25.25,0,0,1,.25.25v4A.25.25,0,0,1,12.85,13.41Zm-1-.51h.75V9.42h-.75Z"/><path d="M15,13.41H13.75a.25.25,0,0,1-.25-.25V11.42a.25.25,0,0,1,.25-.25H15a.25.25,0,0,1,.25.25v1.74A.25.25,0,0,1,15,13.41Zm-1-.51h.75V11.67H14Z"/><path d="M17.16,13.41H15.9a.25.25,0,0,1-.25-.25v-4a.25.25,0,0,1,.25-.25h1.26a.25.25,0,0,1,.25.25v4A.25.25,0,0,1,17.16,13.41Zm-1-.51h.75V9.45h-.75Z"/><path d="M19,14.52H5.37a.25.25,0,0,1,0-.51H19a.25.25,0,0,1,0,.51Z"/><path d="M24.14,4.55H.25A.25.25,0,0,1,.25,4H24.14a.25.25,0,0,1,0,.51Z"/><path d="M2.67,3.16a.93.93,0,1,1,.93-.93A.94.94,0,0,1,2.67,3.16Zm0-1.36a.42.42,0,1,0,.43.42A.42.42,0,0,0,2.67,1.81Z"/><path d="M5.61,3.16a.93.93,0,1,1,.93-.93A.93.93,0,0,1,5.61,3.16Zm0-1.36A.42.42,0,1,0,6,2.23.42.42,0,0,0,5.61,1.81Z"/><path d="M24.14,2.48H10.87a.25.25,0,0,1,0-.51H24.14a.25.25,0,0,1,0,.51Z"/><path d="M25.32,22.8a.25.25,0,0,1-.25-.25V11.69a.25.25,0,1,1,.51,0V22.55A.25.25,0,0,1,25.32,22.8Z"/><path d="M30.75,17.38H24.14a.25.25,0,0,1,0-.51h6.61a.25.25,0,0,1,0,.51Z"/><path d="M25.23,15q-.56,0-1.11,0a.25.25,0,0,1,0-.51,15.65,15.65,0,0,0,5.57-.62.25.25,0,1,1,.14.49A16.61,16.61,0,0,1,25.23,15Z"/><path d="M20.84,20a.25.25,0,0,1-.08-.5,15.34,15.34,0,0,1,9.1,0,.25.25,0,1,1-.14.49,14.86,14.86,0,0,0-8.81,0Z"/></g></g></svg>
