<?xml version="1.0" standalone="no"?>
<!DOCTYPE svg PUBLIC "-//W3C//DTD SVG 20010904//EN"
 "http://www.w3.org/TR/2001/REC-SVG-20010904/DTD/svg10.dtd">
<svg version="1.0" xmlns="http://www.w3.org/2000/svg"
 width="652.000000pt" height="652.000000pt" viewBox="0 0 652.000000 652.000000"
 preserveAspectRatio="xMidYMid meet">
<metadata>
Created by potrace 1.11, written by Peter Selinger 2001-2013
</metadata>
<g transform="translate(0.000000,652.000000) scale(0.100000,-0.100000)"
fill="#000000" stroke="none">
<path d="M3047 5344 c-1 -2 -29 -6 -62 -10 -33 -4 -67 -8 -75 -9 -8 -1 -39 -6
-68 -10 -29 -4 -55 -12 -58 -16 -3 -5 -9 -7 -13 -5 -4 3 -25 0 -47 -6 -21 -7
-41 -12 -44 -13 -71 -16 -219 -72 -331 -124 -102 -47 -298 -166 -348 -211 -9
-8 -39 -33 -66 -54 -72 -57 -232 -221 -290 -296 -27 -36 -53 -66 -57 -68 -4
-2 -8 -7 -8 -11 0 -5 -22 -41 -49 -82 -108 -165 -224 -430 -256 -589 -2 -8 -4
-15 -5 -15 -2 0 -5 -15 -19 -90 -6 -33 -13 -71 -16 -85 -16 -78 -22 -353 -12
-553 2 -47 1 -49 -38 -71 -133 -76 -678 -424 -695 -445 -3 -3 -50 -40 -105
-81 -127 -96 -262 -231 -300 -300 -24 -45 -30 -67 -30 -121 0 -56 4 -71 27
-101 65 -85 183 -123 418 -134 69 -3 130 -6 135 -6 28 0 288 13 339 18 33 2
86 7 117 9 32 3 76 7 100 10 23 3 65 7 93 10 28 3 71 7 96 10 25 3 61 8 80 10
19 3 59 7 88 11 29 3 63 7 75 10 12 3 40 7 62 9 22 3 55 7 72 9 23 3 37 -1 45
-12 38 -50 302 -262 327 -262 6 0 11 -4 11 -8 0 -4 19 -18 43 -30 23 -12 75
-40 116 -62 61 -33 260 -117 296 -125 5 -1 17 -5 25 -8 20 -8 95 -27 163 -42
104 -22 116 -24 172 -30 28 -3 66 -7 85 -10 76 -10 351 -4 420 9 14 2 43 7 65
10 22 3 50 7 61 10 12 2 37 7 56 10 20 3 47 10 62 15 14 6 26 8 26 5 0 -2 8 0
18 5 11 6 30 12 43 15 47 9 196 68 304 121 103 50 278 155 300 181 6 6 17 15
26 20 64 35 269 236 361 354 74 96 168 239 189 288 8 17 17 32 21 32 5 0 8 4
8 10 0 5 14 40 31 77 29 63 78 185 83 208 2 6 9 30 16 55 7 25 14 50 16 55 17
72 26 114 30 133 11 60 14 81 20 132 3 30 8 69 10 85 2 17 4 78 5 136 l0 106
147 88 c271 164 650 409 709 460 17 14 31 25 78 60 186 138 323 309 327 406 2
53 -37 125 -85 157 -40 27 -127 67 -127 58 0 -3 -14 -1 -30 4 -105 30 -498 33
-765 5 -46 -4 -176 -17 -215 -20 -19 -2 -53 -6 -75 -9 -22 -3 -60 -8 -85 -10
-51 -5 -133 -15 -171 -22 -15 -2 -46 -6 -69 -9 -24 -3 -46 -8 -50 -10 -4 -3
-41 32 -81 77 -92 102 -174 181 -259 248 -36 28 -73 57 -83 65 -9 8 -20 15
-24 15 -3 0 -22 12 -42 27 -43 33 -57 41 -198 113 -121 62 -186 89 -288 120
-38 12 -77 24 -85 27 -8 3 -21 7 -29 9 -7 1 -34 7 -60 13 -25 6 -59 13 -76 15
-16 3 -41 7 -55 10 -72 14 -462 31 -473 20z m3088 -828 c22 -4 49 -9 60 -11
45 -8 99 -31 109 -47 8 -13 6 -25 -9 -50 -10 -18 -24 -38 -29 -44 -6 -6 -25
-26 -42 -45 -43 -47 -98 -96 -174 -154 -36 -28 -71 -56 -78 -62 -7 -7 -17 -13
-21 -13 -4 0 -16 -8 -27 -18 -18 -17 -323 -220 -402 -269 -19 -11 -66 -40
-105 -63 -40 -24 -73 -47 -75 -52 -2 -4 -7 -8 -12 -8 -5 0 -36 -16 -70 -36
-33 -20 -62 -35 -64 -33 -2 2 -7 27 -10 54 -12 86 -13 93 -69 290 -9 31 -30
93 -37 110 -38 91 -93 205 -137 283 -29 52 -46 93 -40 94 7 0 23 2 37 4 24 2
79 9 150 19 19 2 60 7 90 11 30 3 66 8 80 9 14 2 61 6 105 10 44 3 92 8 106
11 14 2 73 6 129 9 57 3 105 7 107 8 6 6 388 0 428 -7z m-4845 -1716 c47 -164
106 -303 193 -455 28 -49 55 -94 59 -100 34 -42 108 -148 106 -151 -2 -1 -26
-6 -53 -9 -28 -4 -61 -8 -75 -10 -54 -8 -258 -33 -330 -40 -39 -4 -149 -13
-225 -20 -51 -4 -312 -18 -330 -17 -102 3 -249 12 -271 17 -87 18 -144 39
-149 56 -21 66 190 262 525 486 166 111 280 183 290 183 6 0 10 5 10 10 0 6 4
10 10 10 9 0 72 39 97 60 7 5 15 10 18 10 3 0 26 13 53 30 26 16 48 26 48 22
1 -4 12 -41 24 -82z"/>
</g>
</svg>
