<svg width="79" height="97" viewBox="0 0 79 97" fill="none" xmlns="http://www.w3.org/2000/svg">
    <g clip-path="url(#clip0_174_7218)">
        <path d="M12.504 60.3343C13.4269 60.3343 14.329 60.0603 15.0963 59.5469C15.8636 59.0336 16.4616 58.3039 16.8148 57.4502C17.168 56.5966 17.2604 55.6572 17.0804 54.751C16.9004 53.8448 16.4559 53.0124 15.8033 52.359C15.1508 51.7056 14.3194 51.2606 13.4143 51.0804C12.5092 50.9001 11.5709 50.9926 10.7183 51.3462C9.86569 51.6998 9.137 52.2986 8.62429 53.0669C8.11157 53.8352 7.83789 54.7384 7.83789 55.6624C7.83789 56.9015 8.3295 58.0898 9.20455 58.9659C10.0796 59.8421 11.2665 60.3343 12.504 60.3343Z" fill="#FF5631"/>
        <path d="M37.1859 57.8558C40.8436 57.8558 44.4191 56.7699 47.4604 54.7353C50.5016 52.7007 52.8719 49.8089 54.2716 46.4255C55.6713 43.042 56.0377 39.319 55.3241 35.7272C54.6106 32.1354 52.8492 28.8361 50.2628 26.2465C47.6764 23.657 44.3812 21.8935 40.7938 21.179C37.2064 20.4646 33.488 20.8313 30.1087 22.2328C26.7295 23.6342 23.8412 26.0074 21.8091 29.0524C19.777 32.0974 18.6924 35.6773 18.6924 39.3395C18.6924 44.2504 20.6408 48.9601 24.109 52.4326C27.5772 55.9051 32.2811 57.8558 37.1859 57.8558Z" fill="#FFCD4E"/>
        <path d="M51.7819 67.1426V64.9776C51.7819 64.9776 51.7819 61.4595 48.9368 61.4595C46.0916 61.4595 45.7502 64.9776 45.7502 64.9776V62.5278C45.7502 62.5278 45.7502 59.0097 42.9051 59.0097C40.0599 59.0097 39.7327 62.5278 39.7327 62.5278V50.9479C39.7327 50.9479 39.7327 47.4299 36.8876 47.4299C34.0424 47.4299 33.701 50.9479 33.701 50.9479V74.8055C33.701 74.8055 24.9236 69.4073 23.5864 68.8803C23.1751 68.7571 22.7407 68.7327 22.3182 68.8091C21.8958 68.8855 21.4973 69.0605 21.155 69.3199C20.8127 69.5794 20.5363 69.9159 20.3483 70.3023C20.1602 70.6887 20.0658 71.114 20.0726 71.5438C20.0726 75.9023 33.701 86.2002 33.701 86.2002V91.7693C33.7048 92.8019 34.1171 93.7909 34.8477 94.5197C35.5783 95.2485 36.5676 95.6577 37.5989 95.6577H44.7118C47.5426 95.6519 50.2588 94.5374 52.2798 92.5527L53.2757 91.5414C55.0439 89.6328 56.1209 87.1851 56.3341 84.5907L57.7567 67.8547L57.9986 65.6897C57.9986 65.6897 58.2405 63.3397 55.4096 63.0121C54.6974 62.845 53.9482 62.9588 53.3177 63.3302C52.6873 63.7015 52.224 64.3017 52.0238 65.0061L51.7677 67.1996" fill="white"/>
        <path d="M51.7819 67.1426V64.9776C51.7819 64.9776 51.7819 61.4595 48.9368 61.4595C46.0916 61.4595 45.7502 64.9776 45.7502 64.9776V62.5278C45.7502 62.5278 45.7502 59.0097 42.9051 59.0097C40.0599 59.0097 39.7327 62.5278 39.7327 62.5278V50.9479C39.7327 50.9479 39.7327 47.4299 36.8876 47.4299C34.0424 47.4299 33.701 50.9479 33.701 50.9479V74.8055C33.701 74.8055 24.9236 69.4073 23.5864 68.8803C23.1751 68.7571 22.7407 68.7327 22.3182 68.8091C21.8958 68.8855 21.4973 69.0605 21.155 69.3199C20.8127 69.5794 20.5363 69.9159 20.3483 70.3023C20.1602 70.6887 20.0658 71.114 20.0726 71.5438C20.0726 75.9023 33.701 86.2002 33.701 86.2002V91.7693C33.7048 92.8019 34.1171 93.7909 34.8477 94.5197C35.5783 95.2485 36.5676 95.6577 37.5989 95.6577H44.7118C47.5426 95.6519 50.2588 94.5374 52.2798 92.5527L53.2757 91.5414C55.0439 89.6328 56.1209 87.1851 56.3341 84.5907L57.7567 67.8547L57.9986 65.6897C57.9986 65.6897 58.2405 63.3397 55.4096 63.0121C54.6974 62.845 53.9482 62.9588 53.3177 63.3302C52.6873 63.7015 52.224 64.3017 52.0238 65.0061L51.7677 67.1996" stroke="#1E1C1C" stroke-linecap="round" stroke-linejoin="round"/>
        <path d="M7.8383 38.3996C9.36729 38.4024 10.8627 37.9509 12.1352 37.1021C13.4077 36.2534 14.3999 35.0456 14.9864 33.6318C15.5728 32.218 15.7269 30.6617 15.4293 29.1601C15.1317 27.6585 14.3958 26.2791 13.3147 25.1966C12.2335 24.1141 10.8558 23.3772 9.35604 23.0793C7.85629 22.7813 6.30197 22.9357 4.8899 23.5228C3.47783 24.1099 2.27155 25.1035 1.42384 26.3775C0.576133 27.6516 0.12513 29.1489 0.127943 30.6797C0.127943 32.7272 0.940258 34.6908 2.38623 36.1385C3.83221 37.5863 5.79338 38.3996 7.8383 38.3996Z" fill="#60E093"/>
        <path d="M70.4036 67.6553C71.9326 67.6581 73.4281 67.2066 74.7005 66.3578C75.973 65.5091 76.9654 64.3014 77.5518 62.8876C78.1382 61.4738 78.2924 59.9174 77.9948 58.4158C77.6972 56.9142 76.9612 55.5349 75.88 54.4524C74.7989 53.3699 73.4211 52.633 71.9214 52.3351C70.4216 52.0371 68.8674 52.1914 67.4553 52.7786C66.0433 53.3657 64.8369 54.3592 63.9892 55.6333C63.1415 56.9073 62.6906 58.4046 62.6934 59.9355C62.6971 61.9817 63.5106 63.9431 64.9557 65.3901C66.4009 66.837 68.3599 67.6516 70.4036 67.6553Z" fill="#005281"/>
        <path d="M62.6934 17.8322C63.6557 17.8322 64.5963 17.5465 65.3963 17.0112C66.1964 16.476 66.82 15.7152 67.1883 14.8251C67.5565 13.935 67.6528 12.9555 67.4651 12.0106C67.2774 11.0657 66.8139 10.1977 66.1335 9.51645C65.4531 8.8352 64.5862 8.37127 63.6424 8.18331C62.6987 7.99536 61.7205 8.09186 60.8315 8.46055C59.9425 8.82924 59.1827 9.45354 58.6481 10.2546C58.1135 11.0557 57.8281 11.9975 57.8281 12.961C57.8281 14.2529 58.3407 15.4919 59.2531 16.4054C60.1655 17.3189 61.4031 17.8322 62.6934 17.8322Z" fill="#FF5631"/>
        <path d="M36.9444 39.1972C39.44 39.1972 41.8797 38.4562 43.9548 37.068C46.0299 35.6798 47.6471 33.7067 48.6021 31.3981C49.5572 29.0896 49.8071 26.5493 49.3202 24.0986C48.8333 21.6479 47.6316 19.3968 45.8669 17.6299C44.1022 15.863 41.8538 14.6597 39.4061 14.1723C36.9584 13.6848 34.4212 13.935 32.1155 14.8912C29.8098 15.8474 27.8393 17.4667 26.4527 19.5444C25.0662 21.622 24.3262 24.0646 24.3262 26.5634C24.3262 29.9141 25.6556 33.1275 28.022 35.4968C30.3884 37.8661 33.5978 39.1972 36.9444 39.1972Z" stroke="#1E1C1C" stroke-miterlimit="10"/>
        <path d="M37.8691 8.9586V0.327148" stroke="#1E1C1C" stroke-miterlimit="10"/>
        <path d="M53.7588 26.5634H62.3796" stroke="#1E1C1C" stroke-miterlimit="10"/>
        <path d="M11.4941 26.5634H20.1007" stroke="#1E1C1C" stroke-miterlimit="10"/>
        <path d="M48.8369 14.6417L54.9255 8.54553" stroke="#1E1C1C" stroke-miterlimit="10"/>
        <path d="M25.9763 14.6417L19.8877 8.54553" stroke="#1E1C1C" stroke-miterlimit="10"/>
    </g>
    <defs>
        <clipPath id="clip0_174_7218">
            <rect width="78" height="96" fill="white" transform="translate(0.12793 0.327148)"/>
        </clipPath>
    </defs>
</svg>
