<svg width="85" height="86" viewBox="0 0 85 86" fill="none" xmlns="http://www.w3.org/2000/svg">
    <g clip-path="url(#clip0_174_7231)">
        <path d="M76.173 40.4901C74.7349 34.0442 71.4912 28.1284 66.8129 23.4187C62.1345 18.7091 56.21 15.3957 49.7168 13.8572" stroke="#1E1C1C" stroke-miterlimit="10"/>
        <path d="M52.6244 21.1596L48.9834 13.7019L57.3 9.93414" stroke="#1E1C1C" stroke-miterlimit="10"/>
        <path d="M26.9015 85.3272C28.3754 85.3272 29.8162 84.8951 31.0417 84.0856C32.2672 83.2761 33.2224 82.1255 33.7865 80.7793C34.3505 79.4331 34.4981 77.9519 34.2105 76.5229C33.923 75.0938 33.2132 73.7811 32.171 72.7508C31.1288 71.7205 29.8009 71.0188 28.3553 70.7345C26.9097 70.4503 25.4113 70.5961 24.0496 71.1537C22.6879 71.7113 21.524 72.6556 20.7051 73.8671C19.8863 75.0787 19.4492 76.503 19.4492 77.9601C19.4492 79.914 20.2344 81.7878 21.6319 83.1694C23.0295 84.551 24.925 85.3272 26.9015 85.3272Z" fill="#FF5631"/>
        <path d="M37.3525 82.7506C43.9766 83.5058 50.6819 82.4045 56.7032 79.5725C62.7244 76.7405 67.8189 72.292 71.4049 66.7346" stroke="#1E1C1C" stroke-miterlimit="10"/>
        <path d="M63.5205 67.0712L71.8502 66.0872L72.7277 75.0986" stroke="#1E1C1C" stroke-miterlimit="10"/>
        <path d="M16.7773 22.5709C11.978 27.1643 8.58292 33 6.98022 39.4108C5.37751 45.8217 5.63176 52.549 7.71405 58.8237" stroke="#1E1C1C" stroke-miterlimit="10"/>
        <path d="M12.482 52.5442L7.97659 59.5229L0.367188 54.4993" stroke="#1E1C1C" stroke-miterlimit="10"/>
        <path d="M75.9634 62.0088C77.7513 62.0114 79.4998 61.4896 80.9876 60.5095C82.4755 59.5294 83.6357 58.135 84.3217 56.5028C85.0077 54.8706 85.1885 53.074 84.8413 51.3401C84.4941 49.6063 83.6345 48.0132 82.3712 46.7625C81.1079 45.5118 79.4976 44.6597 77.7442 44.314C75.9909 43.9682 74.1733 44.1444 72.5212 44.8202C70.8692 45.496 69.457 46.641 68.4634 48.1104C67.4698 49.5798 66.9395 51.3076 66.9395 53.0751C66.9395 55.4422 67.8898 57.7126 69.5817 59.3877C71.2737 61.0627 73.5689 62.0054 75.9634 62.0088Z" fill="#FFCD4E"/>
        <path d="M31.0792 27.4521C33.7843 27.4418 36.4256 26.6401 38.6705 25.1481C40.9153 23.656 42.6631 21.5404 43.6935 19.0678C44.7239 16.5953 44.9907 13.8766 44.4604 11.2543C43.9301 8.63206 42.6265 6.22366 40.7137 4.33275C38.8009 2.44185 36.3648 1.15307 33.7122 0.628854C31.0597 0.104644 28.3095 0.368485 25.8084 1.3871C23.3073 2.40571 21.1672 4.13352 19.6579 6.35271C18.1486 8.5719 17.3377 11.1831 17.3273 13.8572C17.3186 15.6449 17.6684 17.4166 18.3564 19.0699C19.0445 20.7232 20.0571 22.2252 21.3358 23.4893C22.6145 24.7535 24.134 25.7545 25.8063 26.4347C27.4787 27.1149 29.2709 27.4606 31.0792 27.4521Z" fill="#005281"/>
    </g>
    <defs>
        <clipPath id="clip0_174_7231">
            <rect width="85" height="85" fill="white" transform="translate(0 0.327148)"/>
        </clipPath>
    </defs>
</svg>
