<svg role="img" width="119" height="124" fill="none" xmlns="http://www.w3.org/2000/svg">
    <path d="M112.453 63.18c0 29.031-23.533 52.564-52.562 52.564-29.03 0-52.563-23.533-52.563-52.563 0-29.031 23.533-52.562 52.563-52.562s52.562 23.533 52.562 52.562Z" fill="#C00D0D"></path>
    <path d="M117.263 65.626C117.263 97.312 91.576 123 59.89 123 28.205 123 2.52 97.312 2.52 65.626c0-31.686 25.686-57.37 57.372-57.37 31.685 0 57.372 25.686 57.372 57.37Zm-1.519-7.255c0 31.686-25.686 57.372-57.372 57.372S1 90.057 1 58.371C1 26.684 26.686 1 58.372 1c31.685 0 57.372 25.686 57.372 57.37Z" stroke="#C00D0D" stroke-width="1.927"></path>
    <path d="M48.949 58.66c.174.597-.248 1.248-.197 1.796-.793-.326-.998-.978-.545-1.795.207-.38.762-.502.742 0v-.001Zm-6.691 2.822c-.334-.103-.434-.58-.549-1.033-.132-.462.968-1.321.957-.427-.06.519-.29.961-.408 1.46Zm-10.089 6.224c-.099-.048-.166-.15-.303-.14-.006-.151.314-.096.44-.164.01.134-.147.167-.137.304Zm4.464-5.375c.131.177.18.484.24.764-.806.9-1.51 1.874-2.548 2.626-.11-1.434.35-3.458 2.305-3.39h.003Zm21.12-2.621c.207-.233.366-.889.527-1.039.824-.79 1.261-.463 2.008.224-.023.66-.78 1.244-1.104 1.665.043.147.156.135.198.293-.188.08-.368.144-.488.083-.236.896-1.688 1.272-2.21.982.255-.41.83-1.922 1.07-2.208Zm4.523 3.547c-.174.228-.166.567-.371.767-.893.207-.99.934-1.492 1.288-.006.004-1.152.801-1.276 1.07-1.238.135-2.61-.008-2.457-1.862.17-.346.66-1.165 1.194-1.099.822-1.043 2.184-1.741 2.6-3.041.464-.098.88-.741.581-1.362l.261-.055c.038-.295-.36.096-.322-.202.36-.072.165-.493.405-.637.04.114.006.339.19.23.017-1.09-.889-1.678-1.48-2.334-.76.12-1.691.246-1.935 1.12-.657.256-1.149 1.088-1.293 1.862-.428.195-.58.56-.591 1.021-1.016.766-.84 2.296-1.278 3.433.105.24.105.251.115.52-.583.335-.866.672-1.347 1.076 0 .611-.788.728-.873 1.286-.083.015-.108-.06-.209-.018-.026.224-.2.353-.21.594-.217-.125-.661.11-.841-.087-.054-.767-.391-1.562-.316-2.32.026-.249.247-.457.26-.676.013-.195-.145-.394-.128-.584.017-.205.216-.514.24-.739.08-.619-.102-1.136-.505-1.046-.03-.13-.06-.262-.087-.39-.504-.151-1.114-.125-1.327-.732.42-.357.014-1.089-.04-1.696-.025-.326.107-.52.02-.825-.03-.12-.224-.245-.281-.347-.168-.307-.197-.72-.567-.692.12-.019.14-.099.086-.227-.858.378-1.2 1.663-1.641 2.42-.21.355-.547.51-.316 1.031-.29.336-.406 1.047-.086 1.453.088.163-.1.157-.071.285.42.168.638.64.96.95.355-.003.601.17.832.361-.135.08.056.368.05.54-.173.043-.153-.085-.26.055-.037.218.06.18.105.457-.953.608-.666 1.997-1.603 2.61.047.108.05.23.009.341-.681.076-.578 1.501-1.676 1.673-.985-.291.18-1.961-.348-3.066.322-.635.045-1.647.224-2.372-.115-.054-.285-.02-.37-.12-.153-.739-1.264-.628-1.549-1.429.192-.344.004-.93.35-1.175.176-1.209-.146-1.701-.626-2.797-.233.102-.327-.012-.533.05.003.081.051.18-.024.211-.702.097-.475.78-1.008.979-.055.54-.36.924-.743 1.261-.208.597-.21 1.321-.468 1.881.322.27.214.806.194 1.183.116.146.22-.186.342-.007-.103.03-.229.04-.165.172l.089.39c.766.081 1.131 1.008.575 1.646-.015.126.248.233.07.331-.229.094-.28-.085-.484-.026-.855 1.964-2.553 3.403-3.847 5.093-.513.183-1.113.115-1.35.371-.185-.381-.59-.466-.807-.84-.315-.569-.33-1.456-.36-1.902-.095-.085-.223-.12-.265-.283.264-1.27 1.645-1.674 2.156-2.875.989-.713 1.18-1.93 1.977-2.767.019-1.075-.098-1.813-.6-2.39-.22-.253-.361-.713-.864-.488-.128.045.047.29-.134.3-.096-.143-.3-.11-.501-.092-.308.142-.32.47-.775.518-.76.831-1.141 1.916-1.831 2.798-.197.811-.703 1.705-.595 2.522-.232.151-.147.506-.404.64-.17.091-.188-.054-.342.006-.01.128.03.28-.054.354-.152-.353-.414-.086-.74-.244-.148.124.132.307.01.341-.101-.046-.17-.148-.301-.138-.106.288-.395.459-.365.831.4-.144.17.558.033.134.173.666.856 1.254 1.304.934.606.3.51.999.61 1.754l-1.83 1.73c-.384.303-.631.691-1.214.864-2.354-3.49-.66-10.255.232-13.628 2.171-1.561 3.307-.417 4.629-1.242.524.036 1.172-.286 1.677-.472.039 0 .628-.254.66-.257l.39-.116c.132-.2.634-.3.713-.236 2.262-1.283 5.152-1.65 7.42-3.259-.595-.06-.33-.324-.89-.577-1.899 1.003-6.525 2.415-6.635 2.433-.707.379-1.584.404-2.254.9-.584-.084-1.485.402-2.07.688-.272-.016-1.126-.15-1.368-.18-.66.342-1.496.288-2.19.82-.49-.968.436-2.44-.071-3.43.17-1.635.08.45-.37-1.402-.222.089-.246-.128-.498.007-1.627 2.744-.582 2.666-1.534 5.742-3.276 1.069-2.341 1.364-3.463 1.333-.072 0-.102.07-.17.073-.067.003-.136-.064-.198-.07-.42-.034-.849.097-1.148.136-.107.294-.326.517-.325.881.157.135.257.004.439-.02.882-.12 1.76-.226 2.669-.42.71-.153.404-.27 2.227-.528-.17 1.754-.943 4.952-.856 6.873-.44.1-.446.48-.407.888-.814 1.033-1.246 2.32-1.849 3.492-1.014 1.015-1.236 2.541-2.69 3.279-.08.277-.192.639-.349.878-.07.104-.072.204-.167.28-.196.151-.562.15-.776.06.018.053.03.109.037.165a.8.8 0 0 1-.2-.082c-.024.25-.2.648-.5.537.01.231-.12.379-.34.264a.493.493 0 0 1-.208.254l-.074-.092a.429.429 0 0 1-.451.032c-.007.057-.04.113-.043.177-.164-.056-.332.024-.48.136-.129-.214-.365-.263-.494-.028a1.528 1.528 0 0 0-.112-.116.245.245 0 0 0-.06.148.919.919 0 0 0 .006-.278c-.152-.011-.77-.145-.66.194-.017-.053-.095-.135-.113-.214-.161.13-1.051.537-.878.016-.04.12-.114.175-.219.174-.036-.352-.397-.116-.554-.183-.194-.24-.393-.781-.768-.706a.307.307 0 0 1 .088-.12c-.187.089-.222.106-.23-.12.025.575-.573-.14-.661-.233-.19.133-.364.29-.57.389-.005-.168-.115-.386-.09-.551-.32.324-.668.136-.822.57.114-.08.24-.14.373-.177-.417.041 1.193 1.301 1.35 1.339.194.05.841.213.711.336.48.027 1.685.564 1.72.53.11-.11.76.09 1.387.187.398.064 1.308.082 1.64-.364 0 .092.514-.246.568-.171.03-.318.313-.173.347-.355.42-.004 1.2-.409 1.698-.697.139-.058.268-.137.382-.235.047-.029.075-.05.077-.064.524-.495.785-1.293 1.375-1.7.323-.861.968-1.514 1.17-2.448.686-.464.653-1.389 1.295-1.882.096-.32.083-.71.293-.96.922 1.954.254 4.612 2.142 6.232 1.464-.084 2.082-1.243 2.748-2.093l1.735-2.153c.232.528.515.984.694 1.411.175.2.864.852 1.781.625.016-.103-.151-.319-.012-.339.088.07.12.226.257.216.827-.36 1.779-.945 1.474-1.97.167.137.42.156.76.033.02-.638.622-.907.84-1.418.693-.052.638-.987 1.293-1.244 0-.24-.15-.23-.163-.445.683-.42 1.5-1.179 1.475-2.241.247-.177.226-.526.614-.619.008-.674.657-1.006 1.315-.836 1.126 1.229-.267 2.312.33 3.61-.54.23-.185.763-.14 1.198.072.701-.016 1.553.696 1.893.798-.056.68-.656.882-.948.98-.152.93-1.416 1.773-1.835.54-.887.804-1.952 1.59-2.678.013-.156.077-.285.028-.486.649-.52.459-1.564.941-2.189.088.27.412.166.557.348-.132.219 0 .595.076.944-.546 1.395-.398 3.603.494 4.943.406-.052.561-.106.86-.125.083-.336.49-.465.57-.806.949-.525 1.22-1.646 1.933-2.348.217-.112.157-.045.374-.153.044-.291.188-.323.458-.47.102.05.22.065.306.137.227.727.691 1.044 1.006 1.307.231.2.48.595.841.705.136.04.48-.075.68-.02.295.086 1.127.195 1.5.006.114-.055.219-.295.386-.428.495-.407.68-.194.77-.684.12.116.21-.112.403-.024 1.172-1.26 2.402-2.498 2.966-4.143-.094-.028-.153-.114-.188-.231-.82.074-.604.804-1.286.968l.007-.003ZM67.527 78.49c-.01-.136.292-.093.409-.16.167-.7.6-1.405.373-2.192-.544-.02-.438.23-.503.566-.41.022-.173.441-.521.502-.033.208.06.174.099.42a.337.337 0 0 1-.252 0c.137.499-.017.732.395.863Z" fill="#fff"></path>
    <path d="M87.723 83.73c-.263-.13-.365-.65-.314-.966-.06-.36.235-.881.54-1.399.094-.018.19-.033.286-.049.666.676.218 2.022-.512 2.415Zm-28.698-2.798c.128-1.096-.092-2.186.427-3.569.594-.896.336-2.014.72-3.002.214-.035 1.099-2.042 1.086-2.943.813-.59 1.08-1.846 2.213-2.342.741.172.175 1.888.575 2.175.017.185-.227.24-.274.395.607.215-.191.927.106 1.737-.504.087-.268.525-.232.866-.22.025-.154.18-.42.193.04 1.061-1.252 1.832-.816 2.864-.756.24-.48.949-1.09 1.25.088.16.328.353.041.476-.286.123-.187-.12-.147-.2-.486.115-.758 1.025-.585 1.256-.65.48-.685 1.99-1.477 2.634-.262-.255-.173-1.29-.12-1.786l-.007-.004Zm13.053-.594a.276.276 0 0 0 .42-.1c1.353.865-.66 2.258-.947 3.2-.48.217-.46.369-.668.756-.19-.016-.2-.011-.36.087-.067-.038-.077-.162-.165-.157.642-1.233 1.064-2.475 1.718-3.783l.002-.003Zm27.495-4.663c.334-.115.225-3.208-.175-3.123-.103.1-.042.164-.042.164.38.54-.105 2.982-.407 3.603-.112.716-.927 1.264-1.366 1.771-.767.411-1.489.872-2.367 1.41a.864.864 0 0 0-.12.083c-.011.005-.02.013-.029.016a4 4 0 0 0-.451.411c-1.233.352-1.917 1.758-3.418 1.847-.141-.218-.408-.237-.738-.148-1.308-.936.36-3.025.038-4.3.115-.012.114-.1.226-.12-.281-1.14.204-2.785-.78-3.062-.034-.233.272-.017.071-.207-.42.24-.78.96-1.054 1.46-.514.208-.933.93-1.145 1.353-.43.353-.65.837-.834 1.345-.504.286-.506.889-.995 1.192-.08.619-.796.844-.86 1.477-1.051.637-1.362 1.741-2.29 2.452-.004.223-.091.393-.187.557-.262-.112-.351.24-.56.327-.474-.23-.3-1.064.014-1.282-.288-.553.03-.914-.172-1.552.563-1.147.574-2.353.697-3.8-.142-.017-.164-.24-.265-.319-.2.097-.281.004-.348-.109-1.32.22-1.777 1.434-2.739 2.178-.772-.307-.08-1.698-1.004-1.935-.334.495-.462.95-1.089 1.34-.051.503-.455.785-.455 1.32-.079-.036-.069-.215-.222-.137.041.866-.927 1.114-.72 2.083-.487.44-.6 1.3-1.13 1.714.025.101.05.196.074.3-.964.588-1.61 1.735-2.231 2.696-.092.005-.128-.078-.211-.082.049.132.04.233-.066.272-.6.317-.915 1.007-1.695 1.08-.395-.465-.79-1.632.082-1.97.022-.16.213-.59.254-.736.1.065.278 0 .436-.042.52-1.04 1.341-1.827 1.828-2.876.013-.036.161-.008.18-.045.06-.147.004-.475.145-.734.141-.26.518-.623.3-.901a.378.378 0 0 0 .287-.134c.11-.476-.146-.894-.06-1.321-.275-.173-.338-.331-.29-.693-.231-.073-.416-.227-.688-.223-.53.444-1.246.78-1.3 1.52-.213.188-.54.36-.357.654-.208.08-.23.273-.425.36.159.318-.197.32-.038.648-.567.442-.393 1.336-.989 1.761.057.43-.03.77-.416.927-.152 1.234-.72 2.203-1.366 3.128-.098.024-.198.05-.304.073.05.311-.413.44-.216.688-.496.2-.894.854-1.403.521-.023-.254.24-.089.18-.294-.018-.275-.24-.231-.295-.44.03-.225.28-.312.245-.569-.329-.703.218-.9-.078-1.703.475-.342 0-1.27.514-1.589-.02-.1-.046-.2-.07-.3.66-.502.518-1.5 1.11-2.047-.159-.484-.078-.568-.455-.85.159-.038.348-.06.408-.16.012-.263-.18-.205-.218-.392.124-.086.304.148.315-.012-.092.01-.088-.131-.12-.23-.426.06-.535.326-.773.504.088.46-.69 1.077-.591 1.544-.01-.036-.03-.07-.074-.045.125.465-.296.66-.404.984-.08.224.056.572-.176.618.06 1.237-1.18 1.676-1.464 2.703-.29.165-.411.434-.46.746-.71.346-.924 1.681-1.7 1.996 0 .273-.432.282-.29.64-.504.428-1.15.726-1.615.194.016.095.06.204-.079.206-.076-.606-.313-1.137-.707-1.361.172.085.195.079.309-.075.003-.284-.176-.273-.24-.452.32-.277-.028-.687.143-1.033-.347-.88-.08-1.366.043-2.848.586-.925 1.09-2.23 1.2-2.245.3-.49.366-1.821.901-1.995 1.252-2.055 2.037-4.334 3.043-6.508-.149-.25.093-.413-.15-.522.158-.038.274-.092.334-.17-.216-1.202.23-2.097.248-3.196-.834-.447-.18-2.107-1.249-2.402-1.834.43-1.85 1.606-3.045 2.328.009.36-.185.557.054.871-.836.998-1.608 3.548-1.608 3.8-.54 1.064-.615 2.526-.995 3.478 0 .24.21.176.21.42-.545.397-.637 1.245-.394 1.633-.12.024-.157-.06-.293 0 .243.708.102 1.464.198 2.276.08.822-.052 1.776.038 2.487.034.266-2.32 3.27-2.534 3.483-.352.364-.18.477-.454.8-.386-.12-.568.37-.66.653-.093.011-.116-.07-.23-.035-.283.694-1.1 1.005-1.34 1.731-.728.274-3.98 2.96-5.131 2.918-.013.374-.068.148-.296.206-.215.24-.374.66-.508.944.293.05 5.557-1.501 5.635-2.419.546-.156 1.102-.832 1.377-1.386.386-.214.803-.56.781-.879.855-.198.713-1.105 1.453-1.398-.081.29 2.169-2.965 2.194-2.802-.15 1.785-.068 4.437.977 5.644 0-.05.036-.087.105-.087.087.39.484.72.715.594-.05 0-.082-.032-.086-.106.133.06.36-.024.508.008.928-.63 1.593-1.639 2.112-2.667.492-.199.93-.862.984-1.506.431-.048.35-.403.635-.535-.088-.142-.174-.317-.038-.436.113-.042.153.038.26 0 .024-.24.16-.415.382-.54.634 1.276-.287 2.723.46 3.843.47.19.836.01 1.313-.12.22-.522.78-.825 1.027-1.327-.018-.236-.245-.6-.038-.693.12.131.191.36.352.427-.004-.28.29-.375.45-.556.161.124.3.288.473.4-.07.69.614.968 1.067 1.278.408-.102.501-.273.907-.212.384-.254.367-.935 1.095-1.029.075-.26.35-.401.415-.666.385-.12.386-.429.553-.641.14-.188.436-.323.576-.52.186-.262.147-.75.522-.76a.443.443 0 0 1-.016-.314c.544-.563 1.318-1.196 1.261-1.96 1.01-.802.841-2.515 1.875-3.418.461.66-.004.97.372 1.599-.07.075-.216.099-.282.17 0 .708-.634 1.344-.314 1.936-.31.16-.648.537-.41.952-.373-.016-.11.42-.426.448.248.34-.04.614-.038.949.317-.11.377.127.546.228-.051-.263.004-.157.113-.09-.026-.284.12-.447.42-.502.011-.246.072-.454.284-.553-.028-.163-.052-.328-.083-.49.104-.017.205-.036.311-.05-.17-.556.3-.947.06-1.521.162-.072.147.106.267.083.402-1.18.176-1.9 1.071-2.71 0-.25-.294-.197-.16-.411.175-.053.456.016.567.06.312-.53 1.069-.78 1.641-1.152.099.32.075.322.25.516-.647 1.056-.313 2.409-.756 3.558.113.925-.143 1.404-.116 2.195.089.327.364.36.475.652.694.02 1.169-.37 1.276-1.07.583-.153.416-.766 1.064-.884-.054-.463.22-.72.616-.911-.033-.9 1.375-.9 1.213-1.883.298-.027.2-.188.35-.4.529.088.193-.72.781-.756.01-.649.62-.92.873-1.42-.04-.383.167-.622.447-.806-.073.007.069-.452.459-.491a.882.882 0 0 0 .08-.468c-.022-.165.743-.55.947-1.113.498 1.085.183 1.93.084 3.037-1.099-.207-1.246.908-1.606 1.593-.317.08-.386.306-.443.55.129-.04.205.004.228.14-.151.01-.105.138-.29.13-.563 1.155-.931 3.302.507 4.028-.18-.327.093-.378.305-.329.084-.236.203-.459.352-.66.624-.338.473-1.154 1.044-1.525.587.66 2.47.817 2.879-.231.686-.081 1.727-.708 1.915-1.344.218-.085.31.053.463.08.414-.253.547-.95 1.154-.781.005-.155.24-.156.098-.406a.948.948 0 0 0 .433-.324c.382-.337.978-.914 1.33-.93a8.6 8.6 0 0 0 .652-.855c-.074.1.504-.752.61-.737.11-.18.235-.22.13-.427.187.124.105-.13.265-.307.082-.357.26-.559.407-.726.004.043.082-.154-.114-.44l.001.012Z" fill="#fff"></path>
    <path d="M53.185 82.436a.08.08 0 0 1-.016-.05h.037l-.021.05Zm-7.74-.83c-.074.025-.087-.033-.15-.026.006.388-.79 1-.637 1.494a.13.13 0 0 1-.09.056.132.132 0 0 1-.1-.027c-.253.646-.968 1.124-1.049 1.755-.245.034-.248.245-.33.398-.216-.158-.37.13-.498.281a.42.42 0 0 0-.369-.137c-.02-.246-.073-.447-.27-.45-.28-1.192.924-2.3 1.026-3.339.413-.225.522-.666.716-1.053.1-.043.082.08.16.073.189-.128.215-.262.114-.515.437-.004.294-.624.65-.551.033-.165-.16-.01-.126-.175.606.18 1.06-.726 1.586-.265-.074.347.112.795 0 1.192-.402.296-.45.836-.633 1.29Zm4.735-2.055c0-.465.744-.65.64-1.152.998-.966 1.57-.457 1.664.223.077.561-.626.56-.75 1.056-.38.069-.59.269-.595.633-.252 0-1.19.624-1.366.499-.177-.126.405-.996.407-1.261v.002Zm5.164-.148c-.047-.025-.098-.028-.224.024l-.3.61c.1.307-.223.457-.276.68-.173.149-.339.369-.532.578a.267.267 0 0 0 .006-.03c-.832.788-2.402 1.973-3.663 2.683-.007-.052-.01-.1-.022-.152-.616.184-.92-.006-1.226-.225 0-.364-.13-1.235.081-1.436.177-.028.315-.195.492-.225.12.004.113.165.27.128.301-.079.071-.288.316-.4.106.025.044.255.223.18.136-.03.067-.22.175-.275.555.15.81-.69 1.392-.828.086-.253.31-.393.274-.75.143-.021.145-.154.444-.15.101-.172.028-.24.056-.42.715-.294.506-1.06.72-1.77-.243-.297-.112-.39-.25-.846-.156-.007-.368-.12-.18-.24-.1-.082-.146.04-.245.08-.101-.089-.145-.24-.247-.33-.183.1-.468.022-.711.03-.294.44-.954.59-1.044 1.198-.556-.045-.336.77-.977.88.087.558-.415.646-.549 1.034.13.625-.513.634-.42 1.228l-.202.023c.127.36-.155.403-.24.592-.105.656-.727 1.034-.675 1.715-.652.268-.504.666-1.027 1.012-.493-.685-.396-1.782-.09-2.358.034-.222-.2-.195-.103-.334.26.012.514-.326.37-.75.111-.034.064-.18.219-.183-.081-.575.198-1.261.31-1.732.07-.312 0-.628.065-.802.025-.073.15-.104.169-.174.06-.229-.01-.6.06-.855.047-.163.136-.175.146-.316.02-.263-.092-.52-.026-.776 0-.014.129-.038.137-.064.066-.148.02-.39.187-.516-.248-.504.615-3.608.676-4.088-.005-.065-.085-.035-.109-.083.041-.12.18-.159.218-.272-.197-.132.036-.519-.306-.504-.028.12-.062.24-.105.356-.019-.087-.05-.158-.12-.18.024.219-.164.505-.42.635-.226.743-.99 4.374-1.16 5.033-.014-.038-.012-.095-.06-.092a.257.257 0 0 0 .072.186c-.406.42.009 1.256-.69 1.436-.103 0-.12-.113-.18-.168-.199.134-.353.262-.617.151-.038.072-.06.156-.115.215-.204.137-.467.197-.635.352-.375.346-.641 1.236-1.197 1.43.018.115-.06.16 0 .3-.336.042-.201.42-.568.44-.12-.056-.12-.263-.291-.249-.46.565-.652 1.337-1.086 1.809.087.6 0 .84-.188 1.267.04.12.168.12.192.266a.137.137 0 0 1-.142.057.137.137 0 0 1-.05-.022c-.09.388-.294.942-.14 1.257-.075.004-.057-.12-.158-.074.003.146.017.3-.092.36 0 .18.19.092.196.266-.067.004-.079-.052-.156-.026-.039.654-.08 1.084.21 1.6.3-.084.407.103.62.144.135-.09-.035-.136.111-.218.206-.06.397-.05.654.044.12-.153.461-.268.65-.255.12-.396.817-.549.617-1.042.099-.1.297-.124.41-.215-.12.013-.036-.158.026-.152.502 0 .447-1.154 1.08-.92.084.593.278 1.165.573 1.686.502 0 .568-.11.882-.343.211-.912.815-1.004 1.151-1.886.395.729.745 1.972 1.982 1.621.162-.192.308-.398.72-.392.028-.388.66-.3.636-.736.02.085.1.106.214.08-.06-.3.12-.134.336-.192.08-.38.562-.445.9-.617-.014-.46.272-.713.58-.787.024-.138-.084-.108-.143-.144.042-.031.086-.06.138-.096a.552.552 0 0 0 .253-.13.66.66 0 0 1 .365-.072c-.004-.067.098-.078.026-.18a.425.425 0 0 0 .18-.16c.153-.164.42-.526.566-.575.094-.18.24-.48.223-.42-.015.051.262-.852.312-.94.007.02.022-.071-.09-.178.134-.08.096-.154.165-.32l.001-.001ZM86.367 46.597c-.018-.144-.018-.31-.025-.463-.018-.36.166-.445.401-.726.12.028.398.67.337 1.007-.023.12-.129.226-.24.327-.086.08-.448.044-.475-.145h.002Zm-1.772-.649c-.098.02-.215.03-.321.041-.252.033-.322-.09-.533-.24.012-.084.451-.315.69-.291a.48.48 0 0 1 .244.152c.06.055.054.31-.08.34v-.002Zm3.483-4.153c.132-.06.847.365 1.02.726.114.23-.06.612-.055.84-.31.16-.584-.269-.844-.595-.26-.327-.15-.54-.12-.972h-.001Zm4.053 3.157c.255.1.537.198.77.316.31.157.152.791-.03.893-.232.125-.48.24-.7.21-.6-.092-1.536-.945-1.51-1.164.62-.236.879-.491 1.47-.255Zm-.72-3.507c.12-.024.646.44.732.768.031.12-.02.263-.074.399-.045.107-.388.232-.494.07-.078-.12-.148-.272-.22-.406-.165-.316-.037-.475.056-.831ZM83.019 61.61c2.392-2.214 4.849-3.867 7.903-5.044 3.183-1.223 6.51-2.092 9.641-3.447.877-.38 1.826-.785 2.682-1.299-3.003-7.598-10.48-16.333-15.706-18.211-7.807-2.812-15.343-.831-20.465 1.952.73.787 1.437 1.588 2.102 2.347 1.501 1.709 3.436 3.55 4.352 4.087.697.412 1.522.305 2.402.18.748-.102 1.728.013 2.125-.013.78-.051 1.348-.087 1.89-.08.455.005.87-.024 1.235-.052.802-.06 1.381-.1 1.802.245.244.202.33.47.24.758-.125.395-.617.852-1.399.913-.685.055-1.374.26-2.335.605-.614.221-.87.17-1.246.538-.443.435-.943.924-.624 2.01.266.9.933 1.685 1.882 2.204.83.458 1.714.886 2.528.887.272 0 .557.02.855.034.89.047 1.896.106 2.949-.213.682-.208 1.548-.345 1.757.172a.674.674 0 0 1-.007.54c-.315.732-1.751 1.3-2.365 1.541l-.022.007c-.814.32-1.801.293-2.75.269l-.554-.015c-.763-.009-1.73-.296-2.508-.523-.882-.26-.96-.222-1.051 0l-.004.008-.004.013a.318.318 0 0 0 .06.256c.43.595 3.175.904 3.203.906l.447.047c1.054.112 1.959.208 2.942.24.208.005.455 0 .721-.009.77-.024 1.821-.054 2.052.346.11.19.036.497-.219.907-.235.379-1.19.951-2.031.96l-.347.005c-1.39.022-3.979.06-6.064-.582a9.337 9.337 0 0 1-1.096-.407c-1.033-.48-1.577-.674-1.666-.515-.09.158.2.374 1.062.755.595.263 1.334.486 1.712.615.605.21 2.57.604 3.843.557.507-.019 1.035-.018 1.48.213.216.117.152.624.009.9-.204.383-.949.554-1.193.609-.57.131-3.636-.24-4.071-.33-.766-.153-1.905-.6-2.009-.442-.164.254 2.47 1.2 2.56 1.26.15.094.46.291.511.613.022.151-.083.412-.322.596-.185.14-.78.42-1.388.161-1.005-.432-3.543-1.665-4.804-2.825-1.09-1.008-2.489-2.681-3.956-4.66-.57-.77-1.141-2.04-1.642-3.167l-.031-.071c-.901-2.018-1.316-2.642-1.47-2.873a1.721 1.721 0 0 1-.047-.074c-.192-.439-3.123-3.379-3.753-3.818l-.53-.368c-.428-.296-.996-.69-1.468-1.028a3.615 3.615 0 0 0-.18.392c-1.115 3.096 6.069 20.04 18.277 24.208.208-.163.412-.332.61-.51 1.194-1.062 2.324-2.191 3.5-3.28h-.007ZM88.203 64.208c-.227-.678.164-2.101.405-2.193.552.5.945.646 1.036 1.316 1.938-1.723 3.96-3.298 6.42-4.263 2.748-1.075 5.665-1.747 8.4-2.866a16.253 16.253 0 0 0-.377-1.868c-.312.18-.626.36-.944.524-3.161 1.622-6.646 2.359-9.87 3.82-3.264 1.48-5.653 3.755-8.183 6.22-.46.45-.947.934-1.455 1.417.898.05 1.798.048 2.695-.004.693-.6 1.37-1.213 2.046-1.833a.787.787 0 0 1-.173-.269Z" fill="#fff"></path>
    <path d="M99.665 60.892c-.129-.381-.108-.945-.017-1.474-.766.277-1.526.562-2.282.88-3.1 1.304-5.387 3.339-7.765 5.622 4.115-.733 8.1-2.33 10.916-4.187a.222.222 0 0 1-.06-.023c-.342-.233-.68-.491-.789-.818h-.003ZM85.202 63.178c2.118-2.003 4.292-3.945 6.998-5.12l.315-.13-.031-.195c-.076-.42.127-.553.369-.927.107.012.373.416.493.787 2.918-1.11 6.005-1.795 8.818-3.162a22.705 22.705 0 0 0 1.681-.921 21 21 0 0 0-.444-1.297c-.676.427-1.382.806-2.112 1.134-3.105 1.39-6.386 2.306-9.547 3.557-3.383 1.337-6.093 3.129-8.702 5.666-1.017.99-2.073 2.102-3.209 3.117.695.198 1.402.35 2.117.458.06-.046.12-.09.173-.138 1.058-.906 2.064-1.868 3.077-2.83h.004ZM101.604 59.827c.035.348.083.714.1 1.057 1.312-1.031 2.241-2.116 2.62-3.154a82.88 82.88 0 0 1-3.103 1.135c.205.236.34.514.383.961Z" fill="#fff"></path>
</svg>
