<svg width="76" height="77" viewBox="0 0 76 77" fill="none" xmlns="http://www.w3.org/2000/svg">
    <g clip-path="url(#clip0_306_779)">
        <path d="M35.7953 15.1027L29.2953 21.6127C28.891 22.0193 28.6641 22.5694 28.6641 23.1427C28.6641 23.7161 28.891 24.2661 29.2953 24.6727L32.2953 27.6727C32.7019 28.077 33.252 28.3039 33.8253 28.3039C34.3987 28.3039 34.9486 28.077 35.3552 27.6727L42.1953 20.8327C43.3515 19.6767 44.7942 18.8489 46.3757 18.4342C47.9572 18.0195 49.6206 18.0328 51.1953 18.4727L57.6252 12.0327C54.1513 10.0876 50.1356 9.33466 46.193 9.88912C42.2503 10.4436 38.598 12.2749 35.7953 15.1027Z" stroke="#C8C7C5" stroke-miterlimit="10"/>
        <path d="M55.0255 34.0527L48.3755 40.6927C47.9798 41.0916 47.7578 41.6308 47.7578 42.1927C47.7578 42.7546 47.9798 43.2938 48.3755 43.6927L51.3755 46.6927C51.7744 47.0884 52.3136 47.3104 52.8755 47.3104C53.4374 47.3104 53.9765 47.0884 54.3755 46.6927L61.2355 39.8327C64.1156 36.9418 65.9109 33.1463 66.319 29.086C66.727 25.0257 65.7227 20.9489 63.4755 17.5427L57.2155 23.8027C57.8818 25.5399 58.0296 27.4331 57.6409 29.2526C57.2521 31.0721 56.3436 32.7396 55.0255 34.0527Z" stroke="#C8C7C5" stroke-miterlimit="10"/>
        <path d="M51.0956 18.4227L49.4156 20.1027C49.0611 20.4747 48.8633 20.9688 48.8633 21.4827C48.8633 21.9966 49.0611 22.4908 49.4156 22.8627L52.4156 25.8627C52.7876 26.2173 53.2818 26.4151 53.7957 26.4151C54.3095 26.4151 54.8037 26.2173 55.1757 25.8627L57.1757 23.8627" stroke="#C8C7C5" stroke-miterlimit="10"/>
        <path d="M63.4449 17.5527L74.1449 6.84273C74.3272 6.66315 74.472 6.44908 74.5708 6.21303C74.6696 5.97697 74.7206 5.72364 74.7206 5.46773C74.7206 5.21182 74.6696 4.95845 74.5708 4.7224C74.472 4.48634 74.3272 4.27231 74.1449 4.09273L71.1449 1.09273C70.7729 0.738149 70.2788 0.540329 69.7649 0.540329C69.251 0.540329 68.7568 0.738149 68.3849 1.09273L57.5049 11.9727" stroke="#C8C7C5" stroke-miterlimit="10"/>
        <path d="M21.0251 42.4827L27.6752 35.8327C28.0709 35.4338 28.2928 34.8946 28.2928 34.3327C28.2928 33.7708 28.0709 33.2317 27.6752 32.8327L24.6752 29.8327C24.2762 29.437 23.7371 29.215 23.1752 29.215C22.6133 29.215 22.0741 29.437 21.6752 29.8327L14.8152 36.6927C11.9335 39.5824 10.1363 43.3773 9.72644 47.4376C9.31658 51.498 10.3192 55.5754 12.5652 58.9827L18.8252 52.7227C18.1596 50.9864 18.0132 49.0939 18.4038 47.2758C18.7944 45.4578 19.7051 43.7925 21.0251 42.4827Z" stroke="#C8C7C5" stroke-miterlimit="10"/>
        <path d="M46.745 51.8327L43.745 48.8327C43.3384 48.4285 42.7883 48.2016 42.215 48.2016C41.6416 48.2016 41.0916 48.4285 40.6851 48.8327L33.855 55.6727C32.6981 56.8279 31.2558 57.6557 29.6748 58.072C28.0938 58.4884 26.4308 58.4783 24.855 58.0427L18.415 64.4727C21.8834 66.3872 25.8815 67.1184 29.803 66.5553C33.7245 65.9923 37.3554 64.1657 40.145 61.3527L46.645 54.8527C47.0556 54.4637 47.2963 53.9285 47.3151 53.3632C47.3338 52.7979 47.1289 52.2481 46.745 51.8327Z" stroke="#C8C7C5" stroke-miterlimit="10"/>
        <path d="M24.9553 58.1127L26.6252 56.4327C26.8079 56.2523 26.9529 56.0374 27.0519 55.8005C27.1508 55.5636 27.2018 55.3094 27.2018 55.0527C27.2018 54.796 27.1508 54.5418 27.0519 54.3049C26.9529 54.0681 26.8079 53.8532 26.6252 53.6727L23.6252 50.6727C23.2533 50.3182 22.7591 50.1203 22.2452 50.1203C21.7314 50.1203 21.2372 50.3182 20.8652 50.6727L18.8652 52.6727" stroke="#C8C7C5" stroke-miterlimit="10"/>
        <path d="M12.5951 58.9727L1.89514 69.6827C1.54056 70.0546 1.34277 70.5488 1.34277 71.0627C1.34277 71.5766 1.54056 72.0708 1.89514 72.4427L4.89514 75.4427C5.26709 75.7973 5.76126 75.9951 6.27515 75.9951C6.78903 75.9951 7.2832 75.7973 7.65515 75.4427L18.5352 64.5627" stroke="#C8C7C5" stroke-miterlimit="10"/>
        <path d="M21.1449 21.5627L16.0449 16.4627" stroke="#C8C7C5" stroke-miterlimit="10"/>
        <path d="M24.7256 19.3527V12.1327" stroke="#C8C7C5" stroke-miterlimit="10"/>
        <path d="M18.8255 24.9327H11.6055" stroke="#C8C7C5" stroke-miterlimit="10"/>
    </g>
    <defs>
        <clipPath id="clip0_306_779">
            <rect width="74.4" height="76.46" fill="white" transform="translate(0.825195 0.0327148)"/>
        </clipPath>
    </defs>
</svg>
