<svg width="91" height="92" viewBox="0 0 91 92" fill="none" xmlns="http://www.w3.org/2000/svg">
<g clip-path="url(#clip0_306_737)">
<path d="M45.4459 90.7522C54.3208 90.7542 62.9969 88.1243 70.3771 83.1951C77.7572 78.2659 83.5098 71.2589 86.9075 63.0602C90.3051 54.8614 91.1952 45.8392 89.465 37.1346C87.7348 28.4301 83.4622 20.4341 77.1874 14.1579C70.9126 7.88171 62.9175 3.60725 54.2133 1.87512C45.5091 0.142988 36.4867 1.031 28.2872 4.42681C20.0877 7.82262 13.0794 13.5737 8.14856 20.9528C3.21774 28.3318 0.585938 37.0073 0.585938 45.8822C0.585937 57.7807 5.31189 69.1921 13.7245 77.6066C22.1371 86.021 33.5474 90.7495 45.4459 90.7522Z" stroke="#C8C7C5" stroke-miterlimit="10"/>
<path d="M31.8055 36.3222C33.7003 36.3222 35.5525 35.7604 37.1279 34.7077C38.7034 33.655 39.9312 32.1588 40.6562 30.4083C41.3813 28.6578 41.5711 26.7316 41.2014 24.8733C40.8318 23.015 39.9194 21.3079 38.5796 19.9681C37.2398 18.6283 35.5329 17.716 33.6746 17.3463C31.8162 16.9767 29.8899 17.1664 28.1394 17.8915C26.3889 18.6166 24.8928 19.8444 23.8401 21.4199C22.7874 22.9953 22.2256 24.8475 22.2256 26.7422C22.2256 29.283 23.2349 31.7197 25.0315 33.5163C26.8281 35.3129 29.2648 36.3222 31.8055 36.3222Z" stroke="#C8C7C5" stroke-miterlimit="10"/>
<path d="M54.5857 73.3722C57.8084 73.3742 60.9592 72.4202 63.6397 70.631C66.3201 68.8418 68.4096 66.2977 69.6438 63.3207C70.878 60.3437 71.2014 57.0675 70.5731 53.9066C69.9449 50.7458 68.3932 47.8422 66.1144 45.5634C63.8356 43.2846 60.9321 41.7329 57.7712 41.1047C54.6104 40.4765 51.3342 40.7999 48.3572 42.0341C45.3802 43.2683 42.8361 45.3578 41.0469 48.0382C39.2577 50.7186 38.3037 53.8695 38.3057 57.0922C38.3057 61.4099 40.0209 65.5508 43.074 68.6039C46.1271 71.657 50.268 73.3722 54.5857 73.3722Z" stroke="#C8C7C5" stroke-miterlimit="10"/>
<path d="M65.4056 37.6022C66.5211 37.6022 67.6116 37.2714 68.5391 36.6517C69.4666 36.032 70.1895 35.1511 70.6163 34.1205C71.0432 33.09 71.1549 31.956 70.9373 30.8619C70.7196 29.7679 70.1826 28.7629 69.3938 27.9741C68.605 27.1853 67.6 26.6482 66.506 26.4306C65.4119 26.213 64.2779 26.3246 63.2473 26.7515C62.2167 27.1784 61.3359 27.9013 60.7162 28.8288C60.0965 29.7563 59.7656 30.8467 59.7656 31.9622C59.7643 32.7032 59.9093 33.4372 60.1923 34.1221C60.4752 34.807 60.8907 35.4292 61.4147 35.9532C61.9387 36.4772 62.5609 36.8926 63.2457 37.1756C63.9306 37.4585 64.6646 37.6035 65.4056 37.6022Z" stroke="#C8C7C5" stroke-miterlimit="10"/>
<path d="M17.9762 44.5322C18.8152 44.5342 19.6359 44.2872 20.3345 43.8225C21.0331 43.3578 21.5781 42.6963 21.9005 41.9218C22.223 41.1472 22.3084 40.2943 22.1459 39.4712C21.9834 38.6481 21.5804 37.8916 20.9878 37.2977C20.3952 36.7037 19.6398 36.2989 18.817 36.1345C17.9943 35.97 17.1412 36.0534 16.3659 36.374C15.5905 36.6946 14.9278 37.2381 14.4614 37.9355C13.9951 38.633 13.7461 39.4532 13.7461 40.2922C13.7448 40.8486 13.8533 41.3997 14.0653 41.9141C14.2773 42.4284 14.5887 42.8959 14.9816 43.2897C15.3745 43.6836 15.8413 43.9961 16.3551 44.2093C16.869 44.4225 17.4199 44.5322 17.9762 44.5322Z" stroke="#C8C7C5" stroke-miterlimit="10"/>
<path d="M54.5858 69.1922C55.2682 69.1922 55.9352 68.9899 56.5026 68.6108C57.0699 68.2317 57.5121 67.6929 57.7732 67.0625C58.0343 66.4321 58.1026 65.7384 57.9695 65.0692C57.8364 64.3999 57.5078 63.7852 57.0253 63.3027C56.5428 62.8202 55.928 62.4916 55.2588 62.3585C54.5896 62.2254 53.8959 62.2937 53.2655 62.5549C52.6351 62.816 52.0963 63.2582 51.7172 63.8255C51.3381 64.3929 51.1357 65.0599 51.1357 65.7423C51.1384 66.6564 51.5027 67.5324 52.1492 68.1788C52.7956 68.8253 53.6716 69.1896 54.5858 69.1922Z" stroke="#C8C7C5" stroke-miterlimit="10"/>
<path d="M63.2157 63.9822C63.8997 63.9902 64.5706 63.7946 65.1432 63.4204C65.7158 63.0461 66.1641 62.5101 66.4314 61.8804C66.6987 61.2508 66.7727 60.5559 66.6442 59.884C66.5156 59.2122 66.1902 58.5937 65.7094 58.1072C65.2285 57.6207 64.6139 57.2881 63.9436 57.1517C63.2733 57.0153 62.5776 57.0813 61.9448 57.3412C61.3121 57.6011 60.7709 58.0432 60.39 58.6114C60.0091 59.1796 59.8057 59.8482 59.8057 60.5322C59.803 61.4411 60.1602 62.3141 60.7991 62.9606C61.438 63.607 62.3068 63.9743 63.2157 63.9822Z" stroke="#C8C7C5" stroke-miterlimit="10"/>
<path d="M45.4464 84.0122C52.9878 84.0122 60.3598 81.776 66.6302 77.5862C72.9007 73.3964 77.788 67.4413 80.674 60.4739C83.5599 53.5066 84.315 45.8399 82.8438 38.4434C81.3725 31.0469 77.7409 24.2528 72.4083 18.9202C67.0757 13.5876 60.2816 9.95611 52.8851 8.48486C45.4886 7.01361 37.8221 7.76875 30.8547 10.6547C23.8874 13.5407 17.9322 18.4279 13.7424 24.6983C9.55265 30.9687 7.31641 38.3408 7.31641 45.8822C7.31641 55.9949 11.3336 65.6935 18.4844 72.8442C25.6351 79.995 35.3337 84.0122 45.4464 84.0122Z" stroke="#C8C7C5" stroke-miterlimit="10"/>
<path d="M52.9255 53.2622C53.6079 53.2622 54.2749 53.0599 54.8423 52.6808C55.4096 52.3017 55.8518 51.7629 56.1129 51.1325C56.374 50.5021 56.4423 49.8084 56.3092 49.1392C56.1761 48.4699 55.8476 47.8552 55.3651 47.3727C54.8826 46.8902 54.2679 46.5617 53.5986 46.4285C52.9294 46.2954 52.2356 46.3637 51.6052 46.6248C50.9748 46.886 50.4361 47.3282 50.057 47.8955C49.6779 48.4629 49.4756 49.1299 49.4756 49.8123C49.4782 50.7265 49.8425 51.6024 50.4889 52.2489C51.1353 52.8953 52.0114 53.2596 52.9255 53.2622Z" stroke="#C8C7C5" stroke-miterlimit="10"/>
</g>
<defs>
<clipPath id="clip0_306_737">
<rect width="90.73" height="90.73" fill="white" transform="translate(0.0859375 0.522217)"/>
</clipPath>
</defs>
</svg>
