<svg width="79" height="67" viewBox="0 0 79 67" fill="none" xmlns="http://www.w3.org/2000/svg">
    <g clip-path="url(#clip0_306_839)">
        <path d="M4.76995 30.4931C-0.320047 24.0831 0.209982 13.3931 7.04998 6.56313C10.88 2.77313 23.64 -2.52687 32.17 6.56313" stroke="#C8C7C5" stroke-miterlimit="10"/>
        <path d="M73.5999 7.38312C77.2899 9.66312 79.8099 19.7831 74.9199 27.2231L69.9199 33.5431" stroke="#C8C7C5" stroke-miterlimit="10"/>
        <path d="M53.1504 27.2131C61.0104 33.7031 69.0404 39.6131 71.0704 41.2931C73.6004 43.3831 74.2404 46.0731 72.7904 47.6331C71.3404 49.1931 68.9404 49.3731 65.9004 46.8631C63.4704 44.8631 64.9004 46.5231 59.5304 42.0631" stroke="#C8C7C5" stroke-miterlimit="10"/>
        <path d="M65.2596 46.5131C67.8296 48.6431 68.4997 51.3531 67.0497 52.9131C65.5997 54.4731 63.1797 54.6431 60.0497 52.0831C57.5797 50.0831 59.4197 51.8331 53.9297 47.2931" stroke="#C8C7C5" stroke-miterlimit="10"/>
        <path d="M59.55 51.7331C62.04 53.7931 62.6601 56.4531 61.2001 58.0231C59.7401 59.5931 57.37 59.7731 54.38 57.3031C51.98 55.3031 54.1501 57.2331 48.8301 52.8331" stroke="#C8C7C5" stroke-miterlimit="10"/>
        <path d="M56.2703 58.6931C58.1903 60.2831 58.4003 62.6031 56.9503 64.1731C55.5003 65.7431 53.4002 66.1731 51.1002 64.2631C49.2602 62.7431 50.3703 63.9031 46.2803 60.5231" stroke="#C8C7C5" stroke-miterlimit="10"/>
        <path d="M30.4598 63.1731C32.7798 65.3531 35.2397 64.0031 39.3797 59.6231C41.6897 56.4231 42.2398 54.2131 40.5798 52.5631C38.9198 50.9131 36.1698 49.8031 33.0498 53.6531C28.6898 58.2831 28.1498 60.9931 30.4598 63.1731Z" stroke="#C8C7C5" stroke-miterlimit="10"/>
        <path d="M23.0098 56.5031C25.3298 58.6931 27.7998 57.3431 31.9398 52.963C34.2498 49.763 34.7998 47.5531 33.1398 45.9031C31.4798 44.2531 28.7298 43.1431 25.6098 46.9931C21.2498 51.6231 20.6898 54.3131 23.0098 56.5031Z" stroke="#C8C7C5" stroke-miterlimit="10"/>
        <path d="M15.2904 49.8831C17.6104 52.0731 20.0804 50.7231 24.2104 46.3431C26.5204 43.1431 27.0704 40.9332 25.4204 39.2732C23.7704 37.6132 21.0003 36.5231 17.8803 40.3731C13.5203 44.9931 12.9704 47.6931 15.2904 49.8831Z" stroke="#C8C7C5" stroke-miterlimit="10"/>
        <path d="M8.67026 43.2631C10.9903 45.4531 13.4602 44.1031 17.5902 39.7231C19.9002 36.5231 20.4503 34.3131 18.8003 32.6531C17.1503 30.9931 14.3802 29.8931 11.2602 33.7531C6.90023 38.3731 6.35026 41.0731 8.67026 43.2631Z" stroke="#C8C7C5" stroke-miterlimit="10"/>
        <path d="M67.7202 3.59306C60.6402 3.59306 61.6103 0.373119 54.2003 1.02312C46.7903 1.67312 34.8802 12.9331 29.7302 18.7331C26.9502 21.8531 27.5902 24.9431 29.2302 26.7331C31.9402 29.6431 36.2302 28.8431 41.5002 21.5831C43.2302 22.1631 47.5002 23.4431 50.7402 21.3631C53.3661 19.6197 55.788 17.5869 57.9603 15.3031" stroke="#C8C7C5" stroke-miterlimit="10"/>
    </g>
    <defs>
        <clipPath id="clip0_306_839">
            <rect width="77.26" height="65.59" fill="white" transform="translate(0.870117 0.433105)"/>
        </clipPath>
    </defs>
</svg>
