<?xml version="1.0" encoding="UTF-8" standalone="no"?>
<svg
   width="103.41209"
   height="103.41209"
   viewBox="0 0 103.41209 103.41209"
   fill="none"
   version="1.1"
   id="svg20"
   sodipodi:docname="logo_square.svg"
   inkscape:version="1.1.2 (0a00cf5339, 2022-02-04)"
   inkscape:export-filename="/home/maxime/repos/TelesCoop-site-vitrine/img/logo_square.png"
   inkscape:export-xdpi="59.41"
   inkscape:export-ydpi="59.41"
   xmlns:inkscape="http://www.inkscape.org/namespaces/inkscape"
   xmlns:sodipodi="http://sodipodi.sourceforge.net/DTD/sodipodi-0.dtd"
   xmlns="http://www.w3.org/2000/svg"
   xmlns:svg="http://www.w3.org/2000/svg">
  <defs
     id="defs24" />
  <sodipodi:namedview
     id="namedview22"
     pagecolor="#ffffff"
     bordercolor="#666666"
     borderopacity="1.0"
     inkscape:pageshadow="2"
     inkscape:pageopacity="0.0"
     inkscape:pagecheckerboard="0"
     showgrid="false"
     fit-margin-top="0"
     fit-margin-left="0"
     fit-margin-right="0"
     fit-margin-bottom="0"
     inkscape:zoom="3.1818182"
     inkscape:cx="16.028571"
     inkscape:cy="-5.1857143"
     inkscape:window-width="1920"
     inkscape:window-height="1016"
     inkscape:window-x="0"
     inkscape:window-y="0"
     inkscape:window-maximized="1"
     inkscape:current-layer="svg20" />
  <g
     id="g217"
     transform="translate(0,12.390647)">
    <g
       id="g167"
       transform="matrix(1.1788791,0,0,1.1788791,-1.9828601,-5.0573329)"
       inkscape:export-filename="/home/maxime/repos/TelesCoop-site-vitrine/img/logo_square.png"
       inkscape:export-xdpi="59.41"
       inkscape:export-ydpi="59.41">
      <path
         d="m 23.051725,55.043375 c -0.04,1.262 -0.338,2.5023 -0.875,3.6451 -0.537,1.1429 -1.301,2.1643 -2.246,3.0018 -2.093,1.6922 -4.735,2.5556 -7.423,2.4258 -1.489,0.0706 -2.9750004,-0.1985 -4.3449999,-0.7869 -1.3699995,-0.5884 -2.5889995,-1.4807 -3.5629995,-2.6093 -2.058,-2.6475 -3.087,-5.9513 -2.895,-9.2992 v -1.6172 c -0.041,-2.2853 0.411,-4.5525 1.326,-6.64688 0.802,-1.82023 2.132,-3.35811 3.817,-4.41504 1.716999,-1.082097 3.7109994,-1.643793 5.7409994,-1.617243 2.648,-0.125234 5.248,0.739503 7.294,2.425863 1.928,1.7583 3.089,4.20296 3.234,6.80853 h -5.401 c 0.004,-1.35615 -0.498,-2.66503 -1.407,-3.67107 -1.038,-0.83973 -2.357,-1.25062 -3.688,-1.14828 -0.783,-0.04906 -1.566,0.10355 -2.274,0.4433 -0.7080004,0.33975 -1.3170004,0.85533 -1.7690004,1.49741 -1.0219995,1.82738 -1.498999,3.90971 -1.373999,6.00001 v 1.973 c -0.156,2.145 0.2919995,4.2907 1.2929995,6.1941 0.4399995,0.6562 1.0459995,1.1843 1.7559999,1.5308 0.71,0.3465 1.499,0.499 2.287,0.4421 1.346,0.1018 2.68,-0.3082 3.736,-1.1481 0.905,-0.951 1.408,-2.2135 1.407,-3.5257 z"
         fill="#1e1c1c"
         id="path10" />
      <path
         d="m 27.320725,54.202575 c -0.035,-1.7277 0.336,-3.4395 1.084,-4.9973 0.669,-1.4094 1.745,-2.58642 3.089,-3.38002 1.429,-0.82219 3.057,-1.23614 4.706,-1.19674 1.138,-0.04474 2.273,0.13816 3.34,0.53806 1.066,0.3999 2.042,1.00877 2.87,1.7908 1.661,1.6934 2.62,3.9522 2.685,6.3233 v 1.2776 c 0.119,2.5366 -0.744,5.0218 -2.41,6.9381 -1.742,1.6647 -4.059,2.5937 -6.469,2.5937 -2.41,0 -4.727,-0.929 -6.469,-2.5937 -1.697,-1.9635 -2.567,-4.5084 -2.426,-7.0998 z m 5.014,0.3557 c -0.09,1.4363 0.265,2.8653 1.018,4.0917 0.337,0.4394 0.771,0.7953 1.267,1.0403 0.496,0.245 1.042,0.3724 1.596,0.3724 0.553,0 1.1,-0.1274 1.596,-0.3724 0.496,-0.245 0.93,-0.6009 1.266,-1.0403 0.793,-1.3533 1.154,-2.916 1.035,-4.4798 0.08,-1.4323 -0.281,-2.8547 -1.035,-4.0755 -0.319,-0.4635 -0.75,-0.8386 -1.254,-1.0903 -0.503,-0.2517 -1.062,-0.3717 -1.624,-0.3489 -0.559,-0.0265 -1.114,0.0921 -1.613,0.3444 -0.499,0.2522 -0.924,0.6294 -1.234,1.0948 -0.783,1.3505 -1.138,2.9069 -1.018,4.4636 z"
         fill="#1e1c1c"
         id="path12" />
      <path
         d="m 49.411725,54.202575 c -0.029,-1.7254 0.336,-3.4347 1.068,-4.9973 0.68,-1.4073 1.76,-2.58281 3.105,-3.38003 1.429,-0.82375 3.057,-1.23781 4.706,-1.19674 1.138,-0.04383 2.273,0.13949 3.34,0.53934 1.066,0.39986 2.042,1.00824 2.87,1.78953 1.661,1.6934 2.62,3.9522 2.685,6.3233 v 1.2776 c 0.122,2.5398 -0.748,5.0277 -2.426,6.9381 -1.738,1.6721 -4.057,2.6062 -6.469,2.6062 -2.412,0 -4.73,-0.9341 -6.469,-2.6062 -1.697,-1.9635 -2.566,-4.5084 -2.426,-7.0998 z m 5.014,0.3557 c -0.087,1.4338 0.263,2.8603 1.002,4.0917 0.325,0.4608 0.761,0.8325 1.266,1.0812 0.506,0.2486 1.066,0.3663 1.629,0.342 0.555,0.0223 1.106,-0.0948 1.603,-0.3407 0.497,-0.2458 0.925,-0.6124 1.244,-1.0663 0.786,-1.3555 1.141,-2.9178 1.019,-4.4798 0.083,-1.4306 -0.272,-2.8525 -1.019,-4.0755 -0.32,-0.4624 -0.752,-0.8367 -1.255,-1.0883 -0.503,-0.2515 -1.062,-0.3722 -1.624,-0.351 -0.561,-0.0293 -1.12,0.0879 -1.622,0.3403 -0.502,0.2524 -0.929,0.6312 -1.241,1.099 -0.766,1.3509 -1.115,2.8984 -1.002,4.4474 z"
         fill="#1e1c1c"
         id="path14" />
      <path
         d="m 89.002725,54.542175 c 0.13,2.4725 -0.564,4.9182 -1.973,6.9542 -0.604,0.8395 -1.406,1.5175 -2.333,1.9744 -0.928,0.4568 -1.954,0.6785 -2.988,0.6455 -0.867,0.0287 -1.73,-0.1347 -2.527,-0.4786 -0.797,-0.3439 -1.508,-0.8598 -2.082,-1.5106 v 8.8625 h -5.013 v -26.02147 h 4.657 l 0.178,1.84367 c 0.571,-0.70581 1.297,-1.27018 2.122,-1.64892 0.824,-0.37874 1.725,-0.56156 2.633,-0.53431 1.042,-0.04766 2.08,0.16196 3.022,0.61042 0.942,0.44845 1.759,1.1219 2.379,1.96091 1.397,2.088 2.073,4.5757 1.925,7.0836 z m -5.014,-0.372 c 0.086,-1.4101 -0.24,-2.8146 -0.937,-4.0431 -0.283,-0.4566 -0.682,-0.8294 -1.157,-1.0796 -0.475,-0.2503 -1.008,-0.3689 -1.544,-0.3435 -0.66,-0.0661 -1.324,0.0723 -1.903,0.3963 -0.578,0.324 -1.043,0.8179 -1.332,1.415 v 7.6981 c 0.296,0.5946 0.76,1.0884 1.336,1.4194 0.575,0.3309 1.236,0.4842 1.899,0.4404 2.425,0 3.638,-1.9731 3.638,-5.903 z"
         fill="#1e1c1c"
         id="path16" />
    </g>
    <g
       id="g174"
       transform="translate(-0.00390621,-0.41870135)"
       inkscape:export-filename="/home/maxime/repos/TelesCoop-site-vitrine/img/logo_square.png"
       inkscape:export-xdpi="59.41"
       inkscape:export-ydpi="59.41">
      <path
         d="M 38.7751,18.3282 H 21.1957 c 0.2295,2.0845 1.2338,4.0067 2.814,5.3854 1.6142,1.391 3.6924,2.124 5.822,2.0539 1.3726,-0.0114 2.7356,-0.2294 4.0432,-0.6469 1.2382,-0.3219 2.4061,-0.8702 3.4447,-1.6172 0.1897,-0.1694 0.4268,-0.2766 0.6793,-0.3073 0.1068,0.0036 0.2116,0.0283 0.3088,0.0727 0.0971,0.0445 0.1846,0.1076 0.2572,0.186 0.0835,0.0788 0.1497,0.1742 0.1943,0.28 0.0445,0.1059 0.0663,0.2198 0.0643,0.3346 -0.0073,0.128 -0.0412,0.2532 -0.0997,0.3674 -0.0585,0.1141 -0.1402,0.2149 -0.2398,0.2957 -1.0073,0.8927 -2.2006,1.5501 -3.4933,1.9245 -1.6556,0.5917 -3.4009,0.8926 -5.159,0.8895 -1.3655,0.0378 -2.7247,-0.1989 -3.9971,-0.6962 -1.2723,-0.4973 -2.4317,-1.245 -3.4098,-2.1987 -0.9546,-0.9039 -1.7117,-1.9955 -2.2239,-3.2062 -0.5121,-1.2107 -0.7682,-2.5143 -0.7519,-3.8288 -0.0128,-1.2126 0.2281,-2.4144 0.7071,-3.5285 0.4791,-1.114 1.1858,-2.1156 2.0747,-2.9405 0.9114,-0.8841 1.9903,-1.57699 3.1735,-2.03803 1.1831,-0.46103 2.4464,-0.68084 3.7158,-0.64654 1.2895,-0.04323 2.5742,0.17998 3.7736,0.65582 1.1993,0.47585 2.2876,1.19405 3.1968,2.10965 0.9062,0.939 1.6117,2.0528 2.0732,3.2734 0.4616,1.2207 0.6697,2.5226 0.6114,3.8263 z m -1.7467,-1.7467 c -0.3013,-1.8258 -1.2622,-3.4774 -2.7007,-4.6415 -1.4904,-1.1474 -3.3186,-1.7696 -5.1996,-1.7696 -1.8809,0 -3.709,0.6222 -5.1993,1.7696 -1.4373,1.1721 -2.3974,2.8282 -2.7007,4.6577 z"
         fill="#1e1c1c"
         id="path2" />
      <path
         d="M 50.5653,0.425459 V 25.7676 h 6.7764 c 0.3185,-0.026 0.6367,0.0536 0.9055,0.2265 0.0886,0.0791 0.1591,0.1765 0.2065,0.2853 0.0475,0.1089 0.0708,0.2267 0.0685,0.3454 0.0011,0.1162 -0.023,0.2313 -0.0704,0.3373 -0.0475,0.1061 -0.1173,0.2006 -0.2046,0.2773 -0.2629,0.1871 -0.5843,0.2731 -0.9055,0.2425 H 42.0748 c -0.3162,0.0311 -0.6327,-0.0552 -0.8894,-0.2425 -0.0851,-0.0775 -0.1525,-0.1726 -0.1972,-0.2788 -0.0447,-0.1061 -0.0657,-0.2207 -0.0616,-0.3358 -0.0054,-0.1176 0.015,-0.235 0.0597,-0.344 0.0446,-0.1089 0.1127,-0.2068 0.1991,-0.2867 0.2629,-0.1728 0.5759,-0.2525 0.8894,-0.2265 h 6.7764 V 2.17211 H 43.8701 C 43.5544,2.19741 43.2397,2.11156 42.9806,1.92948 42.8924,1.84658 42.8224,1.7463 42.7751,1.63494 42.7277,1.52358 42.7041,1.40364 42.7056,1.28264 42.7045,1.16647 42.7286,1.05141 42.776,0.945357 42.8235,0.839308 42.8933,0.744758 42.9806,0.668085 43.2365,0.479333 43.5538,0.392794 43.8701,0.425459 Z"
         fill="#1e1c1c"
         id="path4" />
      <path
         d="M 80.9042,18.3281 H 63.3247 c 0.2175,2.0845 1.2173,4.0091 2.7978,5.3855 1.615,1.3895 3.6928,2.1224 5.8223,2.0538 1.3726,-0.0101 2.7358,-0.2282 4.0431,-0.6469 1.2382,-0.3219 2.4061,-0.8702 3.4447,-1.6172 0.1897,-0.1694 0.4266,-0.2766 0.6791,-0.3073 0.1095,0.0015 0.2176,0.0251 0.3177,0.0696 0.1,0.0445 0.19,0.1088 0.2645,0.1891 0.1582,0.1652 0.2454,0.3859 0.2426,0.6146 -0.0072,0.1265 -0.0394,0.2502 -0.0949,0.364 -0.0556,0.1139 -0.1332,0.2156 -0.2284,0.2991 -1.0139,0.8921 -2.2123,1.5493 -3.5095,1.9245 -1.6552,0.593 -3.4007,0.8939 -5.1589,0.8895 -1.3655,0.0369 -2.7245,-0.2003 -3.9968,-0.6976 -1.2722,-0.4972 -2.4318,-1.2443 -3.4103,-2.1973 -0.9525,-0.9046 -1.7071,-1.9968 -2.2164,-3.2076 -0.5094,-1.2108 -0.7625,-2.5139 -0.7431,-3.8274 -0.0158,-1.213 0.2238,-2.4157 0.703,-3.5302 0.4792,-1.1145 1.1873,-2.1157 2.0786,-2.9388 0.9114,-0.884 1.9905,-1.57696 3.1737,-2.038 1.1831,-0.46103 2.4464,-0.68084 3.7158,-0.64654 1.2871,-0.04294 2.5692,0.18053 3.7659,0.65642 1.1967,0.47589 2.2822,1.19382 3.1883,2.10902 0.9045,0.9409 1.6098,2.0547 2.0739,3.2746 0.464,1.22 0.6772,2.5209 0.6268,3.8251 z M 79.1576,16.5815 C 78.8563,14.7557 77.8952,13.104 76.4567,11.94 c -1.4744,-1.1836 -3.317,-1.813 -5.2074,-1.779 -1.8851,-0.0487 -3.7257,0.5762 -5.1913,1.7628 -1.4468,1.1663 -2.4139,2.8242 -2.7171,4.6577 z"
         fill="#1e1c1c"
         id="path6" />
      <path
         d="m 100.747,10.161 c -0.029,-0.30601 0.058,-0.61188 0.243,-0.8572 0.08,-0.08724 0.178,-0.1569 0.286,-0.20453 0.109,-0.04763 0.226,-0.07215 0.345,-0.07215 0.118,0 0.235,0.02452 0.344,0.07215 0.109,0.04763 0.206,0.11729 0.286,0.20453 0.188,0.25664 0.274,0.57324 0.243,0.8895 v 2.9595 c 0.031,0.3163 -0.055,0.6329 -0.243,0.8895 -0.082,0.0877 -0.183,0.1564 -0.294,0.2011 -0.112,0.0447 -0.232,0.0644 -0.352,0.0577 -0.108,0.0047 -0.215,-0.0131 -0.315,-0.0521 -0.101,-0.039 -0.192,-0.0983 -0.268,-0.1743 -0.172,-0.2039 -0.269,-0.4609 -0.275,-0.7278 -0.043,-0.4146 -0.181,-0.8137 -0.402,-1.1669 -0.222,-0.3532 -0.5211,-0.6511 -0.8753,-0.8708 -1.3331,-0.8217 -2.8832,-1.2219 -4.4474,-1.1482 -1.5838,-0.0937 -3.1567,0.3136 -4.4958,1.1644 -0.3469,0.206 -0.6386,0.4932 -0.8499,0.8369 -0.2113,0.3437 -0.3358,0.7336 -0.3631,1.1361 0.0265,0.442 0.1749,0.8679 0.429,1.2305 0.2541,0.3626 0.604,0.6476 1.0104,0.8234 1.1799,0.524 2.4463,0.8257 3.7357,0.8895 1.6851,0.1265 3.3535,0.4189 4.9811,0.8733 1.1593,0.37 2.1903,1.0594 2.9763,1.9892 0.623,0.7876 0.964,1.7612 0.97,2.7655 -0.018,0.7713 -0.219,1.5272 -0.588,2.2051 -0.368,0.6778 -0.893,1.258 -1.531,1.6924 -1.8098,1.2585 -3.9943,1.8631 -6.1938,1.7143 -2.4039,0.1041 -4.7697,-0.6273 -6.6954,-2.07 0.0425,0.3004 0.0425,0.6052 0,0.9056 -0.058,0.1458 -0.1596,0.2701 -0.291,0.3558 -0.1448,0.0915 -0.3141,0.1367 -0.4853,0.1294 -0.115,0.0041 -0.2296,-0.0169 -0.3358,-0.0616 -0.1061,-0.0447 -0.2012,-0.1119 -0.2787,-0.1971 -0.1931,-0.2544 -0.2853,-0.5712 -0.2588,-0.8895 v -3.5418 c -0.0311,-0.3162 0.0552,-0.6329 0.2426,-0.8895 0.0799,-0.0865 0.1779,-0.1544 0.2868,-0.1991 0.109,-0.0447 0.2263,-0.065 0.3439,-0.0596 0.1173,-0.0024 0.2337,0.0194 0.3422,0.0639 0.1085,0.0445 0.2068,0.1108 0.2886,0.1948 0.084,0.0911 0.1488,0.1982 0.1905,0.3149 0.0417,0.1168 0.0594,0.2407 0.0521,0.3644 -0.0275,0.5786 0.1436,1.1493 0.4851,1.6172 0.5979,0.7375 1.3867,1.2968 2.2803,1.6173 1.2304,0.4577 2.5367,0.6772 3.8491,0.6468 1.7634,0.1311 3.522,-0.3113 5.0136,-1.2614 0.458,-0.281 0.843,-0.6663 1.124,-1.1244 0.281,-0.4581 0.45,-0.976 0.493,-1.5117 -0.008,-0.5356 -0.164,-1.0585 -0.449,-1.5119 -0.285,-0.4534 -0.689,-0.8199 -1.168,-1.0596 -1.5138,-0.7537 -3.164,-1.1937 -4.8519,-1.2937 -1.5645,-0.1053 -3.1114,-0.3929 -4.6091,-0.8571 -0.8701,-0.3144 -1.629,-0.8766 -2.1833,-1.6173 -0.5016,-0.6668 -0.7739,-1.4782 -0.7762,-2.3127 0.002,-0.73 0.2074,-1.445 0.593,-2.0649 0.3857,-0.6199 0.9363,-1.1201 1.5902,-1.4445 1.5757,-0.90924 3.3729,-1.36276 5.1913,-1.30997 2.0282,-0.06127 4.0193,0.55315 5.66,1.74667 z"
         fill="#1e1c1c"
         id="path8" />
      <path
         d="M 15.6002,0.554518 H 0.0099656 V 4.17713 C -0.0206591,4.49836 0.0654998,4.81987 0.252592,5.08278 0.330074,5.16797 0.425211,5.23521 0.531345,5.2799 0.637479,5.32459 0.752067,5.34561 0.867152,5.34149 0.984783,5.34689 1.10231,5.32657 1.21125,5.28187 1.32019,5.23718 1.41795,5.16923 1.4979,5.08278 1.68499,4.81987 1.77115,4.49836 1.74053,4.17713 V 2.2526 h 6.5659 v 23.4986 h -4.4796 c -0.31346,-0.0261 -0.62671,0.0536 -0.88956,0.2263 -0.08645,0.08 -0.1545,0.1778 -0.19919,0.2868 -0.0447,0.1089 -0.06502,0.2263 -0.05962,0.344 -0.00412,0.1151 0.0169,0.2297 0.06159,0.3358 0.04469,0.1061 0.11203,0.2013 0.19722,0.2787 0.25665,0.1874 0.57334,0.2738 0.88956,0.2427 H 14.5168 c 0.3162,0.0311 0.6327,-0.0553 0.8894,-0.2427 0.0851,-0.0774 0.1525,-0.1726 0.1972,-0.2787 0.0447,-0.1061 0.0657,-0.2207 0.0616,-0.3358 0.0054,-0.1177 -0.015,-0.2351 -0.0597,-0.344 -0.0446,-0.109 -0.1127,-0.2068 -0.1991,-0.2868 -0.2629,-0.1727 -0.5759,-0.2524 -0.8894,-0.2263 H 10.037 V 2.26879 h 6.469 v 1.90834 c -0.0307,0.32123 0.0555,0.64274 0.2426,0.90565 0.0775,0.08519 0.1726,0.15243 0.2787,0.19712 0.1062,0.04469 0.2208,0.06571 0.3358,0.06159 0.1177,0.0054 0.235,-0.01492 0.344,-0.05962 0.1089,-0.04469 0.2068,-0.11264 0.2868,-0.19909 0.1729,-0.26884 0.2523,-0.5871 0.2262,-0.90565 v -3.6388 z"
         fill="#1e1c1c"
         id="path18" />
    </g>
  </g>
</svg>
