<svg width="318" height="254" viewBox="0 0 318 254" fill="none" xmlns="http://www.w3.org/2000/svg">
<path d="M253.72 123.061C253.72 177.184 209.844 221.059 155.72 221.059C101.596 221.059 57.7195 177.184 57.7195 123.061C57.7195 68.9379 101.596 25.0625 155.72 25.0625C209.844 25.0625 253.72 68.9379 253.72 123.061Z" fill="#9999CC"/>
<path d="M253.72 123.061C253.72 177.184 209.844 221.059 155.72 221.059C101.596 221.059 57.7195 177.184 57.7195 123.061C57.7195 68.9379 101.596 25.0625 155.72 25.0625C209.844 25.0625 253.72 68.9379 253.72 123.061Z" fill="#9999CC"/>
<path d="M215.72 123.061C215.72 156.198 188.857 183.06 155.72 183.06C122.583 183.06 95.7197 156.198 95.7197 123.061C95.7197 89.9244 122.583 63.0619 155.72 63.0619C188.857 63.0619 215.72 89.9244 215.72 123.061Z" fill="#FFD972"/>
<path d="M215.72 123.061C215.72 156.198 188.857 183.06 155.72 183.06C122.583 183.06 95.7197 156.198 95.7197 123.061C95.7197 89.9244 122.583 63.0619 155.72 63.0619C188.857 63.0619 215.72 89.9244 215.72 123.061Z" fill="#FFD972"/>
<path d="M253.839 122.679C253.839 176.526 210.186 220.178 156.338 220.178C102.49 220.178 58.8379 176.526 58.8379 122.679C58.8379 68.8324 102.49 25.1809 156.338 25.1809C210.186 25.1809 253.839 68.8324 253.839 122.679Z" stroke="#363636" stroke-width="5"/>
<path d="M130.659 100.55C130.929 99.4784 130.279 98.3914 129.208 98.1218L111.753 93.7282C110.681 93.4586 109.594 94.1083 109.325 95.1795C109.055 96.2506 109.705 97.3376 110.776 97.6072L126.292 101.513L122.387 117.029C122.117 118.1 122.767 119.187 123.838 119.456C124.909 119.726 125.996 119.076 126.266 118.005L130.659 100.55ZM186.781 153.191C186.511 154.262 187.161 155.349 188.232 155.618L205.687 160.012C206.759 160.281 207.846 159.632 208.115 158.561C208.385 157.489 207.735 156.402 206.664 156.133L191.148 152.227L195.053 136.711C195.323 135.64 194.673 134.553 193.602 134.284C192.531 134.014 191.444 134.664 191.174 135.735L186.781 153.191ZM84.0546 186.698C63.6342 189.616 47.6203 191.274 35.4018 191.841C23.1318 192.411 14.8638 191.871 9.83392 190.5C7.31557 189.814 5.82638 188.976 5.02466 188.161C4.31206 187.436 4.06956 186.668 4.20187 185.682C4.35035 184.576 4.99317 183.12 6.33661 181.294C7.66234 179.491 9.56448 177.469 12.0159 175.243C21.8681 166.298 39.7049 154.845 60.9901 142.115C71.6054 135.766 83.0331 129.126 94.6928 122.348C106.348 115.572 118.234 108.66 129.746 101.778L127.694 98.3447C116.206 105.212 104.341 112.112 92.6825 118.89C81.0282 125.665 69.5778 132.318 58.937 138.682C37.71 151.377 19.5228 163.025 9.32708 172.282C6.7665 174.607 4.65519 176.829 3.11423 178.924C1.59098 180.995 0.51387 183.091 0.237436 185.15C-0.0551609 187.329 0.572447 189.339 2.17323 190.966C3.68487 192.502 5.95232 193.588 8.78214 194.36C14.4485 195.904 23.2429 196.41 35.5874 195.837C47.9834 195.261 64.1361 193.585 84.6204 190.658L84.0546 186.698ZM233.385 67.0417C253.806 64.1236 269.82 62.4662 282.038 61.8986C294.308 61.3287 302.576 61.8688 307.606 63.2396C310.124 63.9259 311.614 64.7644 312.415 65.5793C313.128 66.3037 313.37 67.0724 313.238 68.0579C313.09 69.1638 312.447 70.6196 311.103 72.4463C309.778 74.2489 307.876 76.2712 305.424 78.4968C295.572 87.4419 277.735 98.8951 256.45 111.625C245.835 117.974 234.407 124.614 222.747 131.392C211.092 138.168 199.206 145.08 187.694 151.962L189.746 155.395C201.234 148.528 213.099 141.628 224.757 134.85C236.412 128.075 247.862 121.422 258.503 115.058C279.73 102.363 297.917 90.7152 308.113 81.4583C310.673 79.1335 312.785 76.9114 314.326 74.8161C315.849 72.7449 316.926 70.6491 317.203 68.5901C317.495 66.4107 316.868 64.4012 315.267 62.7741C313.755 61.2376 311.488 60.1515 308.658 59.3803C302.991 57.8361 294.197 57.3295 281.853 57.9029C269.457 58.4787 253.304 60.1547 232.82 63.082L233.385 67.0417Z" fill="#363636"/>
</svg>
