<svg width="326" height="264" viewBox="0 0 326 264" fill="none" xmlns="http://www.w3.org/2000/svg">
<path d="M254 128C254 180.467 212.139 223 160.5 223C108.861 223 67 180.467 67 128C67 75.5331 108.861 33 160.5 33C212.139 33 254 75.5331 254 128Z" fill="#9999CC"/>
<path d="M220 128C220 161.137 193.137 188 160 188C126.863 188 100 161.137 100 128C100 94.863 126.863 68 160 68C193.137 68 220 94.863 220 128Z" fill="#FFD972"/>
<path d="M220 128C220 161.137 193.137 188 160 188C126.863 188 100 161.137 100 128C100 94.863 126.863 68 160 68C193.137 68 220 94.863 220 128Z" fill="#FFD972"/>
<path d="M160.618 222.618C213.086 222.618 255.618 180.085 255.618 127.618C255.618 75.1514 213.086 32.6184 160.618 32.6184C108.151 32.6184 65.6184 75.1514 65.6184 127.618C65.6184 180.085 108.151 222.618 160.618 222.618Z" stroke="#363636" stroke-width="5"/>
<path d="M136.879 105.976C137.418 103.834 136.119 101.66 133.976 101.121L99.0652 92.3338C96.923 91.7946 94.7492 93.0942 94.21 95.2364C93.6706 97.3788 94.9702 99.5526 97.1126 100.092L128.145 107.903L120.334 138.935C119.795 141.077 121.094 143.251 123.237 143.79C125.379 144.329 127.553 143.03 128.092 140.887L136.879 105.976ZM189.121 157.642C188.582 159.784 189.881 161.958 192.024 162.497L226.934 171.284C229.078 171.824 231.25 170.524 231.79 168.382C232.33 166.239 231.03 164.066 228.888 163.526L197.855 155.716L205.666 124.683C206.206 122.541 204.906 120.367 202.764 119.828C200.622 119.289 198.447 120.588 197.908 122.731L189.121 157.642ZM88.052 189.658C67.6636 192.572 51.7194 194.22 39.5896 194.784C27.357 195.352 19.3522 194.795 14.6406 193.511C12.278 192.867 11.1779 192.152 10.7312 191.698C10.4627 191.425 10.4127 191.277 10.4649 190.888C10.5494 190.259 10.9751 189.123 12.2286 187.419C13.4467 185.762 15.2443 183.84 17.6411 181.664C27.3214 172.874 44.983 161.518 66.2972 148.771C76.8998 142.429 88.316 135.796 99.9784 129.016C111.632 122.241 123.528 115.323 135.053 108.433L130.948 101.567C119.472 108.427 107.618 115.321 95.9578 122.1C84.3062 128.873 72.8444 135.533 62.191 141.905C40.993 154.583 22.6308 166.328 12.2634 175.741C9.64824 178.115 7.43236 180.437 5.7838 182.679C4.17066 184.872 2.87642 187.288 2.53602 189.824C2.16328 192.6 2.98342 195.23 5.0283 197.309C6.8949 199.206 9.55148 200.416 12.537 201.23C18.5217 202.86 27.5792 203.35 39.9608 202.776C52.4456 202.196 68.6676 200.51 89.1838 197.578L88.052 189.658ZM237.948 73.9598C258.336 71.0462 274.28 69.398 286.41 68.8344C298.644 68.2662 306.648 68.8232 311.36 70.1072C313.722 70.7512 314.822 71.466 315.268 71.92C315.538 72.193 315.588 72.3414 315.536 72.73C315.45 73.3594 315.024 74.4952 313.772 76.1996C312.554 77.856 310.756 79.7784 308.358 81.9544C298.678 90.7438 281.016 102.1 259.702 114.848C249.1 121.189 237.684 127.822 226.022 134.602C214.368 141.377 202.472 148.295 190.947 155.185L195.052 162.051C206.528 155.191 218.382 148.297 230.042 141.518C241.694 134.745 253.156 128.085 263.81 121.713C285.006 109.035 303.37 97.2904 313.736 87.8774C316.352 85.503 318.568 83.181 320.216 80.9392C321.83 78.7458 323.124 76.33 323.464 73.7944C323.836 71.0182 323.016 68.3882 320.972 66.3096C319.106 64.4122 316.448 63.2024 313.462 62.3888C307.478 60.7578 298.42 60.268 286.04 60.8432C273.554 61.423 257.332 63.1084 236.816 66.0402L237.948 73.9598Z" fill="#363636"/>
</svg>
