<svg width="163" height="132" viewBox="0 0 163 132" fill="none" xmlns="http://www.w3.org/2000/svg">
<circle cx="80.3092" cy="63.8092" r="37.5" fill="#FFD972" stroke="#9999CC" stroke-width="15"/>
<circle cx="80.3092" cy="63.8092" r="47.5" stroke="#363636" stroke-width="5"/>
<path d="M68.4395 52.9882C68.7091 51.917 68.0594 50.8301 66.9882 50.5605L49.5326 46.1669C48.4615 45.8973 47.3746 46.5471 47.105 47.6183C46.8353 48.6894 47.4851 49.7763 48.5563 50.0459L64.0723 53.9513L60.1669 69.4674C59.8973 70.5386 60.5471 71.6255 61.6183 71.8951C62.6894 72.1647 63.7763 71.5149 64.0459 70.4437L68.4395 52.9882ZM94.5605 78.8209C94.2909 79.8921 94.9407 80.979 96.0118 81.2486L113.467 85.6422C114.539 85.9118 115.625 85.262 115.895 84.1909C116.165 83.1197 115.515 82.0328 114.444 81.7632L98.9277 77.8578L102.833 62.3417C103.103 61.2706 102.453 60.1837 101.382 59.914C100.311 59.6444 99.2237 60.2942 98.9541 61.3654L94.5605 78.8209ZM44.026 94.8292C33.8318 96.286 25.8597 97.1101 19.7948 97.3919C13.6785 97.676 9.6761 97.3975 7.32029 96.7555C6.13899 96.4335 5.58897 96.0761 5.36559 95.8491C5.23134 95.7126 5.20636 95.6385 5.23245 95.4441C5.2747 95.1294 5.48754 94.5616 6.11431 93.7093C6.72337 92.8811 7.62214 91.9199 8.82054 90.8319C13.6607 86.4372 22.4915 80.7591 33.1486 74.3853C38.4499 71.2148 44.158 67.8979 49.9892 64.508C55.8161 61.1206 61.7641 57.6614 67.5263 54.2166L65.4738 50.7834C59.736 54.2136 53.8089 57.6606 47.9789 61.0499C42.1531 64.4366 36.4222 67.7667 31.0955 70.9525C20.4965 77.2915 11.3154 83.1639 6.13171 87.8704C4.82413 89.0576 3.71619 90.2186 2.89191 91.3395C2.08534 92.4362 1.43822 93.6441 1.26802 94.9119C1.08165 96.3 1.49172 97.615 2.51416 98.6543C3.44746 99.603 4.77575 100.208 6.26852 100.615C9.26084 101.43 13.7896 101.675 19.9804 101.388C26.2228 101.098 34.3338 100.255 44.5919 98.789L44.026 94.8292ZM118.974 36.9799C129.168 35.5231 137.14 34.699 143.205 34.4173C149.322 34.1331 153.324 34.4116 155.68 35.0536C156.861 35.3756 157.411 35.733 157.634 35.96C157.769 36.0965 157.794 36.1707 157.768 36.365C157.725 36.6797 157.512 37.2476 156.886 38.0998C156.277 38.928 155.378 39.8892 154.179 40.9773C149.339 45.3719 140.508 51.05 129.851 57.4238C124.55 60.5944 118.842 63.9113 113.011 67.3011C107.184 70.6885 101.236 74.1477 95.4738 77.5925L97.5262 81.0257C103.264 77.5955 109.191 74.1485 115.021 70.7592C120.847 67.3725 126.578 64.0425 131.905 60.8567C142.503 54.5177 151.685 48.6452 156.868 43.9387C158.176 42.7515 159.284 41.5905 160.108 40.4697C160.915 39.3729 161.562 38.165 161.732 36.8972C161.918 35.5091 161.508 34.1941 160.486 33.1548C159.553 32.2061 158.224 31.6012 156.731 31.1944C153.739 30.3789 149.21 30.134 143.02 30.4216C136.777 30.7115 128.666 31.5542 118.408 33.0201L118.974 36.9799Z" fill="#363636"/>
</svg>
